<svg xmlns="http://www.w3.org/2000/svg" width="220" height="64" viewBox="0 0 220 64">
    <g id="Group_63" data-name="Group 63" transform="translate(-188 -861.853)">
        <path id="Path_39" data-name="Path 39" d="M206.143,0H13.865c-.533,0-1.06,0-1.592,0-.445,0-.887.012-1.336.02A17.513,17.513,0,0,0,8.023.306a9.091,9.091,0,0,0-2.764,1A9.459,9.459,0,0,0,2.9,3.2,10.034,10.034,0,0,0,1.191,5.789,11.317,11.317,0,0,0,.283,8.834a22.821,22.821,0,0,0-.261,3.2c-.013.491-.015.983-.022,1.473V50.494c.007.5.009.978.022,1.475a22.819,22.819,0,0,0,.261,3.2,11.294,11.294,0,0,0,.909,3.047A9.948,9.948,0,0,0,2.9,60.8a9.2,9.2,0,0,0,5.118,2.9,17.829,17.829,0,0,0,2.914.283c.449.011.891.017,1.336.017.532,0,1.059,0,1.592,0H206.143c.523,0,1.054,0,1.576,0,.443,0,.9-.006,1.341-.017a17.6,17.6,0,0,0,2.908-.283,9.163,9.163,0,0,0,5.126-2.9,10.244,10.244,0,0,0,1.718-2.583,11.327,11.327,0,0,0,.9-3.047,23.72,23.72,0,0,0,.27-3.2c.006-.5.006-.978.006-1.475.011-.581.011-1.159.011-1.75V15.258c0-.586,0-1.167-.011-1.747,0-.491,0-.983-.006-1.473a23.717,23.717,0,0,0-.27-3.2,11.35,11.35,0,0,0-.9-3.045,9.927,9.927,0,0,0-4.07-4.48,9.229,9.229,0,0,0-2.775-1A17.287,17.287,0,0,0,209.06.023c-.443-.008-.9-.017-1.341-.02-.523,0-1.054,0-1.576,0Z" transform="translate(188 861.853)"/>
        <g id="Group_55" data-name="Group 55" transform="translate(189.443 863.299)">
        <path id="Path_40" data-name="Path 40" d="M11.866,61.983c-.442,0-.874-.006-1.313-.017a16.784,16.784,0,0,1-2.714-.261,8.014,8.014,0,0,1-2.405-.875,7.93,7.93,0,0,1-2.028-1.624,8.512,8.512,0,0,1-1.482-2.231,9.8,9.8,0,0,1-.788-2.648,21.773,21.773,0,0,1-.242-3C.885,51,.873,49.873.873,49.873V12.968s.013-1.1.021-1.429a21.7,21.7,0,0,1,.24-2.991,9.855,9.855,0,0,1,.789-2.655A8.6,8.6,0,0,1,3.4,3.659,8.166,8.166,0,0,1,5.433,2.026a7.929,7.929,0,0,1,2.4-.869A16.65,16.65,0,0,1,10.557.895l1.31-.02h195.12l1.326.02a16.385,16.385,0,0,1,2.7.26,8.084,8.084,0,0,1,2.426.875A8.577,8.577,0,0,1,216.943,5.9a9.872,9.872,0,0,1,.777,2.634,22.789,22.789,0,0,1,.252,3.015c0,.452,0,.938,0,1.422.011.6.011,1.169.011,1.744V48.148c0,.58,0,1.147-.011,1.718,0,.52,0,1-.006,1.485a22.333,22.333,0,0,1-.248,2.961,9.831,9.831,0,0,1-.784,2.668,8.766,8.766,0,0,1-1.474,2.214,7.907,7.907,0,0,1-4.453,2.512,16.592,16.592,0,0,1-2.714.261c-.425.011-.871.017-1.3.017l-1.574,0Z" transform="translate(-0.873 -0.875)" fill="#fff"/>
        <g id="Group_3" data-name="Group 3" transform="translate(50.389 36.511)">
            <path id="Path_41" data-name="Path 41" d="M35.58,24.6a.809.809,0,1,1,.805.9.767.767,0,0,1-.577-.265.932.932,0,0,1-.229-.64Zm.132,11.323V26.385h1.346v9.533Z" transform="translate(-35.58 -23.729)"/>
            <path id="Path_42" data-name="Path 42" d="M38.113,26.91h1.242v1.142h.1A1.943,1.943,0,0,1,41.4,26.771a2.028,2.028,0,0,1,1.716.739,2.5,2.5,0,0,1,.547,1.936V34.1h-1.29V29.8c0-1.155-.457-1.73-1.411-1.73a1.433,1.433,0,0,0-1.161.517,1.756,1.756,0,0,0-.4,1.307V34.1h-1.29Z" transform="translate(-34.435 -21.915)"/>
            <path id="Path_43" data-name="Path 43" d="M43.089,31.5c0-2.275,1.062-3.713,2.714-3.713a2.127,2.127,0,0,1,2,1.261h.1V25.1h1.29v10H47.958V33.962h-.1A2.233,2.233,0,0,1,45.8,35.218C44.139,35.218,43.089,33.778,43.089,31.5Zm1.333,0c0,1.526.654,2.443,1.747,2.443s1.76-.931,1.76-2.437-.679-2.445-1.76-2.445S44.422,29.987,44.422,31.5Z" transform="translate(-32.187 -22.911)"/>
            <path id="Path_44" data-name="Path 44" d="M48.636,25.888A.935.935,0,0,1,49.117,25a.779.779,0,0,1,.927.164.986.986,0,0,1,.2,1.008.841.841,0,0,1-.776.581.753.753,0,0,1-.586-.237A.917.917,0,0,1,48.636,25.888Zm.191,2.128h1.286V35.21H48.828Z" transform="translate(-29.681 -23.02)"/>
            <path id="Path_45" data-name="Path 45" d="M51.087,26.9h1.242V28h.1a1.769,1.769,0,0,1,1.765-1.222,2.432,2.432,0,0,1,.576.059v1.4a3.168,3.168,0,0,0-.72-.087,1.447,1.447,0,0,0-1.175.439,1.769,1.769,0,0,0-.494,1.252V34.1h-1.29Z" transform="translate(-28.573 -21.906)"/>
            <path id="Path_46" data-name="Path 46" d="M54.554,25.888A.935.935,0,0,1,55.035,25a.779.779,0,0,1,.927.164.986.986,0,0,1,.2,1.008.841.841,0,0,1-.776.581.753.753,0,0,1-.586-.237.917.917,0,0,1-.25-.629Zm.191,2.128h1.286V35.21H54.746Z" transform="translate(-27.007 -23.02)"/>
            <path id="Path_47" data-name="Path 47" d="M57,26.91h1.242v1.142h.1a1.943,1.943,0,0,1,1.951-1.281,2.028,2.028,0,0,1,1.716.739,2.5,2.5,0,0,1,.547,1.936V34.1h-1.29V29.8c0-1.155-.457-1.73-1.411-1.73a1.433,1.433,0,0,0-1.161.517,1.756,1.756,0,0,0-.4,1.307V34.1H57Z" transform="translate(-25.899 -21.915)"/>
        </g>
        <path id="Path_48" data-name="Path 48" d="M45.863,22.683H38.991l-1.65,5.362H34.43L40.939,8.207h3.024l6.509,19.839h-2.96ZM39.7,20.209H45.15l-2.685-8.7h-.075Z" transform="translate(14.289 3.506)"/>
        <path id="Path_49" data-name="Path 49" d="M59.016,18.861c0,4.495-2.186,7.383-5.486,7.383a4.387,4.387,0,0,1-4.136-2.531h-.062v7.164h-2.7V11.628h2.612v2.406h.05a4.587,4.587,0,0,1,4.185-2.557C56.817,11.477,59.016,14.379,59.016,18.861Zm-2.773,0c0-2.928-1.375-4.854-3.474-4.854-2.062,0-3.448,1.966-3.448,4.854,0,2.914,1.387,4.866,3.448,4.866,2.1,0,3.474-1.911,3.474-4.866Z" transform="translate(19.804 5.459)"/>
        <path id="Path_50" data-name="Path 50" d="M68.98,18.861c0,4.495-2.186,7.383-5.485,7.383a4.387,4.387,0,0,1-4.136-2.53H59.3v7.164H56.6V11.628H59.21v2.406h.05a4.587,4.587,0,0,1,4.185-2.557C66.781,11.477,68.98,14.379,68.98,18.861Zm-2.773,0c0-2.928-1.375-4.854-3.474-4.854-2.062,0-3.448,1.966-3.448,4.854,0,2.914,1.387,4.866,3.448,4.866,2.1,0,3.474-1.911,3.474-4.866Z" transform="translate(24.306 5.459)"/>
        <path id="Path_51" data-name="Path 51" d="M72.572,22.642c.2,1.967,1.937,3.259,4.31,3.259,2.274,0,3.91-1.292,3.91-3.066,0-1.54-.987-2.462-3.323-3.094l-2.337-.619c-3.311-.88-4.848-2.584-4.848-5.348C70.285,10.351,73,8,76.845,8c3.81,0,6.421,2.351,6.509,5.774H80.631c-.163-1.98-1.65-3.175-3.824-3.175s-3.661,1.209-3.661,2.969c0,1.4.95,2.228,3.274,2.86l1.986.537c3.7.963,5.236,2.6,5.236,5.5,0,3.712-2.687,6.036-6.96,6.036-4,0-6.7-2.27-6.872-5.858Z" transform="translate(30.276 3.383)"/>
        <path id="Path_52" data-name="Path 52" d="M84.787,9.428v3.423h2.5V15.2h-2.5v7.974c0,1.239.5,1.816,1.6,1.816a7.675,7.675,0,0,0,.888-.069v2.337a6.752,6.752,0,0,1-1.5.137c-2.661,0-3.7-1.1-3.7-3.905V15.2H80.165V12.851h1.911V9.428Z" transform="translate(34.954 4.236)"/>
        <path id="Path_53" data-name="Path 53" d="M86.067,18.87c0-4.551,2.436-7.411,6.234-7.411s6.236,2.86,6.236,7.411-2.412,7.411-6.236,7.411S86.067,23.434,86.067,18.87Zm9.721,0c0-3.122-1.3-4.964-3.486-4.964s-3.485,1.857-3.485,4.964c0,3.134,1.3,4.963,3.485,4.963S95.787,22,95.787,18.87Z" transform="translate(37.621 5.45)"/>
        <path id="Path_54" data-name="Path 54" d="M96.188,11.628h2.573V14.09h.062a3.194,3.194,0,0,1,3.162-2.613,3.8,3.8,0,0,1,.924.111v2.777a3.452,3.452,0,0,0-1.212-.179,2.6,2.6,0,0,0-2.1.952,3.187,3.187,0,0,0-.71,2.376v8.579h-2.7Z" transform="translate(42.194 5.459)"/>
        <path id="Path_55" data-name="Path 55" d="M113.076,21.853c-.363,2.626-2.687,4.428-5.66,4.428-3.824,0-6.2-2.819-6.2-7.342s2.386-7.479,6.084-7.479c3.637,0,5.924,2.749,5.924,7.135v1.017h-9.284v.179a4,4,0,0,0,.928,2.927,3.272,3.272,0,0,0,2.608,1.17,2.96,2.96,0,0,0,3.036-2.034Zm-9.12-4.317h6.572a3.685,3.685,0,0,0-.883-2.611,3.022,3.022,0,0,0-2.341-1.06,3.179,3.179,0,0,0-2.369,1.068A3.857,3.857,0,0,0,103.956,17.536Z" transform="translate(44.468 5.45)"/>
        <path id="Path_56" data-name="Path 56" d="M110.738,15.466l1.475-7.259h2.623l-1.786,7.259Z" transform="translate(48.769 3.506)"/>
        <path id="Path_57" data-name="Path 57" d="M113.479,20.814c0-4.468,2.236-7.384,5.5-7.384a4.371,4.371,0,0,1,4.123,2.557h.051V8.207h2.711V28.046h-2.624v-2.46h-.05A4.422,4.422,0,0,1,119,28.2C115.715,28.2,113.479,25.282,113.479,20.814Zm2.76,0c0,2.969,1.375,4.866,3.474,4.866,2.074,0,3.461-1.925,3.461-4.866,0-2.916-1.387-4.854-3.461-4.854-2.1,0-3.474,1.911-3.474,4.854Z" transform="translate(50.007 3.506)"/>
        <path id="Path_58" data-name="Path 58" d="M123.645,21.991c0-2.529,1.761-4.056,4.884-4.262l3.6-.22v-1.1a2.331,2.331,0,0,0-2.6-2.517,2.53,2.53,0,0,0-2.762,2.036h-2.524c.075-2.613,2.286-4.468,5.359-4.468,3.136,0,5.21,1.883,5.21,4.729V26.1h-2.586V23.722h-.062a4.639,4.639,0,0,1-4.149,2.627,3.76,3.76,0,0,1-3.063-1.114,4.593,4.593,0,0,1-1.309-3.245Zm8.483-1.306V19.571l-3.235.22c-1.612.111-2.524.88-2.524,2.117a2.124,2.124,0,0,0,2.4,2.091,2.977,2.977,0,0,0,2.316-.877,3.616,3.616,0,0,0,1.045-2.437Z" transform="translate(54.601 5.45)"/>
        <path id="Path_59" data-name="Path 59" d="M133.232,11.638h2.573V14.1h.062A4.154,4.154,0,0,1,140,11.474c2.9,0,4.561,2.048,4.561,5.361V26.1h-2.711v-8.69c0-2.172-.913-3.381-2.812-3.381a2.929,2.929,0,0,0-2.33,1.09,3.583,3.583,0,0,0-.782,2.65V26.1h-2.7Z" transform="translate(58.932 5.45)"/>
        <g id="_Group_" data-name="&lt;Group&gt;" transform="translate(12.683 11.138)">
            <path id="_Path_" data-name="&lt;Path&gt;" d="M31.95,23.822a8.422,8.422,0,0,1,3.558-6.9,7.491,7.491,0,0,0-6.026-3.585c-2.535-.293-4.993,1.669-6.285,1.669-1.317,0-3.306-1.64-5.448-1.592A7.966,7.966,0,0,0,11,17.949c-2.92,5.563-.742,13.738,2.055,18.235,1.4,2.2,3.035,4.661,5.175,4.574,2.094-.1,2.876-1.469,5.4-1.469,2.5,0,3.238,1.469,5.422,1.414,2.247-.04,3.663-2.212,5.013-4.434a19.017,19.017,0,0,0,2.292-5.138,8,8,0,0,1-4.407-7.309Z" transform="translate(-9.609 -4.583)"/>
            <path id="_Path_2" data-name="&lt;Path&gt;" d="M23.682,13.646a8.645,8.645,0,0,0,1.683-5.8A7.287,7.287,0,0,0,20.522,10.6a8.2,8.2,0,0,0-1.727,5.584A5.987,5.987,0,0,0,23.682,13.646Z" transform="translate(-5.465 -7.847)"/>
        </g>
        </g>
    </g>
</svg>