<svg xmlns="http://www.w3.org/2000/svg" width="317.491" height="212.482" viewBox="0 0 317.491 212.482">
  <path id="Path_1243" data-name="Path 1243" d="M342.45,208.636a23.972,23.972,0,0,1-4.79,5.385c-.511.422-1.042.834-1.581,1.217-6.9,4.957-16.143,7.135-25.12,8.547-17.429,2.74-35.223,3.273-52.941,3.8-14.918.445-29.844.889-44.767,1.184-21.33.428-42.664.556-63.961,0q-17.463-.458-34.9-1.617c-21.567-1.475-43.689-4.082-62.463-13.184a64.427,64.427,0,0,1-9.811-5.807c-5.1-3.715-9.3-8.21-11.542-13.534-3.612-8.558-1.7-18.174,2.423-26.565a105.674,105.674,0,0,1,9.119-14.534c1.995-2.8,4.034-5.574,5.974-8.394.2-.278.4-.575.595-.864.375-.556.747-1.111,1.111-1.667,1.523-2.342,2.965-4.76,4.287-7.224a81.756,81.756,0,0,0,3.57-7.563,65.953,65.953,0,0,0,2.5-7.224c.461-1.653.85-3.312,1.15-4.971,1.642-9.033.775-18.06-4.087-26.232-.047-.081-.1-.167-.147-.247l-.061-.1a76.543,76.543,0,0,0-4.657-6.507,47.01,47.01,0,0,1-5.207-7.944c-3.545-7.438-2.778-15.8-1.489-23.745,1.72-10.558,4.921-21.95,14.832-28.532,10.294-6.852,24.909-6.5,37.687-4.054,19.855,3.8,38.19,11.764,56.7,18.952s37.9,13.762,58.251,14.465c17.974.625,38.938-4.043,50.866-16.185C275.584,23.7,297.364,22.8,313.068,29.932c14.982,6.793,24.67,21.175,23.942,35.534-1.061,20.914-21.216,36.954-33.242,55.253-.539.817-1.064,1.653-1.564,2.5-4.723,7.983-7.632,17.149-4.148,25.459,4.673,11.133,18.549,16.565,30.252,23.559,5.651,3.376,10.808,7.118,14.142,12.053.125.178.239.353.353.528A21.873,21.873,0,0,1,342.45,208.636Z" transform="translate(-28.668 -16.652)" fill="#d72323" opacity="0.1"/>
</svg>