<svg xmlns="http://www.w3.org/2000/svg" width="230.322" height="344.84" viewBox="0 0 230.322 344.84">
  <path id="Path_1237" data-name="Path 1237" d="M226.237,79.585c-20.439-.593-39.908-6.086-58.5-12.1s-37-12.665-56.956-15.85C97.952,49.59,83.28,49.3,72.939,55.029c-9.947,5.51-13.164,15.026-14.892,23.852-1.3,6.642-2.065,13.634,1.5,19.851,2.475,4.318,6.867,7.945,9.9,12.08,10.572,14.39,3.1,32.131-8.356,46.179-5.373,6.59-11.6,12.879-15.75,19.894s-6.06,15.06-2.435,22.21c3.6,7.092,12.163,12.42,21.445,16.167,18.85,7.611,41.066,9.79,62.739,11.022,47.936,2.735,96.131,1.549,144.221.365,17.792-.436,35.647-.881,53.166-3.171,9.719-1.272,19.754-3.291,26.807-8.165,8.96-6.188,11.179-16.663,5.176-24.423-10.067-13.013-37.906-16.255-44.944-30.209-3.873-7.686.106-16.255,5.735-23.385,12.074-15.291,32.316-28.709,33.383-46.2.733-12.006-9-24.029-24.043-29.71-15.77-5.955-37.644-5.2-49.276,4.651C265.338,76.2,244.286,80.107,226.237,79.585Z" transform="matrix(-0.174, 0.985, -0.985, -0.174, 286.972, -0.784)" fill="#d72323" opacity="0.1"/>
</svg>
