<svg xmlns="http://www.w3.org/2000/svg" xmlns:xlink="http://www.w3.org/1999/xlink" width="756.14" height="350.871" viewBox="0 0 756.14 350.871">
  <defs>
    <linearGradient id="linear-gradient" x1="0.5" y1="1" x2="0.5" gradientUnits="objectBoundingBox">
      <stop offset="0" stop-color="gray" stop-opacity="0.251"/>
      <stop offset="0.54" stop-color="gray" stop-opacity="0.122"/>
      <stop offset="1" stop-color="gray" stop-opacity="0.102"/>
    </linearGradient>
    <linearGradient id="linear-gradient-2" x1="0.501" x2="0.501" xlink:href="#linear-gradient"/>
    <linearGradient id="linear-gradient-4" x1="0.501" x2="0.501" xlink:href="#linear-gradient"/>
    <linearGradient id="linear-gradient-5" x1="0.501" x2="0.501" xlink:href="#linear-gradient"/>
    <linearGradient id="linear-gradient-6" x1="0.501" y1="0.999" x2="0.501" y2="-0.001" xlink:href="#linear-gradient"/>
    <linearGradient id="linear-gradient-8" x1="0.501" x2="0.501" xlink:href="#linear-gradient"/>
    <linearGradient id="linear-gradient-9" xlink:href="#linear-gradient"/>
    <linearGradient id="linear-gradient-10" x1="0.506" y1="0.972" x2="0.506" y2="-0.09" xlink:href="#linear-gradient"/>
  </defs>
  <g id="undraw_email_capture_x8kv" transform="translate(0 0)">
    <g id="Group_17" data-name="Group 17" transform="translate(0 76.702)" opacity="0.5">
      <path id="Path_681" data-name="Path 681" d="M251.637,382.131H410.693V328H251.637C187.486,328,135,380.777,135,445.29h0c0,64.49,52.486,117.29,116.637,117.29H410.693V508.45H251.637a62.151,62.151,0,0,1-44.336-18.6,62.918,62.918,0,0,1,0-89.118,62.152,62.152,0,0,1,44.336-18.6Z" transform="translate(-135 -328)" fill="url(#linear-gradient)"/>
    </g>
    <path id="Path_682" data-name="Path 682" d="M208.987,489.563A62.071,62.071,0,0,1,252.775,383.7h97.54V330.5h-97.54c-63.4,0-115.275,51.874-115.275,115.275h0c0,63.4,51.874,115.275,115.275,115.275h97.54v-53.2h-97.54a61.592,61.592,0,0,1-43.784-18.278Z" transform="translate(-135.485 -251.782)" fill="#535461"/>
    <rect id="Rectangle_13" data-name="Rectangle 13" width="60.459" height="53.204" transform="translate(214.025 256.064)" fill="#e0e0e0"/>
    <rect id="Rectangle_14" data-name="Rectangle 14" width="60.459" height="53.204" transform="translate(214.025 78.718)" fill="#e0e0e0"/>
    <g id="Group_18" data-name="Group 18" transform="translate(427.171 50.802)" opacity="0.5">
      <path id="Path_683" data-name="Path 683" d="M727.86,365.511c20.395,0,29.826-10.947,29.826-25.618,0-25.618-20.645-44.022-46.263-44.022a46.511,46.511,0,1,0,0,93.022,45.739,45.739,0,0,0,26.328-8.621,3.515,3.515,0,0,0,1.435-2.305,2.3,2.3,0,0,0-.717-2.144,2.918,2.918,0,0,0-4.248.5c-1.693,2.225-6.747,5.989-21.7,6.328-22.628.516-41.564-17.5-41.636-40.137-.073-22.45,18.363-40.177,40.54-40.427s40.04,15.421,40.04,37.307c0,13.93-9.673,20.395-21.386,20.153-3.732.25-4.474-1.241-3.982-6.449.411-4.289,4.506-22.168,5.957-28.424a3.458,3.458,0,0,0-3.482-4.272h-.25a3.45,3.45,0,0,0-3.015,3.023,26.3,26.3,0,0,0-.21,3.031c-2.241-4.474-7.465-7.956-13.7-8.206-13.18.25-24.619,12.189-25.119,29.6,0,11.689,6.215,18.4,16.928,18.4,7.465,0,12.9-4.474,15.921-8.706C719.138,357.554,718.888,365.011,727.86,365.511Zm-23.627-5.224c-6.715,0-10.7-4.974-10.7-12.9,0-13.7,9.206-22.386,17.9-22.386,7.706,0,10.7,5.224,10.947,12.189-.016,11.181-7.231,23.1-18.17,23.1Z" transform="translate(-664.91 -295.87)" fill="url(#linear-gradient-2)"/>
    </g>
    <path id="Path_684" data-name="Path 684" d="M727.607,364.993c19.492,0,28.521-10.48,28.521-24.482,0-24.482-19.726-42.071-44.208-42.071a44.449,44.449,0,0,0,0,88.9,43.708,43.708,0,0,0,25.159-8.231,3.354,3.354,0,0,0,1.378-2.2,2.193,2.193,0,0,0-.685-2.048,2.789,2.789,0,0,0-4.031.476c-1.612,2.12-6.449,5.723-20.741,6.046-21.628.492-39.718-16.727-39.79-38.363-.073-21.451,17.549-38.4,38.742-38.629s38.267,14.736,38.267,35.655c0,13.309-9.27,19.492-20.443,19.25-3.563.234-4.281-1.185-3.8-6.183.387-4.1,4.3-21.185,5.7-27.158a3.305,3.305,0,0,0-3.329-4.079H728.1a3.3,3.3,0,0,0-2.878,2.894,25.132,25.132,0,0,0-.2,2.9c-2.136-4.28-7.134-7.61-13.075-7.844-12.6.234-23.531,11.648-24.006,28.287,0,11.173,5.941,17.59,16.163,17.59,7.134,0,12.358-4.28,15.211-8.319C719.287,357.375,719.054,364.509,727.607,364.993ZM705.035,360c-6.449,0-10.222-4.756-10.222-12.358,0-13.075,8.795-21.394,17.114-21.394,7.368,0,10.222,4.99,10.48,11.648-.024,10.681-6.949,22.1-17.38,22.1Z" transform="translate(-238.236 -245.567)" fill="#d72323"/>
    <g id="Group_19" data-name="Group 19" transform="translate(534.796 0)" opacity="0.5">
      <path id="Path_685" data-name="Path 685" d="M835.372,273.744c11.979,0,17.525-6.449,17.525-15.042,0-15.042-12.092-25.852-27.166-25.852a27.311,27.311,0,1,0,0,54.623,26.859,26.859,0,0,0,15.461-5.062,2.064,2.064,0,0,0,.806-1.354,1.346,1.346,0,0,0-.419-1.258,1.717,1.717,0,0,0-2.5.29c-.992,1.306-3.966,3.515-12.745,3.716a23.662,23.662,0,1,1-.645-47.311c13.019-.145,23.515,9.053,23.515,21.91,0,8.182-5.7,11.979-12.559,11.834-2.193.145-2.628-.734-2.338-3.8.242-2.515,2.644-13.019,3.5-16.687a2.031,2.031,0,0,0-2.048-2.507h-.145a2.023,2.023,0,0,0-1.765,1.773,15.469,15.469,0,0,0-.121,1.782,9.383,9.383,0,0,0-8.061-4.837c-7.739.145-14.462,7.158-14.752,17.38,0,6.868,3.652,10.81,9.931,10.81a11.584,11.584,0,0,0,9.351-5.111S830.109,273.454,835.372,273.744Zm-13.914-3.063c-3.942,0-6.28-2.918-6.28-7.594,0-8.061,5.4-13.148,10.48-13.148,4.53,0,6.28,3.063,6.449,7.158C832.156,263.668,827.908,270.681,821.459,270.681Z" transform="translate(-798.42 -232.85)" fill="url(#linear-gradient-2)"/>
    </g>
    <path id="Path_686" data-name="Path 686" d="M835.211,273.393c11.366,0,16.638-6.1,16.638-14.284,0-14.284-11.511-24.538-25.8-24.538a25.929,25.929,0,0,0,0,51.858,25.5,25.5,0,0,0,14.679-4.837,1.959,1.959,0,0,0,.806-1.282,1.282,1.282,0,0,0-.4-1.193,1.612,1.612,0,0,0-2.37.282c-.943,1.241-3.764,3.337-12.092,3.531a22.481,22.481,0,1,1-.637-44.949c12.334-.177,22.346,8.65,22.346,20.854,0,7.763-5.409,11.366-11.922,11.229-2.08.137-2.5-.693-2.217-3.6.226-2.418,2.515-12.358,3.321-15.84a1.927,1.927,0,0,0-1.943-2.418h-.137a1.919,1.919,0,0,0-1.677,1.685,14.635,14.635,0,0,0-.121,1.693,8.867,8.867,0,0,0-7.634-4.571c-7.352.137-13.7,6.8-14,16.5,0,6.513,3.466,10.262,9.432,10.262a11,11,0,0,0,8.867-4.837S830.221,273.111,835.211,273.393Zm-13.172-2.91c-3.74,0-5.965-2.773-5.965-7.207,0-7.626,5.127-12.479,9.98-12.479,4.3,0,5.965,2.91,6.1,6.8.008,6.231-4.014,12.89-10.117,12.89Z" transform="translate(-263.955 -233.183)" fill="#d72323"/>
    <g id="Group_20" data-name="Group 20" transform="translate(619.478 56.678)" opacity="0.5">
      <path id="Path_687" data-name="Path 687" d="M941.487,345.239c12.318,0,18.033-6.61,18.033-15.478,0-15.478-12.471-26.6-27.948-26.6a28.1,28.1,0,1,0,0,56.2,27.634,27.634,0,0,0,15.9-5.212,2.12,2.12,0,0,0,.871-1.395,1.387,1.387,0,0,0-.435-1.3,1.765,1.765,0,0,0-2.563.306c-1.024,1.338-4.079,3.619-13.116,3.821a24.344,24.344,0,1,1-.669-48.673c13.4-.153,24.184,9.319,24.184,22.571,0,8.416-5.861,12.317-12.9,12.172-2.257.153-2.709-.75-2.418-3.91.25-2.588,2.725-13.39,3.6-17.17a2.088,2.088,0,0,0-2.1-2.58h-.153a2.08,2.08,0,0,0-1.822,1.83,15.9,15.9,0,0,0-.129,1.83,9.673,9.673,0,0,0-8.263-4.958c-7.964.153-14.873,7.36-15.179,17.88,0,7.062,3.756,11.116,10.222,11.116a11.914,11.914,0,0,0,9.617-5.256S936.078,344.949,941.487,345.239Zm-14.276-3.152c-4.031,0-6.449-3.007-6.449-7.811,0-8.263,5.562-13.527,10.818-13.527,4.659,0,6.449,3.152,6.61,7.36-.008,6.763-4.361,13.978-10.979,13.978Z" transform="translate(-903.47 -303.16)" fill="url(#linear-gradient-4)"/>
    </g>
    <path id="Path_688" data-name="Path 688" d="M941.241,344.663c11.366,0,16.638-6.1,16.638-14.284,0-14.284-11.511-24.538-25.8-24.538a25.929,25.929,0,0,0,0,51.858,25.5,25.5,0,0,0,14.679-4.837,1.959,1.959,0,0,0,.806-1.282,1.282,1.282,0,0,0-.4-1.193,1.612,1.612,0,0,0-2.37.282c-.943,1.241-3.765,3.337-12.092,3.531a22.481,22.481,0,1,1-.637-44.949c12.334-.177,22.321,8.674,22.321,20.9,0,7.763-5.409,11.366-11.922,11.229-2.08.137-2.5-.693-2.217-3.6.226-2.418,2.515-12.358,3.321-15.84a1.927,1.927,0,0,0-1.943-2.418H941.5a1.919,1.919,0,0,0-1.677,1.685,14.635,14.635,0,0,0-.121,1.693,8.867,8.867,0,0,0-7.626-4.579c-7.352.137-13.7,6.8-14,16.5,0,6.513,3.466,10.262,9.432,10.262a11,11,0,0,0,8.867-4.837S936.251,344.4,941.241,344.663Zm-13.172-2.91c-3.74,0-5.965-2.773-5.965-7.207,0-7.626,5.127-12.479,9.98-12.479,4.3,0,5.965,2.91,6.1,6.8.008,6.255-4.014,12.906-10.117,12.906Z" transform="translate(-284.512 -247.001)" fill="#d72323"/>
    <g id="Group_21" data-name="Group 21" transform="translate(544.163 142.006)" opacity="0.5">
      <path id="Path_689" data-name="Path 689" d="M846.283,449.114c11.745,0,17.186-6.3,17.186-14.752,0-14.752-11.89-25.352-26.642-25.352a26.787,26.787,0,0,0,0,53.575,26.345,26.345,0,0,0,15.163-4.966,2.023,2.023,0,0,0,.806-1.33,1.322,1.322,0,0,0-.411-1.233,1.685,1.685,0,0,0-2.418.29c-.975,1.282-3.885,3.45-12.5,3.644a23.207,23.207,0,1,1-.6-46.4c12.8-.137,23.063,8.867,23.063,21.491,0,8.061-5.586,11.745-12.318,11.6-2.152.145-2.58-.717-2.289-3.724.161-2.475,2.58-12.8,3.386-16.372a1.991,1.991,0,0,0-2.007-2.459h-.145a1.983,1.983,0,0,0-1.733,1.741,15.118,15.118,0,0,0-.121,1.749,9.2,9.2,0,0,0-7.876-4.724c-7.594.145-14.18,7.021-14.47,17.049,0,6.731,3.579,10.6,9.738,10.6a11.358,11.358,0,0,0,9.166-5.014S841.124,448.824,846.283,449.114Zm-13.615-3.031c-3.869,0-6.159-2.862-6.159-7.449,0-7.876,5.3-12.9,10.31-12.9,4.442,0,6.159,3.007,6.3,7.021C843.131,439.231,838.972,446.083,832.668,446.083Z" transform="translate(-810.04 -409.01)" fill="url(#linear-gradient-5)"/>
    </g>
    <path id="Path_690" data-name="Path 690" d="M846.181,448.893c11.366,0,16.638-6.1,16.638-14.284,0-14.284-11.511-24.538-25.8-24.538a25.929,25.929,0,1,0,0,51.858,25.5,25.5,0,0,0,14.679-4.837,1.959,1.959,0,0,0,.806-1.282,1.281,1.281,0,0,0-.395-1.193,1.612,1.612,0,0,0-2.37.282c-.943,1.241-3.765,3.337-12.092,3.531a22.481,22.481,0,1,1-.637-44.949c12.334-.177,22.37,8.625,22.37,20.854,0,7.763-5.409,11.366-11.922,11.229-2.08.137-2.5-.693-2.217-3.6.226-2.418,2.515-12.358,3.321-15.84a1.927,1.927,0,0,0-1.943-2.418h-.137a1.919,1.919,0,0,0-1.677,1.685,14.634,14.634,0,0,0-.121,1.693,8.867,8.867,0,0,0-7.626-4.579c-7.352.137-13.7,6.8-14,16.5,0,6.513,3.466,10.262,9.432,10.262a11,11,0,0,0,8.867-4.837S841.191,448.611,846.181,448.893Zm-13.172-2.91c-3.74,0-5.965-2.773-5.965-7.207,0-7.626,5.127-12.479,9.98-12.479,4.3,0,5.965,2.91,6.1,6.8.008,6.231-4.014,12.882-10.117,12.882Z" transform="translate(-266.082 -267.21)" fill="#d72323"/>
    <g id="Group_22" data-name="Group 22" transform="translate(471.596 162.32)" opacity="0.5">
      <path id="Path_691" data-name="Path 691" d="M757.738,475.911c12.221,0,17.888-6.562,17.888-15.316,0-15.316-12.374-26.384-27.731-26.384a27.876,27.876,0,1,0,0,55.751,27.408,27.408,0,0,0,15.776-5.167,2.1,2.1,0,0,0,.863-1.378,1.379,1.379,0,0,0-.427-1.282,1.749,1.749,0,0,0-2.547.3c-1.016,1.33-4.031,3.587-13.011,3.789a24.151,24.151,0,1,1-.693-48.287c13.293-.153,24,9.246,24,22.362,0,8.351-5.812,12.221-12.817,12.092-2.233.145-2.684-.742-2.418-3.877.242-2.572,2.7-13.285,3.571-17.033a2.072,2.072,0,0,0-2.088-2.563h-.153a2.064,2.064,0,0,0-1.806,1.814,15.774,15.774,0,0,0-.129,1.822,9.577,9.577,0,0,0-8.2-4.917c-7.9.145-14.76,7.3-15.058,17.735,0,7.005,3.724,11.028,10.133,11.028a11.826,11.826,0,0,0,9.633-5.272S752.37,475.612,757.738,475.911Zm-14.164-3.128c-4.031,0-6.449-2.983-6.449-7.755,0-8.2,5.514-13.414,10.729-13.414,4.619,0,6.449,3.128,6.562,7.3.04,6.707-4.281,13.857-10.842,13.857Z" transform="translate(-720.02 -434.21)" fill="url(#linear-gradient-6)"/>
    </g>
    <path id="Path_692" data-name="Path 692" d="M757.561,475.393c11.366,0,16.638-6.1,16.638-14.284,0-14.284-11.511-24.538-25.8-24.538a25.929,25.929,0,1,0,0,51.858,25.5,25.5,0,0,0,14.679-4.837,1.959,1.959,0,0,0,.806-1.282,1.282,1.282,0,0,0-.395-1.193,1.612,1.612,0,0,0-2.37.282c-.943,1.241-3.765,3.337-12.092,3.531a22.481,22.481,0,1,1-.637-44.949c12.334-.177,22.321,8.593,22.321,20.8,0,7.763-5.409,11.366-11.922,11.229-2.08.137-2.5-.693-2.217-3.6.226-2.418,2.515-12.358,3.321-15.84a1.927,1.927,0,0,0-1.943-2.418h-.137a1.919,1.919,0,0,0-1.677,1.685,14.636,14.636,0,0,0-.121,1.693,8.867,8.867,0,0,0-7.626-4.579c-7.352.137-13.7,6.8-14,16.5,0,6.513,3.466,10.262,9.432,10.262a11,11,0,0,0,8.867-4.837S752.531,475.119,757.561,475.393Zm-13.172-2.91c-3.74,0-5.965-2.773-5.965-7.207,0-7.626,5.127-12.479,9.98-12.479,4.3,0,5.965,2.91,6.1,6.8-.032,6.239-4.055,12.89-10.149,12.89Z" transform="translate(-248.9 -272.347)" fill="#d72323"/>
    <g id="Group_23" data-name="Group 23" transform="translate(471.596 248.527)" opacity="0.5">
      <path id="Path_693" data-name="Path 693" d="M757.738,582.851c12.221,0,17.888-6.562,17.888-15.316,0-15.316-12.374-26.384-27.731-26.384a27.876,27.876,0,0,0,0,55.751,27.408,27.408,0,0,0,15.776-5.167,2.1,2.1,0,0,0,.862-1.378,1.379,1.379,0,0,0-.427-1.282,1.749,1.749,0,0,0-2.547.3c-1.016,1.33-4.031,3.587-13.011,3.789a24.151,24.151,0,1,1-.693-48.287c13.293-.153,24,9.246,24,22.362,0,8.351-5.812,12.221-12.817,12.092-2.233.145-2.684-.742-2.418-3.877.242-2.572,2.7-13.285,3.571-17.033a2.072,2.072,0,0,0-2.088-2.563h-.153a2.064,2.064,0,0,0-1.806,1.814,15.772,15.772,0,0,0-.129,1.822,9.577,9.577,0,0,0-8.2-4.917c-7.9.145-14.76,7.3-15.058,17.735,0,7.005,3.724,11.028,10.133,11.028a11.826,11.826,0,0,0,9.633-5.224S752.37,582.552,757.738,582.851Zm-14.164-3.128c-4.031,0-6.449-2.983-6.449-7.755,0-8.2,5.514-13.414,10.729-13.414,4.619,0,6.449,3.128,6.562,7.3C754.457,572.564,750.137,579.723,743.575,579.723Z" transform="translate(-720.02 -541.15)" fill="url(#linear-gradient-6)"/>
    </g>
    <path id="Path_694" data-name="Path 694" d="M757.561,582.343c11.366,0,16.638-6.1,16.638-14.284,0-14.284-11.511-24.538-25.8-24.538a25.929,25.929,0,1,0,0,51.858,25.5,25.5,0,0,0,14.679-4.837,1.959,1.959,0,0,0,.806-1.282,1.282,1.282,0,0,0-.395-1.193,1.612,1.612,0,0,0-2.37.282c-.943,1.241-3.765,3.337-12.092,3.531a22.481,22.481,0,1,1-.637-44.949c12.334-.177,22.321,8.593,22.321,20.8,0,7.763-5.409,11.366-11.922,11.229-2.08.137-2.5-.693-2.217-3.6.226-2.418,2.515-12.358,3.321-15.84a1.927,1.927,0,0,0-1.943-2.418h-.137a1.919,1.919,0,0,0-1.677,1.685,14.637,14.637,0,0,0-.121,1.693,8.867,8.867,0,0,0-7.65-4.474c-7.352.137-13.7,6.8-14,16.5,0,6.513,3.466,10.262,9.432,10.262a11,11,0,0,0,8.867-4.837S752.531,582.061,757.561,582.343Zm-13.172-2.91c-3.74,0-5.965-2.773-5.965-7.207,0-7.626,5.127-12.479,9.98-12.479,4.3,0,5.965,2.91,6.1,6.8-.032,6.231-4.055,12.89-10.149,12.89Z" transform="translate(-248.9 -293.083)" fill="#d72323"/>
    <g id="Group_24" data-name="Group 24" transform="translate(593.699 294.685)" opacity="0.5">
      <path id="Path_695" data-name="Path 695" d="M909.5,640.481c12.318,0,18.025-6.61,18.025-15.469,0-15.469-12.471-26.6-27.94-26.6a28.093,28.093,0,1,0,0,56.186,27.626,27.626,0,0,0,15.9-5.208,2.12,2.12,0,0,0,.871-1.395,1.387,1.387,0,0,0-.435-1.3,1.766,1.766,0,0,0-2.563.306c-1.024,1.338-4.079,3.62-13.107,3.821a24.331,24.331,0,1,1-.637-48.649c13.4-.153,24.184,9.311,24.184,22.571,0,8.416-5.861,12.318-12.9,12.164-2.257.153-2.7-.75-2.418-3.91.25-2.588,2.725-13.39,3.6-17.162a2.088,2.088,0,0,0-2.1-2.58h-.153a2.08,2.08,0,0,0-1.822,1.83,15.873,15.873,0,0,0-.129,1.83,9.673,9.673,0,0,0-8.263-4.958c-7.965.153-14.873,7.36-15.171,17.88,0,7.062,3.756,11.116,10.214,11.116a11.914,11.914,0,0,0,9.617-5.256S904.089,640.183,909.5,640.481Zm-14.268-3.152c-4.031,0-6.449-3.007-6.449-7.811,0-8.263,5.562-13.519,10.818-13.519,4.659,0,6.449,3.152,6.61,7.36-.016,6.755-4.377,13.97-10.987,13.97Z" transform="translate(-871.49 -598.41)" fill="url(#linear-gradient-8)"/>
    </g>
    <path id="Path_696" data-name="Path 696" d="M909.251,639.923c11.366,0,16.638-6.1,16.638-14.284,0-14.284-11.511-24.538-25.8-24.538a25.929,25.929,0,1,0,0,51.858,25.5,25.5,0,0,0,14.679-4.837,1.959,1.959,0,0,0,.806-1.282,1.282,1.282,0,0,0-.4-1.193,1.612,1.612,0,0,0-2.37.282c-.943,1.241-3.765,3.337-12.092,3.531a22.481,22.481,0,1,1-.637-44.949c12.334-.177,22.313,8.658,22.313,20.854,0,7.763-5.409,11.366-11.922,11.229-2.08.137-2.5-.693-2.217-3.6.226-2.418,2.515-12.358,3.321-15.84a1.927,1.927,0,0,0-1.943-2.418H909.5a1.919,1.919,0,0,0-1.677,1.685,14.649,14.649,0,0,0-.121,1.693,8.867,8.867,0,0,0-7.626-4.579c-7.352.137-13.7,6.8-14,16.5,0,6.513,3.466,10.262,9.432,10.262a11,11,0,0,0,8.867-4.837S904.261,639.649,909.251,639.923Zm-13.172-2.91c-3.74,0-5.965-2.773-5.965-7.207,0-7.626,5.127-12.479,9.98-12.479,4.3,0,5.965,2.91,6.1,6.8C906.2,630.362,902.182,637.013,896.079,637.013Z" transform="translate(-278.31 -304.247)" fill="#d72323"/>
    <path id="Path_697" data-name="Path 697" d="M853.776,542.05c8.118,0,11.882-4.361,11.882-10.2,0-10.2-8.222-17.533-18.42-17.533a18.541,18.541,0,0,0,0,37.041,18.211,18.211,0,0,0,10.48-3.434,1.394,1.394,0,0,0,.572-.919.911.911,0,0,0-.282-.855,1.161,1.161,0,0,0-1.693.2c-.669.887-2.684,2.418-8.642,2.523a16.043,16.043,0,1,1-.435-32.083c8.811-.1,15.945,6.143,15.945,14.857,0,5.546-3.861,8.118-8.521,8.061-1.483.1-1.782-.492-1.612-2.572.161-1.709,1.8-8.827,2.37-11.286a1.378,1.378,0,0,0-1.387-1.7h-.1a1.37,1.37,0,0,0-1.2,1.2,10.5,10.5,0,0,0-.081,1.209,6.36,6.36,0,0,0-5.449-3.265c-5.248.1-9.8,4.837-10,11.785,0,4.651,2.475,7.328,6.731,7.328a7.852,7.852,0,0,0,6.336-3.466S850.213,541.849,853.776,542.05Zm-9.407-2.08c-2.676,0-4.256-1.983-4.256-5.151,0-5.449,3.668-8.916,7.134-8.916,3.071,0,4.256,2.08,4.361,4.837-.008,4.474-2.878,9.23-7.239,9.23Z" transform="translate(-269.662 -287.422)" fill="#d72323" opacity="0.5"/>
    <path id="Path_698" data-name="Path 698" d="M660,580.44c8.118,0,11.882-4.361,11.882-10.2,0-10.2-8.222-17.533-18.42-17.533a18.541,18.541,0,0,0,0,37.041,18.21,18.21,0,0,0,10.48-3.434,1.4,1.4,0,0,0,.572-.919.911.911,0,0,0-.282-.855,1.161,1.161,0,0,0-1.693.2c-.669.887-2.684,2.418-8.642,2.523a16.043,16.043,0,1,1-.435-32.083c8.811-.1,15.945,6.143,15.945,14.857,0,5.546-3.861,8.118-8.521,8.061-1.483.1-1.782-.492-1.612-2.572.161-1.709,1.8-8.827,2.37-11.286a1.378,1.378,0,0,0-1.387-1.7h-.1a1.37,1.37,0,0,0-1.2,1.2,10.471,10.471,0,0,0-.081,1.209,6.36,6.36,0,0,0-5.449-3.265c-5.248.1-9.8,4.837-10,11.785,0,4.651,2.475,7.328,6.731,7.328a7.852,7.852,0,0,0,6.336-3.466S656.433,580.239,660,580.44Zm-9.407-2.08c-2.676,0-4.256-1.983-4.256-5.151,0-5.449,3.668-8.916,7.134-8.916,3.071,0,4.256,2.08,4.361,4.837-.008,4.474-2.878,9.23-7.239,9.23Z" transform="translate(-232.092 -294.865)" fill="#d72323" opacity="0.5"/>
    <path id="Path_699" data-name="Path 699" d="M636.236,409.51c8.118,0,11.882-4.361,11.882-10.2,0-10.2-8.222-17.533-18.42-17.533a18.541,18.541,0,0,0,0,37.041,18.21,18.21,0,0,0,10.48-3.434,1.394,1.394,0,0,0,.572-.919.911.911,0,0,0-.282-.854,1.161,1.161,0,0,0-1.693.2c-.669.887-2.684,2.418-8.642,2.523a16.043,16.043,0,1,1-.435-32.083c8.811-.1,15.945,6.143,15.945,14.857,0,5.546-3.861,8.118-8.521,8.061-1.483.1-1.781-.492-1.612-2.572.161-1.709,1.8-8.827,2.37-11.286a1.378,1.378,0,0,0-1.387-1.7h-.1a1.37,1.37,0,0,0-1.2,1.2,10.484,10.484,0,0,0-.081,1.209,6.36,6.36,0,0,0-5.449-3.265c-5.248.1-9.8,4.837-10,11.785,0,4.651,2.475,7.328,6.731,7.328a7.851,7.851,0,0,0,6.336-3.466S632.673,409.309,636.236,409.51Zm-9.407-2.08c-2.676,0-4.256-1.983-4.256-5.151,0-5.449,3.668-8.916,7.134-8.916,3.071,0,4.256,2.08,4.361,4.837C634.06,402.675,631.182,407.431,626.829,407.431Z" transform="translate(-227.485 -261.725)" fill="#d72323" opacity="0.5"/>
    <path id="Path_700" data-name="Path 700" d="M1020.176,414.991c8.118,0,11.882-4.361,11.882-10.2,0-10.2-8.222-17.533-18.42-17.533a18.541,18.541,0,0,0,0,37.041,18.21,18.21,0,0,0,10.48-3.434,1.394,1.394,0,0,0,.572-.919.911.911,0,0,0-.282-.854,1.161,1.161,0,0,0-1.693.2c-.669.887-2.684,2.418-8.642,2.523a16.043,16.043,0,1,1-.435-32.083c8.811-.1,15.945,6.143,15.945,14.857,0,5.546-3.861,8.118-8.521,8.061-1.483.1-1.781-.492-1.612-2.572.161-1.709,1.8-8.827,2.37-11.286a1.378,1.378,0,0,0-1.387-1.7h-.1a1.37,1.37,0,0,0-1.2,1.2,10.484,10.484,0,0,0-.081,1.209,6.36,6.36,0,0,0-5.449-3.265c-5.248.1-9.8,4.837-10,11.785,0,4.651,2.475,7.328,6.731,7.328a7.851,7.851,0,0,0,6.336-3.466S1016.581,414.8,1020.176,414.991Zm-9.407-2.08c-2.676,0-4.256-1.983-4.256-5.151,0-5.449,3.668-8.916,7.134-8.916,3.071,0,4.256,2.08,4.361,4.837-.04,4.482-2.918,9.23-7.271,9.23Z" transform="translate(-301.924 -262.787)" fill="#d72323" opacity="0.5"/>
    <path id="Path_701" data-name="Path 701" d="M658.034,463.174c4.547,0,6.659-2.418,6.659-5.715,0-5.715-4.6-9.819-10.318-9.819a10.375,10.375,0,0,0,0,20.741,10.2,10.2,0,0,0,5.869-1.919.806.806,0,0,0,.323-.516.508.508,0,0,0-.161-.476.653.653,0,0,0-.951.113c-.379.492-1.507,1.338-4.837,1.411a8.988,8.988,0,1,1-.242-17.968c4.933-.056,8.932,3.442,8.932,8.319,0,3.1-2.16,4.547-4.772,4.49-.806.056-1-.274-.887-1.443.089-.959,1.008-4.942,1.33-6.336a.806.806,0,0,0-.806-.951h-.056a.806.806,0,0,0-.669.677,5.855,5.855,0,0,0-.048.677,3.563,3.563,0,0,0-3.047-1.83c-2.942.056-5.49,2.717-5.6,6.6,0,2.6,1.386,4.1,3.773,4.1a4.4,4.4,0,0,0,3.547-1.943,1.8,1.8,0,0,0,1.967,1.781Zm-5.272-1.161c-1.5,0-2.418-1.112-2.418-2.886,0-3.047,2.056-4.99,4.031-4.99,1.717,0,2.418,1.161,2.418,2.717.024,2.491-1.588,5.159-4.023,5.159Z" transform="translate(-233.741 -274.494)" fill="#d72323" opacity="0.3"/>
    <path id="Path_702" data-name="Path 702" d="M723.844,517.1c4.547,0,6.659-2.418,6.659-5.715,0-5.715-4.6-9.819-10.318-9.819a10.375,10.375,0,0,0,0,20.741,10.2,10.2,0,0,0,5.869-1.919.806.806,0,0,0,.323-.516.508.508,0,0,0-.161-.476.653.653,0,0,0-.951.113c-.379.492-1.507,1.338-4.837,1.411a8.988,8.988,0,1,1-.242-17.968c4.933-.056,8.932,3.442,8.932,8.319,0,3.1-2.16,4.547-4.772,4.49-.806.056-1-.274-.887-1.443.089-.959,1.008-4.941,1.33-6.336a.806.806,0,0,0-.806-.951h-.056a.806.806,0,0,0-.669.677,5.87,5.87,0,0,0-.048.677,3.563,3.563,0,0,0-3.047-1.83c-2.942.056-5.49,2.717-5.6,6.6,0,2.6,1.387,4.1,3.773,4.1a4.4,4.4,0,0,0,3.547-1.943,1.8,1.8,0,0,0,1.967,1.782Zm-5.272-1.161c-1.5,0-2.418-1.112-2.418-2.886,0-3.047,2.056-4.99,4.031-4.99,1.717,0,2.418,1.161,2.418,2.717.024,2.491-1.58,5.151-4.023,5.151Z" transform="translate(-246.501 -284.95)" fill="#d72323" opacity="0.3"/>
    <path id="Path_703" data-name="Path 703" d="M920.364,451.264c4.547,0,6.659-2.418,6.659-5.715,0-5.715-4.6-9.819-10.318-9.819a10.375,10.375,0,0,0,0,20.741,10.2,10.2,0,0,0,5.869-1.919.806.806,0,0,0,.323-.516.508.508,0,0,0-.161-.476.653.653,0,0,0-.951.113c-.379.492-1.507,1.338-4.837,1.411a8.988,8.988,0,1,1-.242-17.968c4.933-.056,8.932,3.442,8.932,8.319,0,3.1-2.16,4.547-4.772,4.49-.806.056-1-.274-.887-1.443.089-.959,1.008-4.941,1.33-6.336a.806.806,0,0,0-.806-.951h-.056a.806.806,0,0,0-.669.677,5.83,5.83,0,0,0-.048.677,3.563,3.563,0,0,0-3.047-1.83c-2.942.056-5.49,2.717-5.6,6.6,0,2.6,1.387,4.1,3.773,4.1a4.4,4.4,0,0,0,3.547-1.943,1.8,1.8,0,0,0,1.967,1.781Zm-5.272-1.161c-1.5,0-2.418-1.112-2.418-2.886,0-3.047,2.056-4.99,4.031-4.99,1.717,0,2.418,1.161,2.418,2.717.024,2.515-1.58,5.175-4.023,5.175Z" transform="translate(-284.602 -272.185)" fill="#d72323" opacity="0.3"/>
    <path id="Path_704" data-name="Path 704" d="M787.834,394.624c4.547,0,6.659-2.418,6.659-5.715,0-5.715-4.6-9.819-10.318-9.819a10.375,10.375,0,0,0,0,20.741,10.2,10.2,0,0,0,5.869-1.919.806.806,0,0,0,.323-.516.508.508,0,0,0-.161-.476.653.653,0,0,0-.951.113c-.379.492-1.507,1.338-4.837,1.411a8.988,8.988,0,1,1-.242-17.968c4.933-.056,8.932,3.442,8.932,8.319,0,3.1-2.16,4.547-4.772,4.49-.806.056-1-.274-.887-1.443.089-.959,1.008-4.942,1.33-6.336a.806.806,0,0,0-.806-.951h-.056a.806.806,0,0,0-.669.677,5.857,5.857,0,0,0-.048.677,3.563,3.563,0,0,0-3.047-1.83c-2.942.056-5.49,2.717-5.6,6.6,0,2.6,1.387,4.1,3.773,4.1a4.4,4.4,0,0,0,3.547-1.943,1.8,1.8,0,0,0,1.967,1.781Zm-5.272-1.161c-1.5,0-2.418-1.112-2.418-2.886,0-3.047,2.056-4.99,4.031-4.99,1.717,0,2.418,1.161,2.418,2.717.016,2.491-1.588,5.151-4.031,5.151Z" transform="translate(-258.907 -261.203)" fill="#d72323" opacity="0.3"/>
    <path id="Path_705" data-name="Path 705" d="M853.776,348.271c8.118,0,11.882-4.361,11.882-10.2,0-10.2-8.222-17.533-18.42-17.533a18.541,18.541,0,0,0,0,37.041,18.21,18.21,0,0,0,10.48-3.434,1.394,1.394,0,0,0,.572-.919.911.911,0,0,0-.282-.854,1.161,1.161,0,0,0-1.693.2c-.669.887-2.684,2.418-8.642,2.523a16.043,16.043,0,1,1-.435-32.084c8.811-.1,15.945,6.143,15.945,14.857,0,5.546-3.861,8.118-8.521,8.061-1.483.1-1.782-.492-1.612-2.572.161-1.709,1.8-8.827,2.37-11.286a1.378,1.378,0,0,0-1.387-1.7h-.1a1.37,1.37,0,0,0-1.2,1.2,10.5,10.5,0,0,0-.081,1.209,6.36,6.36,0,0,0-5.449-3.265c-5.248.1-9.8,4.837-10,11.785,0,4.651,2.475,7.328,6.731,7.328a7.852,7.852,0,0,0,6.336-3.466S850.213,348.069,853.776,348.271Zm-9.407-2.08c-2.676,0-4.256-1.983-4.256-5.151,0-5.449,3.668-8.916,7.134-8.916,3.071,0,4.256,2.08,4.361,4.837-.008,4.474-2.878,9.23-7.239,9.23Z" transform="translate(-269.662 -249.851)" fill="#d72323" opacity="0.5"/>
    <g id="Group_25" data-name="Group 25" transform="translate(642.171 179.289)" opacity="0.5">
      <path id="Path_706" data-name="Path 706" d="M1008.83,541.039c25.119,0,36.759-13.478,36.759-31.552,0-31.552-25.425-54.228-56.985-54.228a57.292,57.292,0,0,0,0,114.582,56.34,56.34,0,0,0,32.43-10.617,4.33,4.33,0,0,0,1.773-2.838,2.829,2.829,0,0,0-.879-2.636,3.6,3.6,0,0,0-5.232.621c-2.08,2.733-8.311,7.376-26.731,7.8-27.876.629-51.2-21.564-51.285-49.439-.089-27.65,22.62-49.488,49.939-49.794s49.326,18.992,49.326,45.949c0,17.154-11.947,25.119-26.344,24.812-4.595.306-5.514-1.532-4.9-7.964.5-5.28,5.554-27.3,7.344-35.01a4.265,4.265,0,0,0-4.289-5.264h-.306a4.248,4.248,0,0,0-3.708,3.724,32.4,32.4,0,0,0-.258,3.732c-2.757-5.514-9.19-9.8-16.848-10.109-16.235.306-30.326,15.01-30.939,36.453,0,14.4,7.658,22.668,20.83,22.668,9.19,0,15.929-5.514,19.6-10.721C998.1,531.237,997.794,540.426,1008.83,541.039Zm-29.1-6.449c-8.271,0-13.172-6.126-13.172-15.929,0-16.848,11.334-27.569,22.055-27.569,9.5,0,13.172,6.449,13.478,15.01-.032,13.793-8.9,28.5-22.37,28.5Z" transform="translate(-931.62 -455.26)" fill="url(#linear-gradient-9)"/>
    </g>
    <path id="Path_707" data-name="Path 707" d="M1008.6,540.518c24.232,0,35.469-13,35.469-30.439,0-30.439-24.53-52.309-54.969-52.309a55.26,55.26,0,0,0,0,110.519,54.349,54.349,0,0,0,31.277-10.238,4.176,4.176,0,0,0,1.709-2.741,2.725,2.725,0,0,0-.846-2.547,3.466,3.466,0,0,0-5.046.6c-2.007,2.636-8.021,7.118-25.8,7.521-26.892.613-49.383-20.8-49.471-47.69-.089-26.674,21.814-47.738,48.174-48.037s47.561,18.323,47.561,44.337c0,16.55-11.528,24.232-25.417,23.934-4.434.3-5.32-1.475-4.732-7.682.484-5.095,5.353-26.336,7.078-33.768a4.111,4.111,0,0,0-4.135-5.07h-.3a4.1,4.1,0,0,0-3.579,3.6,31.229,31.229,0,0,0-.25,3.6c-2.66-5.32-8.867-9.456-16.251-9.754-15.663.3-29.254,14.51-29.826,35.171,0,13.889,7.384,21.87,20.1,21.87,8.867,0,15.365-5.32,18.912-10.343C998.257,531.062,997.958,539.922,1008.6,540.518Zm-28.077-6.207c-7.981,0-12.7-5.909-12.7-15.365,0-16.251,10.931-26.6,21.282-26.6,9.158,0,12.7,6.207,13,14.51C1002.094,520.123,993.525,534.311,980.522,534.311Z" transform="translate(-289.936 -276.458)" fill="#d72323"/>
    <path id="Path_708" data-name="Path 708" d="M499.35,353.884c.7-3.41,5.2-4.684,8.513-3.611s5.885,3.644,8.867,5.482,6.981,2.9,9.786.806c2.693-1.967,3.071-5.869,5.2-8.424s6.078-3.458,9.488-2.886,6.505,2.306,9.52,4.031L569.2,359.7" transform="translate(-205.64 -254.61)" fill="none" stroke="#535461" stroke-miterlimit="10" stroke-width="3" opacity="0.2"/>
    <path id="Path_709" data-name="Path 709" d="M491.35,378.884c.7-3.41,5.2-4.684,8.513-3.611s5.885,3.644,8.867,5.482,6.981,2.9,9.786.806c2.692-1.967,3.071-5.869,5.2-8.424s6.078-3.458,9.488-2.886,6.505,2.305,9.52,4.031L561.2,384.7" transform="translate(-204.089 -259.457)" fill="none" stroke="#535461" stroke-miterlimit="10" stroke-width="3" opacity="0.2"/>
    <path id="Path_710" data-name="Path 710" d="M499.35,589.6c.7,3.41,5.2,4.684,8.513,3.611s5.885-3.644,8.867-5.482,6.981-2.9,9.786-.806c2.693,1.967,3.071,5.869,5.2,8.424s6.078,3.458,9.488,2.886,6.505-2.305,9.52-4.031L569.2,583.78" transform="translate(-205.64 -300.889)" fill="none" stroke="#535461" stroke-miterlimit="10" stroke-width="3" opacity="0.2"/>
    <path id="Path_711" data-name="Path 711" d="M491.35,564.6c.7,3.41,5.2,4.684,8.513,3.611s5.885-3.644,8.867-5.482,6.981-2.9,9.786-.806c2.692,1.967,3.071,5.869,5.2,8.424s6.078,3.458,9.488,2.886,6.505-2.306,9.52-4.031L561.2,558.78" transform="translate(-204.089 -296.042)" fill="none" stroke="#535461" stroke-miterlimit="10" stroke-width="3" opacity="0.2"/>
    <g id="Group_26" data-name="Group 26" transform="translate(78.097 207.856)" opacity="0.7">
      <path id="Path_712" data-name="Path 712" d="M283.867,552.432a4.724,4.724,0,0,0-1.975,1.967l-1.016-1.153h0c-.145-1.249-3.224-27.021-9.359-27.166-4.7-.113-9.786-.508-13.2.806h0l-.177-.5-1.822-5.119,4.837-1.717-.073-.2,3.821-1.354c.548-.806-.645-.766-1.91-.564a1.158,1.158,0,0,0,.064-.226l2.217-13.14s.588-2.813-.709-3.6-1.209,3.6-1.209,3.6l-2.418,9.02s-6.949-3.482-11.108-4.966a5.991,5.991,0,0,0-1.524-.484c-.734-.185-1.249-.234-1.443-.081h0a5.975,5.975,0,0,0-1.612.331l-.4.145-.218-.621-.073-.2a6.836,6.836,0,0,0,2.644-5.183,7.682,7.682,0,0,0-1.669-6.505.443.443,0,0,0,.145-.121.653.653,0,0,0,0-.653,4.748,4.748,0,0,0-3.515-2.692,5.071,5.071,0,0,1-1.79-.395c-.46-.266-.806-.75-1.282-.919a2.015,2.015,0,0,0-1.749.468,6.57,6.57,0,0,0-1.475,1.467,8.449,8.449,0,0,1-1.451,1.862c-.443.347-.992.532-1.443.871a2.773,2.773,0,0,0-1.1,2.241,3.619,3.619,0,0,0,.314,1.33,7.635,7.635,0,0,0-.137,1.894l-.089.1.089-.089a7.674,7.674,0,0,0,4.659,6.65,6.836,6.836,0,0,0,3.869,1.1l.073.2.282.806a8.062,8.062,0,0,0-2.1,1.886h0l-.137.177h0c-.564.806-2.418,3.5-1.612,5.457a.423.423,0,0,0,.081.234,8.125,8.125,0,0,0,.419,1.83l4.563,12.85.169.468.4,1.137a7.537,7.537,0,0,0,3.087,3.861c2.838.282,8.932,2.144,9.52,1.9l7.586,2.676-4.031,18.541s-2.257,3.515.435,3.466a55.156,55.156,0,0,0,7.835-1.2s.306-1.693-1.016-1.9a4.725,4.725,0,0,0-2.717.629l-.226-1.274s11.374-19.879,6.247-23.49c-.983-.693-1.975-1.411-2.967-2.112l2.66-.677,8.432,21.87.064-.048c0,.484.129,4.127,2.241,2.757a55.137,55.137,0,0,0,6.014-5.159S285.092,551.916,283.867,552.432Zm-23.377-34.486-5.32.314-1.427-4.127,7.255,3.7Z" transform="translate(-231.88 -490.698)" fill="url(#linear-gradient-10)"/>
    </g>
    <circle id="Ellipse_24" data-name="Ellipse 24" cx="7.505" cy="7.505" r="7.505" transform="translate(76.617 213.643) rotate(-19.56)"/>
    <path id="Path_713" data-name="Path 713" d="M257.223,517.721l7.432,3.813a1.121,1.121,0,0,0,1.612-.806l2.185-12.858h-1.878l-2.418,8.819s-13.382-5.965-14.51-5.03S257.223,517.721,257.223,517.721Z" transform="translate(-157.208 -286.171)" fill="#d72323"/>
    <path id="Path_714" data-name="Path 714" d="M254.24,578.34" transform="translate(-158.118 -299.834)" fill="none" stroke="#bdbdbd" stroke-miterlimit="10" stroke-width="5"/>
    <path id="Path_715" data-name="Path 715" d="M255,549.25" transform="translate(-158.266 -294.194)" fill="none" stroke="#bdbdbd" stroke-miterlimit="10" stroke-width="5"/>
    <path id="Path_716" data-name="Path 716" d="M9.6,0h0a7.07,7.07,0,0,1,7.07,7.07v14.2H0V9.609A9.609,9.609,0,0,1,9.6,0Z" transform="translate(81.433 229.08) rotate(-19.56)" fill="#d72323"/>
    <path id="Path_717" data-name="Path 717" d="M263.61,543.5l-7.166,2.547a9.069,9.069,0,0,1-11.584-5.506h0L260.571,535Z" transform="translate(-156.3 -291.431)" fill="#4d8af0"/>
    <path id="Path_718" data-name="Path 718" d="M240.763,523.9l11.205,4.982,10.609-3.773-.492-1.378-10.076.6-8.916-5.449c-1.419-.871-1.693.919-2.273,2.475h0C240.3,522.785,239.369,523.276,240.763,523.9Z" transform="translate(-155.363 -288.26)" opacity="0.05"/>
    <path id="Path_719" data-name="Path 719" d="M240.555,523.6l11.326,5.038,10.609-3.773L262,523.49l-10.077.6-8.795-5.377c-1.516-.927-1.765.911-2.33,2.6h0C240.37,522.644,239.273,523.039,240.555,523.6Z" transform="translate(-155.348 -288.225)" fill="#d72323"/>
    <path id="Path_720" data-name="Path 720" d="M267.3,524.562s5.248-1.419,4.224.048l-3.732,1.33Z" transform="translate(-160.65 -289.288)" fill="#fda57d"/>
    <path id="Path_721" data-name="Path 721" d="M270.65,507.013s-.081-4.28,1.185-3.515.693,3.515.693,3.515Z" transform="translate(-161.3 -285.306)" fill="#fda57d"/>
    <path id="Path_722" data-name="Path 722" d="M109.86,307.686l.161.46,15.727-5.554-.177-.492Z" transform="translate(-21.3 -58.571)" opacity="0.05"/>
    <path id="Path_723" data-name="Path 723" d="M263.258,545.188l10.915-2.789,8.247,21.378,3.345-2.58s-3.031-26.465-9.158-26.6-12.9-.806-15.623,2.668S263.258,545.188,263.258,545.188Z" transform="translate(-159.268 -291.325)" fill="#4d8af0"/>
    <path id="Path_724" data-name="Path 724" d="M261.9,539.25s6.844.887,8.811,3.95" transform="translate(-159.603 -292.255)" opacity="0.1"/>
    <path id="Path_725" data-name="Path 725" d="M256.789,547.461l10.584,3.748-3.966,18.114,4.216-.282s11.124-19.436,6.11-22.966-10.31-7.844-14.47-6.449S256.789,547.461,256.789,547.461Z" transform="translate(-158.547 -292.276)" fill="#4d8af0"/>
    <path id="Path_726" data-name="Path 726" d="M128.38,283.92l3.321,2.805.145-1.161Z" transform="translate(-24.89 -55.047)" opacity="0.05"/>
    <path id="Path_727" data-name="Path 727" d="M264.922,576.462s-2.209,3.442.427,3.386a53.917,53.917,0,0,0,7.658-1.169s.3-1.652-.992-1.862a4.62,4.62,0,0,0-2.66.613l-.226-1.25Z" transform="translate(-160.021 -299.415)" fill="#333"/>
    <path id="Path_728" data-name="Path 728" d="M287.87,569.869s0,4.184,2.193,2.749a53.935,53.935,0,0,0,5.877-5.046s-.621-1.564-1.83-1.056a4.619,4.619,0,0,0-1.935,1.927l-1-1.129Z" transform="translate(-164.639 -297.522)" fill="#333"/>
    <rect id="Rectangle_15" data-name="Rectangle 15" width="4.168" height="6.255" rx="2.084" transform="translate(86.101 223.551) rotate(-19.56)" fill="#fda57d"/>
    <path id="Path_729" data-name="Path 729" d="M244.017,509.511a2.088,2.088,0,0,0-1.266,2.66l.234.669a6.675,6.675,0,0,0,3.926-1.395l-.234-.669a2.088,2.088,0,0,0-2.66-1.266Z" transform="translate(-155.868 -286.466)" opacity="0.05"/>
    <circle id="Ellipse_25" data-name="Ellipse 25" cx="6.675" cy="6.675" r="6.675" transform="translate(78.358 215.455) rotate(-19.56)" fill="#fda57d"/>
    <path id="Path_730" data-name="Path 730" d="M234.5,505.131a2.338,2.338,0,0,0,1.967-2.257c.25-2.1.588-3.321,4.6-3.555s4.788-.371,4.6-1.427c-.121-.726-2.007-1.919-3.184-2.6a2.467,2.467,0,0,0-2.048-.137l-4.1,1.459-2.056,2.007L233,500.907l.387,2.33Z" transform="translate(-154 -283.674)" opacity="0.05"/>
    <path id="Path_731" data-name="Path 731" d="M234.417,504.891a2.338,2.338,0,0,0,1.967-2.257c.25-2.1.588-3.321,4.6-3.555s4.788-.371,4.6-1.427c-.121-.726-2.007-1.919-3.184-2.6a2.467,2.467,0,0,0-2.048-.137l-4.1,1.459-2.056,2.007-1.29,2.289L233.3,503Z" transform="translate(-153.983 -283.628)"/>
    <ellipse id="Ellipse_26" data-name="Ellipse 26" cx="0.677" cy="1.354" rx="0.677" ry="1.354" transform="translate(79.967 219.977) rotate(-19.56)" fill="#fda57d"/>
    <path id="Path_732" data-name="Path 732" d="M233.333,500.934a5.368,5.368,0,0,1-.9-2.467,2.709,2.709,0,0,1,1.072-2.185c.443-.331.975-.516,1.411-.854a8.264,8.264,0,0,0,1.419-1.822,6.449,6.449,0,0,1,1.443-1.435,1.975,1.975,0,0,1,1.717-.451c.492.169.806.637,1.258.9A4.958,4.958,0,0,0,242.5,493a4.643,4.643,0,0,1,3.434,2.628.637.637,0,0,1,0,.637.678.678,0,0,1-.339.193c-2.523.855-5.054,1.717-7.634,2.37a19.171,19.171,0,0,0-2.418.7,8.118,8.118,0,0,0-3.1,2.193" transform="translate(-153.89 -283.032)"/>
  </g>
</svg>
