<svg class="mainpage_body_background"  xmlns="http://www.w3.org/2000/svg" xmlns:xlink="http://www.w3.org/1999/xlink" width="1219.376" height="949.206" viewBox="0 0 1219.376 949.206">
<defs>
<filter id="lu" x="577.029" y="516.511" width="50" height="57" filterUnits="userSpaceOnUse">
<feOffset dy="3" input="SourceAlpha"/>
<feGaussianBlur stdDeviation="3" result="blur"/>
<feFlood flood-opacity="0.161"/>
<feComposite operator="in" in2="blur"/>
<feComposite in="SourceGraphic"/>
</filter>
<filter id="lu-2" x="577.029" y="516.511" width="50" height="57" filterUnits="userSpaceOnUse">
<feOffset dy="3" input="SourceAlpha"/>
<feGaussianBlur stdDeviation="3" result="blur-2"/>
<feFlood flood-opacity="0.161" result="color"/>
<feComposite operator="out" in="SourceGraphic" in2="blur-2"/>
<feComposite operator="in" in="color"/>
<feComposite operator="in" in2="SourceGraphic"/>
</filter>
</defs>
<path id="Path_60" data-name="Path 60" d="M700.58,130s8.4,66.316,66.721,125.485c68.467,60.015,121.72,44.8,261.191,111.577,47.651,22.815,166.632,109.907,302.626,216.605,76.195,59.781,141.23,191.633,218.551,255.863,97.354,79.075,191.2,85.711,230.332,109.886,125.7,76.92,138.987,129.79,138.987,129.79L1919.956,130Z" transform="translate(-700.58 -130)" fill="#3e3636"/>
<path id="Path_1" data-name="Path 1" d="M781.445,258.424h-4V148.879a63.4,63.4,0,0,0-63.4-63.4H481.957a63.4,63.4,0,0,0-63.4,63.4V749.853a63.4,63.4,0,0,0,63.4,63.4H714.044a63.4,63.4,0,0,0,63.4-63.4V336.4h4Z" transform="translate(-20.58 43)" fill="#b4aeae"/>
<path id="Path_2" data-name="Path 2" d="M763.951,149.321v600.09a47.351,47.351,0,0,1-47.349,47.35H483.4a47.351,47.351,0,0,1-47.35-47.349V149.321a47.351,47.351,0,0,1,47.349-47.35h28.291a22.507,22.507,0,0,0,20.83,30.99h132.96a22.507,22.507,0,0,0,20.83-30.99H716.6a47.351,47.351,0,0,1,47.35,47.349Z" transform="translate(-20.58 43)" fill="#fff"/>
<path id="Path_3" data-name="Path 3" d="M535.6,266.516H499.791a11.142,11.142,0,0,1-11.129-11.129V219.575a11.142,11.142,0,0,1,11.129-11.129H535.6a11.142,11.142,0,0,1,11.129,11.129v35.812A11.142,11.142,0,0,1,535.6,266.516Z" transform="translate(-20.58 43)" fill="#d72323"/>
<path id="Path_4" data-name="Path 4" d="M617.907,266.516H582.095a11.142,11.142,0,0,1-11.129-11.129V219.575A11.142,11.142,0,0,1,582.1,208.446h35.812a11.142,11.142,0,0,1,11.129,11.129v35.812a11.142,11.142,0,0,1-11.129,11.129Z" transform="translate(-20.58 43)" fill="#d72323"/>
<path id="Path_5" data-name="Path 5" d="M700.211,266.516H664.4a11.142,11.142,0,0,1-11.129-11.129V219.575A11.142,11.142,0,0,1,664.4,208.446h35.812a11.142,11.142,0,0,1,11.129,11.129v35.812A11.142,11.142,0,0,1,700.211,266.516Z" transform="translate(-20.58 43)" fill="#e6e6e6"/>
<path id="Path_6" data-name="Path 6" d="M535.6,358.025H499.791A11.142,11.142,0,0,1,488.662,346.9V311.084a11.142,11.142,0,0,1,11.129-11.129H535.6a11.142,11.142,0,0,1,11.129,11.129V346.9A11.142,11.142,0,0,1,535.6,358.025Z" transform="translate(-20.58 43)" fill="#e6e6e6"/>
<path id="Path_7" data-name="Path 7" d="M617.907,358.025H582.095A11.142,11.142,0,0,1,570.966,346.9V311.084A11.142,11.142,0,0,1,582.1,299.955h35.812a11.142,11.142,0,0,1,11.129,11.129V346.9a11.142,11.142,0,0,1-11.129,11.129Z" transform="translate(-20.58 43)" fill="#e6e6e6"/>
<path id="Path_8" data-name="Path 8" d="M700.211,358.025H664.4A11.142,11.142,0,0,1,653.27,346.9V311.084A11.142,11.142,0,0,1,664.4,299.955h35.812a11.142,11.142,0,0,1,11.129,11.129V346.9A11.142,11.142,0,0,1,700.211,358.025Z" transform="translate(-20.58 43)" fill="#e6e6e6"/>
<path id="Path_9" data-name="Path 9" d="M535.6,449.516H499.791a11.142,11.142,0,0,1-11.129-11.129V402.575a11.142,11.142,0,0,1,11.129-11.129H535.6a11.142,11.142,0,0,1,11.129,11.129v35.812A11.142,11.142,0,0,1,535.6,449.516Z" transform="translate(-20.58 43)" fill="#e6e6e6"/>
<path id="Path_10" data-name="Path 10" d="M617.907,449.516H582.095a11.142,11.142,0,0,1-11.129-11.129V402.575A11.142,11.142,0,0,1,582.1,391.446h35.812a11.142,11.142,0,0,1,11.129,11.129v35.812a11.142,11.142,0,0,1-11.129,11.129Z" transform="translate(-20.58 43)" fill="#e6e6e6"/>
<path id="Path_11" data-name="Path 11" d="M700.211,449.516H664.4a11.142,11.142,0,0,1-11.129-11.129V402.575A11.142,11.142,0,0,1,664.4,391.446h35.812a11.142,11.142,0,0,1,11.129,11.129v35.812a11.142,11.142,0,0,1-11.129,11.129Z" transform="translate(-20.58 43)" fill="#e6e6e6"/>
<path id="Path_12" data-name="Path 12" d="M535.6,541.025H499.791A11.142,11.142,0,0,1,488.662,529.9V494.084a11.142,11.142,0,0,1,11.129-11.129H535.6a11.142,11.142,0,0,1,11.129,11.129V529.9A11.142,11.142,0,0,1,535.6,541.025Z" transform="translate(-20.58 43)" fill="#e6e6e6"/>
<path id="Path_13" data-name="Path 13" d="M617.907,541.025H582.095A11.142,11.142,0,0,1,570.966,529.9V494.084A11.142,11.142,0,0,1,582.1,482.955h35.812a11.142,11.142,0,0,1,11.129,11.129V529.9a11.142,11.142,0,0,1-11.129,11.129Z" transform="translate(-20.58 43)" fill="#e6e6e6"/>
<path id="Path_14" data-name="Path 14" d="M700.211,541.025H664.4A11.142,11.142,0,0,1,653.27,529.9V494.084A11.142,11.142,0,0,1,664.4,482.955h35.812a11.142,11.142,0,0,1,11.129,11.129V529.9a11.142,11.142,0,0,1-11.129,11.129Z" transform="translate(-20.58 43)" fill="#e6e6e6"/>
<path id="Path_15" data-name="Path 15" d="M640.941,530.413H605.129A11.643,11.643,0,0,1,593.5,518.784V482.972a11.642,11.642,0,0,1,11.629-11.629h35.812a11.642,11.642,0,0,1,11.629,11.629v35.812A11.642,11.642,0,0,1,640.941,530.413Z" transform="translate(-20.58 43)" fill="#d72323"/>
<path id="Path_16" data-name="Path 16" d="M471.5,622.828a10.342,10.342,0,0,0,3.7-15.421l7.733-75.611H466.215l-6.146,73.83a10.4,10.4,0,0,0,11.427,17.2Z" transform="translate(-20.58 43)" fill="#ffb8b8"/>
<circle id="Ellipse_1" data-name="Ellipse 1" cx="23.645" cy="23.645" r="23.645" transform="translate(442.616 485.779)" fill="#ffb8b8"/>
<path id="Path_17" data-name="Path 17" d="M491.293,575.83a4.324,4.324,0,0,1-4.168-3.176c-1.894-6.883-6.823-18.52-14.649-34.59a28.652,28.652,0,0,1,16.271-39.558h0a28.639,28.639,0,0,1,36.8,18.244c6.066,19.017,5.773,39.388,5.365,47.263a4.343,4.343,0,0,1-3.4,4.01l-35.289,7.706a4.309,4.309,0,0,1-.929.1Z" transform="translate(-20.58 43)" fill="#ccc"/>
<path id="Path_18" data-name="Path 18" d="M294.466,714.884h11.8l5.615-45.524h-17.42Z" transform="translate(210.42 128.477)" fill="#ffb8b8"/>
<path id="Path_19" data-name="Path 19" d="M0,0H37.094V14.332H14.332A14.332,14.332,0,0,1,0,0H0Z" transform="translate(539.449 854.32) rotate(179.997)" fill="#2f2e41"/>
<path id="Path_20" data-name="Path 20" d="M176.447,699.587l10.343,5.686,26.854-37.186L198.379,659.7Z" transform="translate(210.42 128.477)" fill="#ffb8b8"/>
<path id="Path_21" data-name="Path 21" d="M0,0H37.094V14.332H14.332A14.332,14.332,0,0,1,0,0H0Z" transform="translate(411.878 854.318) rotate(-151.199)" fill="#2f2e41"/>
<path id="Path_22" data-name="Path 22" d="M524.915,775.092a4.332,4.332,0,0,1-4.292-3.775L505.862,657.575a2.407,2.407,0,0,0-4.494-.853L439.853,768.33a4.356,4.356,0,0,1-5.336,1.958l-13.409-5.109a4.332,4.332,0,0,1-2.47-5.681l42.613-104.682a3.337,3.337,0,0,0,.218-.829c5.772-44.673,20.457-67.39,24.82-73.289a3.355,3.355,0,0,0,.477-3.054l-.6-1.8A4.33,4.33,0,0,1,487,571.63c15.722-17.908,43.126-8.136,43.4-8.035l.137.051.086.117c30.727,42.14,19.366,179.01,16.777,206.019a4.32,4.32,0,0,1-3.98,3.9l-18.17,1.4Q525.081,775.092,524.915,775.092Z" transform="translate(-20.58 43)" fill="#2f2e41"/>
<path id="Path_24" data-name="Path 24" d="M535.8,520.456,522.43,537.779a4.332,4.332,0,0,1-6.55.359l-15.131-15.712A12.031,12.031,0,1,1,515.5,503.417l18.978,10.612a4.332,4.332,0,0,1,1.314,6.427Z" transform="translate(-20.58 43)" fill="#ccc"/>
<path id="Path_25" data-name="Path 25" d="M483.991,550.553l-21.532-3.888a4.332,4.332,0,0,1-3.335-5.649l6.98-20.667a12.031,12.031,0,1,1,23.667,4.345l-.681,21.733a4.332,4.332,0,0,1-5.1,4.126Z" transform="translate(-20.58 43)" fill="#ccc"/>
<path id="Path_26" data-name="Path 26" d="M490.584,460.985c6.077,4.159,14.057,8.435,20.264,4.006a11.3,11.3,0,0,0,3.707-13.02c-2.972-8.5-11.138-12.241-18.947-15.109-10.151-3.729-21.2-6.695-31.684-4.025s-19.742,12.816-17.85,23.464c1.521,8.563,9.6,15.687,8.452,24.308-1.154,8.676-10.911,13.243-19.525,14.793s-18.253,2.049-24.444,8.236c-7.9,7.893-5.925,22,1.506,30.334s18.645,12.111,29.511,14.679c14.4,3.4,29.968,5.19,43.641-.456s24.314-20.847,20.353-35.1c-1.673-6.021-5.614-11.109-9.423-16.062s-7.666-10.133-9.119-16.211c-1.211-5.065-.315-10.945,3.044-14.744a4.272,4.272,0,0,0,.572-4.993Z" transform="translate(-20.58 43)" fill="#2f2e41"/>
<path id="Path_27" data-name="Path 27" d="M500,716.459H487.74l-5.832-47.288H500Z" transform="translate(210.42 128.477)" fill="#ffb8b8"/>
<path id="Path_28" data-name="Path 28" d="M478.983,712.956h23.644v14.887H464.1A14.887,14.887,0,0,1,478.983,712.956Z" transform="translate(210.42 128.477)" fill="#2f2e41"/>
<path id="Path_29" data-name="Path 29" d="M546,716.459H533.74l-5.832-47.288H546Z" transform="translate(210.42 128.477)" fill="#ffb8b8"/>
<path id="Path_30" data-name="Path 30" d="M524.983,712.956h23.644v14.887H510.1A14.887,14.887,0,0,1,524.983,712.956Z" transform="translate(210.42 128.477)" fill="#2f2e41"/>
<path id="Path_31" data-name="Path 31" d="M775.5,661.1a10.743,10.743,0,0,1-2.062-16.343L765.368,530.2l23.253,2.255.639,112.187A10.8,10.8,0,0,1,775.5,661.1Z" transform="translate(-20.58 43)" fill="#ffb8b8"/>
<path id="Path_32" data-name="Path 32" d="M730.421,778.113l-13.5-.644a4.5,4.5,0,0,1-4.286-4.463L711.7,636.45a4.5,4.5,0,0,1,5.146-4.485l53.994,7.838a4.474,4.474,0,0,1,3.854,4.42l6.944,126.534a4.5,4.5,0,0,1-4.5,4.534h-14.55a4.479,4.479,0,0,1-4.445-3.8l-8.977-57.067a3.5,3.5,0,0,0-6.933.128l-7.126,59.6a4.517,4.517,0,0,1-4.469,3.966Q730.528,778.119,730.421,778.113Z" transform="translate(-20.58 43)" fill="#2f2e41"/>
<path id="Path_33" data-name="Path 33" d="M739.922,644.228c-11.9-6.611-21.2-8.349-25.68-8.8a4.418,4.418,0,0,1-3.054-1.673,4.478,4.478,0,0,1-.931-3.4L723.2,534.307a33.219,33.219,0,0,1,19.364-25.957,32.306,32.306,0,0,1,31.4,2.461q.665.442,1.305.9A33.178,33.178,0,0,1,787.9,546.288c-7.934,32.455-10.659,85.662-11.125,96a4.466,4.466,0,0,1-2.918,4A45.084,45.084,0,0,1,758.627,649a38.124,38.124,0,0,1-18.705-4.774Z" transform="translate(-20.58 43)" fill="#d72323"/>
<path id="Path_34" data-name="Path 34" d="M770.632,568.689a4.482,4.482,0,0,1-1.859-3.4l-1.7-30.876a12.4,12.4,0,0,1,24.346-3.927l7.485,27.6a4.505,4.505,0,0,1-3.166,5.521l-21.291,5.773A4.483,4.483,0,0,1,770.632,568.689Z" transform="translate(-20.58 43)" fill="#d72323"/>
<circle id="Ellipse_2" data-name="Ellipse 2" cx="24.561" cy="24.561" r="24.561" transform="translate(705.603 489.187)" fill="#ffb8b8"/>
<path id="Path_36" data-name="Path 36" d="M706.471,543.317a4.482,4.482,0,0,1,1.293-3.653L729.628,517.8A12.4,12.4,0,0,1,748.8,533.311L733.226,557.3A4.505,4.505,0,0,1,727,558.629L708.5,546.62a4.483,4.483,0,0,1-2.026-3.3Z" transform="translate(-20.58 43)" fill="#d72323"/>
<path id="Path_37" data-name="Path 37" d="M768.124,490.179c-4.582,4.881-13.091,2.261-13.688-4.407a8.054,8.054,0,0,1,.01-1.556c.308-2.954,2.015-5.635,1.606-8.754a4.591,4.591,0,0,0-.84-2.149c-3.651-4.889-12.222,2.187-15.668-2.239-2.113-2.714.371-6.987-1.251-10.021-2.14-4-8.479-2.029-12.454-4.221-4.423-2.439-4.158-9.225-1.247-13.353,3.551-5.034,9.776-7.72,15.923-8.107s12.253,1.275,17.992,3.511c6.521,2.541,12.988,6.053,17,11.788,4.88,6.973,5.35,16.348,2.909,24.5C776.933,480.134,771.866,486.193,768.124,490.179Z" transform="translate(-20.58 43)" fill="#2f2e41"/>
<g id="Rectangle_4" data-name="Rectangle 4" transform="translate(572.42 514.523)" fill="#fff" stroke="#707070" stroke-width="1">
<rect width="60" height="59" rx="10" stroke="none"/>
<rect x="0.5" y="0.5" width="59" height="58" rx="9.5" fill="none"/>
</g>
<g id="Rectangle_5" data-name="Rectangle 5" transform="translate(572.42 514.523)" fill="#f5eded" stroke="#707070" stroke-width="1">
<rect width="60" height="59" rx="10" stroke="none"/>
<rect x="0.5" y="0.5" width="59" height="58" rx="9.5" fill="none"/>
</g>
<g data-type="innerShadowGroup">
<g transform="matrix(1, 0, 0, 1, 0, 0)" filter="url(#lu)">
<text id="lu-3" data-name="lu" transform="translate(586.03 554.51)" fill="#d72323" font-size="35" font-family="Arial-BoldMT, Arial" font-weight="700"><tspan x="0" y="0">lu</tspan></text>
</g>
<g transform="matrix(1, 0, 0, 1, 0, 0)" filter="url(#lu-2)">
<text id="lu-4" data-name="lu" transform="translate(586.03 554.51)" fill="#fff" font-size="35" font-family="Arial-BoldMT, Arial" font-weight="700"><tspan x="0" y="0">lu</tspan></text>
</g>
</g>
<path id="Path_35" data-name="Path 35" d="M661.74,519a10.516,10.516,0,0,1,.239,1.64l42.958,24.782,10.441-6.011,11.131,14.572-22.337,15.92-49.008-38.663A10.5,10.5,0,1,1,661.74,519Z" transform="translate(-20.58 43)" fill="#ffb8b8"/>
<path id="Path_23" data-name="Path 23" d="M578.764,493.89a10.134,10.134,0,0,0-.23,1.579l-41.355,23.858-10.052-5.787L516.41,527.569l16.8,11.973a7.7,7.7,0,0,0,9.24-.225l42.644-33.643a10.106,10.106,0,1,0-6.331-11.785Z" transform="translate(-20.58 43)" fill="#ffb8b8"/>
</svg>

