<svg xmlns="http://www.w3.org/2000/svg" xmlns:xlink="http://www.w3.org/1999/xlink" width="692.409" height="525.075" viewBox="0 0 692.409 525.075">
  <defs>
    <linearGradient id="linear-gradient" x1="0.5" y1="1" x2="0.5" gradientUnits="objectBoundingBox">
      <stop offset="0" stop-color="gray" stop-opacity="0.251"/>
      <stop offset="0.54" stop-color="gray" stop-opacity="0.122"/>
      <stop offset="1" stop-color="gray" stop-opacity="0.102"/>
    </linearGradient>
    <linearGradient id="linear-gradient-2" x1="0.5" x2="0.5" y2="0" xlink:href="#linear-gradient"/>
  </defs>
  <g id="Group_73" data-name="Group 73" transform="translate(-171.5 -278.388)">
    <path id="Path_735" data-name="Path 735" d="M43.44,426.65c10.955,42.694,34.149,79.6,70.805,97.487,76.21,37.18,247.977,18,376.193-4,66.338-11.387,124.606-42.785,166.96-87.031Z" transform="translate(135.542 99.141)" fill="#3e3636" opacity="0.4"/>
    <path id="Path_736" data-name="Path 736" d="M727.2,66.59H656.853a5.569,5.569,0,1,1,0-11.089h12.172a5.852,5.852,0,0,1-6.086-5.544,5.843,5.843,0,0,1,6.086-5.538H660.34a5.852,5.852,0,0,1-6.086-5.544,5.848,5.848,0,0,1,6.086-5.544h36.717a104.026,104.026,0,0,0-28.641-7.194c-100.122-11.728-135.872-3.974-148.5,4a147.35,147.35,0,0,1-51.458,20.565c-61.774,11.618-177.3,25.6-282.011-4.479C134.405,31.285,95.728,56.573,72.54,98.755H739.416c-.87-12.27-3.475-23.6-8.259-33.516A6.378,6.378,0,0,1,727.2,66.59Z" transform="translate(124.152 258.244)" fill="#3e3636" opacity="0.4"/>
    <path id="Path_737" data-name="Path 737" d="M32.658,280.23a258.013,258.013,0,0,0,2.733,74.488l617.664,20.6a263.622,263.622,0,0,0,42.913-59.644Zm244.277,53.138H264.763a5.566,5.566,0,1,1,0,11.083H194.445a5.566,5.566,0,1,1,0-11.083h12.172a5.569,5.569,0,1,1,0-11.089h-8.7a5.566,5.566,0,1,1,0-11.083h70.349a5.566,5.566,0,1,1,0,11.083h8.667a5.569,5.569,0,1,1,0,11.089Z" transform="translate(140.353 156.448)" fill="#3e3636" opacity="0.4"/>
    <path id="Path_738" data-name="Path 738" d="M724.276,149.94,49.939,164.894c-8.216,19.226-13.651,40.959-16.159,63.49H712.457a242.834,242.834,0,0,0,9.8-40.466A175.294,175.294,0,0,0,724.276,149.94Zm-553.578,49H158.526a5.569,5.569,0,1,1,0,11.089H88.183a5.569,5.569,0,1,1,0-11.089h12.172a5.566,5.566,0,1,1,0-11.083h-8.7a5.569,5.569,0,1,1,0-11.089h70.349a5.569,5.569,0,1,1,0,11.089H170.7a5.566,5.566,0,1,1,0,11.083Z" transform="translate(139.323 207.443)" fill="#3e3636" opacity="0.4"/>
    <ellipse id="Ellipse_27" data-name="Ellipse 27" cx="56.555" cy="18.778" rx="56.555" ry="18.778" transform="translate(539.506 714.186)" fill="#d72323" opacity="0.1"/>
    <ellipse id="Ellipse_28" data-name="Ellipse 28" cx="82.6" cy="6.78" rx="82.6" ry="6.78" transform="translate(620.621 760.671)" fill="#d72323" opacity="0.1"/>
    <ellipse id="Ellipse_29" data-name="Ellipse 29" cx="82.6" cy="10.279" rx="82.6" ry="10.279" transform="translate(288.972 746.892)" fill="#d72323" opacity="0.1"/>
    <ellipse id="Ellipse_71" data-name="Ellipse 71" cx="82.6" cy="10.279" rx="82.6" ry="10.279" transform="translate(184.981 700.674)" fill="#d72323" opacity="0.1"/>
    <ellipse id="Ellipse_30" data-name="Ellipse 30" cx="62.151" cy="10.279" rx="62.151" ry="10.279" transform="translate(435.361 695.434)" fill="#d72323" opacity="0.1"/>
    <path id="Path_739" data-name="Path 739" d="M531.49,249.567c-1.315-8.849-9.354-29.5-9.354-29.5h0q-.21-.913-.475-1.826c-5.7-19.6-13.6-21.3-13.6-21.3l-28.276-6.086a2.19,2.19,0,0,1,.609.566,3.926,3.926,0,0,0-.444.067,11.077,11.077,0,0,1-2.477-5.356c-.055-.292-.1-.609-.14-.907a19.889,19.889,0,0,0-1.619-29.9c-.3-.231-.609-.456-.907-.669,1.333-1.418,1.375-3.39.377-5.362-2.227-4.625-7.072-7.553-12.05-8.983a20.429,20.429,0,0,0-11.7-.25,42.258,42.258,0,0,0-6.123,2.842c-3.755,1.875-7.912,3.36-10.718,6.445a3.145,3.145,0,0,0-1.071,2.587,6.981,6.981,0,0,0,1.065,1.881,5.675,5.675,0,0,1,.055,4.711,45.647,45.647,0,0,0-1.747,4.528,4.734,4.734,0,0,0,.943,4.546,20.037,20.037,0,0,0,1.765,1.217,9.254,9.254,0,0,1,1.686,1.893q1.68,2.252,3.347,4.522a46.584,46.584,0,0,1,4.193,6.372,31.052,31.052,0,0,0,2.593,4.869,7.216,7.216,0,0,0,1.114,1.169l-.329-.128a5.07,5.07,0,0,0,3.719,1.515h.17a1.023,1.023,0,0,0,.682-.28v.609c.067,2.173.055,4.485-.1,6.658l-.262-.134a2.282,2.282,0,0,0-2.434.256l-26.03,20.887s-5.66,7.742-4.869,21.107l-4.565,20.041s-5.7,17-1.315,29.146,6.932,19.086,6.932,19.086,1.753,13.8,4.388,14.923,3.773,1.735,3.773,1.735l.523,3.3h0s.177.323.487.864c1.917,3.335,9.02,15.106,13.146,13.846a52.764,52.764,0,0,1,.669,9.671l4.084,27.418s2.848,7.455,2.672,11.363S453.211,399,453.211,399a18.106,18.106,0,0,0-1.753,12.75c1.668,7.3,3.773,40.947,3.773,40.947l3.043,8.155-.085,9.561a9.129,9.129,0,0,1-1.887,4.26c-1.972,2.142-1.826,4.619-6.579,7.547s-7.766,4.035-7.766,7.912a10.176,10.176,0,0,1-.146,1.613c-.438,2.848-1.29,4.394,7.449,5.222a23.042,23.042,0,0,0,17.114-5.721s1.509-2.739,8.618-3.846c0,0,2.434-.128,2.562-2.276.049-.742.036-2.161,0-3.725-.116-2.976-.4-6.451-.779-6.622-.475-.213-1.3-3.207-1.588-4.291h1.978s1.826-13.8,0-22.732a36.878,36.878,0,0,1-.177-15.27l-.353-23.6s-2.434-2.6-.523-7.206,0-27.327,0-27.327.706-8.155,2.721-10.066.1-11.947,0-12.47l3.591,12.044s1.576,23.943,4.918,28.276l.962,10.845s6.841,9.981,5.526,15.355,1.406,24.813,1.406,24.813v19.871s-3.073,7.979,1.217,10.845l1.826-.073c-.609.566-1.077,1.418-1.789,2.154-.822.846-1.29,4.065-1.552,6.835-.219,2.343-.292,4.358-.292,4.358a7.175,7.175,0,0,0,5.264,3.122c3.439.2,14.771,8.819,14.771,8.819s11.192,0,14.089-.609l.17-.043a3.8,3.8,0,0,0,2.185-1.783,4.564,4.564,0,0,0,.523-3.28c-.359-1.71-1.716-3.585-4.723-5.179-7.48-3.944-8.594-7.638-8.594-7.638l-4.911-7.37h.7a31.527,31.527,0,0,1,4.911-16.572l-.347-38.6s2.191-13.274-1.576-20.48c0,0-.31-7.632,2.209-9.975s-3.353-26.024-3.353-26.024-1.217-12.714-2.647-24.314h0c5.922,5.617,12.063-14.607,13.1-18.2h.152l-.067-.262c.043-.17.067-.256.067-.256h0s-1.315-4.674-.353-3.725,3.335-2.6,3.335-2.6-.353-19.348,3.773-29.1S531.49,249.567,531.49,249.567Zm-17.65,12.312.03-.055c.609,11.813-.116,37.022-.116,37.022s-.816,3.232-1.686,7.035l-.609-23.949h0l-.609-22.561Zm-75.534-8.143s2.982,37.3,0,42.682a28.179,28.179,0,0,0-2.148,7.37c-.986-2.587-3.073-8.661-2.325-11.88.968-4.163-1.929-15.1-1.929-15.355s-.262-6.086,1.826-10.541.718-6.384.718-6.384S436.2,252.324,438.306,253.736Z" transform="translate(12.465 211.602)" fill="url(#linear-gradient)"/>
    <path id="Path_740" data-name="Path 740" d="M457.313,453.438c-2.6,11.424-12.933-5.849-15.288-9.993-.3-.542-.475-.858-.475-.858l1.12-5.252,5.922-2.434a16.546,16.546,0,0,1,2.654,1.728A16,16,0,0,1,457.313,453.438Z" transform="translate(0.725 95.912)" fill="#d38884"/>
    <path id="Path_741" data-name="Path 741" d="M588.228,432.767a.8.8,0,0,1-.067.256,1.292,1.292,0,0,1-.079.274c-1.016,3.566-7.042,23.644-12.86,18.07-6.366-6.086-3.274-20.157-3.274-20.157h.043l13.389-1.369,2.654,2.727h0Z" transform="translate(-50.018 97.892)" fill="#d38884"/>
    <path id="Path_742" data-name="Path 742" d="M533.78,532.569l.341,38.342a31.447,31.447,0,0,0-4.82,16.432l-17.309.682c-4.224-2.842-1.217-10.76-1.217-10.76V557.522s-2.672-19.287-1.382-24.63-5.423-15.215-5.423-15.215l-.949-10.766c-3.274-4.3-4.826-28.069-4.826-28.069l-3.512-12c.1.517,1.923,10.535,0,12.379s-2.672,9.987-2.672,9.987,1.893,22.567,0,27.126.511,7.151.511,7.151l.347,23.425a36.631,36.631,0,0,0,.17,15.154c1.808,8.867,0,22.567,0,22.567H474.472l.085-9.561-3.007-8.094s-2.069-33.413-3.706-40.649a18.161,18.161,0,0,1,1.716-12.659s-3.439-5.508-3.268-9.385-2.654-11.271-2.654-11.271l-4-27.211a52.864,52.864,0,0,0-1.984-15.5c-2.325-7.754-5.77-17.917-5.77-17.917l3.889.347,19.622,1.747s47.709-3.207,49.845-.542a8.954,8.954,0,0,1,.9,2.781c2.142,9.622,4.972,39.766,4.972,39.766s5.77,23.511,3.293,25.835-2.173,9.9-2.173,9.9C535.941,519.362,533.78,532.569,533.78,532.569Z" transform="translate(-3.318 96.898)" fill="#444053"/>
    <path id="Path_743" data-name="Path 743" d="M497.465,694.7c-.134,2.136-2.514,2.264-2.514,2.264-6.975,1.1-8.46,3.81-8.46,3.81a22.4,22.4,0,0,1-16.792,5.684c-8.581-.828-7.748-2.355-7.3-5.185a10.73,10.73,0,0,0,.14-1.595c0-3.877,2.97-4.978,7.62-7.912s4.522-5.362,6.457-7.492,2.136-6.263,2.136-6.263c2.191-3.816,7.748.609,7.748.609.262,1.351,8.521,1.162,8.521,1.162s1.1,4.394,1.661,4.65c.371.17.651,3.615.761,6.573C497.5,692.558,497.514,693.964,497.465,694.7Z" transform="translate(-7.336 1.367)" fill="#b07473"/>
    <path id="Path_744" data-name="Path 744" d="M497.465,704.062c-.134,2.136-2.514,2.264-2.514,2.264-6.975,1.1-8.46,3.81-8.46,3.81A22.4,22.4,0,0,1,469.7,715.82c-8.581-.828-7.748-2.355-7.3-5.185,3.834.949,11.162,2.276,15.44-.049,5.946-3.226,10.212-5.477,10.212-5.477l9.4-4.729C497.5,701.92,497.514,703.326,497.465,704.062Z" transform="translate(-7.336 -7.995)" opacity="0.1"/>
    <path id="Path_745" data-name="Path 745" d="M583.548,707.782a3.713,3.713,0,0,1-2.142,1.771l-.164.043c-2.842.609-13.828.609-13.828.609s-11.107-8.587-14.467-8.782a7.065,7.065,0,0,1-5.167-3.1s.067-2,.28-4.321c.262-2.751.718-5.946,1.528-6.786,1.485-1.552,1.826-3.652,5.167-2.325,0,0,4.771-8.411,10.4-1.911l5.818,8.825s1.1,3.652,8.466,7.614c2.946,1.582,4.26,3.445,4.631,5.143A4.535,4.535,0,0,1,583.548,707.782Z" transform="translate(-40.853 -0.218)" fill="#b07473"/>
    <path id="Path_746" data-name="Path 746" d="M583.548,716.455c-.657.554-1.382,1.15-2.142,1.771l-.164.043c-2.842.609-13.828.609-13.828.609s-11.107-8.587-14.467-8.782a7.065,7.065,0,0,1-5.167-3.1s.067-2,.28-4.321c3.42,1.022,8.6,2.83,9.987,4.778,2.13,2.964,8.6,7.1,8.6,7.1s12.063-1.162,17.418-1.321A4.535,4.535,0,0,1,583.548,716.455Z" transform="translate(-40.853 -8.891)" opacity="0.1"/>
    <path id="Path_747" data-name="Path 747" d="M508.732,218.54l-15.885,16.791s-19.25-1.418-15.891-7.1c1.71-2.9,1.978-8.959,1.826-14.229-.14-5.082-.663-9.409-.663-9.409s27-13.438,24.953-.907a20.624,20.624,0,0,0-.073,7.151C504.15,217.164,508.732,218.54,508.732,218.54Z" transform="translate(-12.979 188.5)" fill="#d38884"/>
    <path id="Path_748" data-name="Path 748" d="M504.049,203.684a20.625,20.625,0,0,0-.073,7.151,19.816,19.816,0,0,1-14.132,5.9c-3.652,0-7.6-3-10.553-4.735-.14-5.088-.17-7.407-.17-7.407S506.118,191.152,504.049,203.684Z" transform="translate(-13.98 188.5)" opacity="0.1"/>
    <path id="Path_749" data-name="Path 749" d="M503.83,181.38a19.9,19.9,0,1,1-7.486-15.544A19.9,19.9,0,0,1,503.83,181.38Z" transform="translate(-8.077 202.922)" fill="#d38884"/>
    <path id="Path_750" data-name="Path 750" d="M528.074,436.929c-4.954,11.789-36.821,12.032-36.821,12.032V436.107l-1.929-.128c.834,3.682-1.169,12.659-1.169,12.659-25.184,3.554-31.325-10.8-31.325-10.8l.876-4.911,19.622,1.747s47.709-3.207,49.845-.542a8.953,8.953,0,0,1,.9,2.794Z" transform="translate(-5.256 96.683)" opacity="0.1"/>
    <path id="Path_751" data-name="Path 751" d="M491.253,367.036V354.183l-1.929-.122c.834,3.652-1.169,12.659-1.169,12.659-18.952,2.672-27.12-4.79-30-8.648a11.779,11.779,0,0,1-1.327-2.142l7.693-43.272,1.826-63.685,2.757-11.174.639-5.362v-.061h.067l1.96.84,11.728,5.07,13.322-10.06.195-.14.663-.505,1.1.882,2.739,2.2,8.782,56.716s15.215,43.668,18.063,61.293c.116.706.207,1.363.28,1.978C530.526,366.738,491.253,367.036,491.253,367.036Z" transform="translate(-5.256 177.055)" fill="#d72323"/>
    <circle id="Ellipse_32" data-name="Ellipse 32" cx="1.132" cy="1.132" r="1.132" transform="translate(478.536 415.462)" fill="#67647e"/>
    <circle id="Ellipse_33" data-name="Ellipse 33" cx="1.132" cy="1.132" r="1.132" transform="translate(479.059 425.797)" fill="#67647e"/>
    <circle id="Ellipse_34" data-name="Ellipse 34" cx="1.132" cy="1.132" r="1.132" transform="translate(480.191 442.527)" fill="#67647e"/>
    <circle id="Ellipse_35" data-name="Ellipse 35" cx="1.132" cy="1.132" r="1.132" transform="translate(482.059 460.548)" fill="#67647e"/>
    <circle id="Ellipse_36" data-name="Ellipse 36" cx="1.132" cy="1.132" r="1.132" transform="translate(483.191 477.467)" fill="#67647e"/>
    <circle id="Ellipse_37" data-name="Ellipse 37" cx="1.132" cy="1.132" r="1.132" transform="translate(484.323 495.488)" fill="#67647e"/>
    <circle id="Ellipse_38" data-name="Ellipse 38" cx="1.132" cy="1.132" r="1.132" transform="translate(483.873 513.314)" fill="#67647e"/>
    <path id="Path_752" data-name="Path 752" d="M470.5,321.92s-1.266,16.572-3.591,21.393-3.36,18.343-3.36,18.343l-5.4-.609a11.775,11.775,0,0,1-1.327-2.142l7.693-43.272,1.826-63.685,2.763-11.18.639-5.362.073-.03a2.179,2.179,0,0,1,1.923.03l.256.134q-.116.329-.219.676c-2.106,6.591-2.891,18.739-2.891,18.739s3.043,22.22,3.36,32.554S470.5,321.92,470.5,321.92Z" transform="translate(-5.252 174.086)" opacity="0.1"/>
    <path id="Path_753" data-name="Path 753" d="M451.245,436.647a3.128,3.128,0,0,1-.207.4c-2.094,3.536-7.4,5.782-9.014,6.4-.3-.542-.475-.858-.475-.858l1.12-5.252,5.922-2.434a16.543,16.543,0,0,1,2.654,1.747Z" transform="translate(0.725 95.912)" opacity="0.1"/>
    <path id="Path_754" data-name="Path 754" d="M426,298.81l-4.911,2.927-4.473,19.9s-5.6,16.877-1.3,28.933,6.8,18.958,6.8,18.958,1.722,13.694,4.309,14.814,3.7,1.722,3.7,1.722l.517,3.274s7.011-2.38,9.488-6.573-1.826-14.607-1.826-14.607-3.7-8.874-2.751-13.006-1.9-14.984-1.9-15.215-.256-6.031,1.826-10.468.694-6.329.694-6.329l-1.3-12.659Z" transform="translate(11.629 149.176)" fill="#67647e"/>
    <path id="Path_755" data-name="Path 755" d="M554,353.109s-13.006,4.905-17.138.609-3.706-24.46-3.706-24.46-3.956-37.2-6.457-43.315-1.217-50.21-1.217-50.21-1.68-5.7-3.146-7.194a1.594,1.594,0,0,0-.31-.25l.505.11,1.765.377,2.739,2.2,8.782,56.716s15.215,43.668,18.064,61.293Z" transform="translate(-30.771 176.777)" opacity="0.1"/>
    <path id="Path_756" data-name="Path 756" d="M588.7,433.277h-.146c-1.637.213-16.086,1.96-16.146-1.047a8.809,8.809,0,0,1,.055-1.041l13.389-1.369,2.654,2.727h0c.049.177.085.329.122.45Z" transform="translate(-50.493 97.9)" opacity="0.1"/>
    <path id="Path_757" data-name="Path 757" d="M574.838,266.07l9.494,4.954s7.912,20.486,9.178,29.268c0,0,5.861,23.529,1.826,33.206s-3.7,28.885-3.7,28.885-2.325,3.53-3.274,2.587.347,3.7.347,3.7-16.232,2.154-16.3-1.035,3.725-18.429,3.725-18.429,1.035-36.255-.432-41.939S574.838,266.07,574.838,266.07Z" transform="translate(-50.492 161.991)" fill="#67647e"/>
    <path id="Path_758" data-name="Path 758" d="M524.865,329.52s-5.344,13.085-7.066,13.949.347,4.3.347,4.3S527.878,334.17,524.865,329.52Z" transform="translate(-28.851 137.157)" opacity="0.1"/>
    <path id="Path_759" data-name="Path 759" d="M519.249,254.1c.061-.25-6.372,6.311-8.094,7.3S517.442,261.338,519.249,254.1Z" transform="translate(-26.424 166.68)" opacity="0.1"/>
    <path id="Path_760" data-name="Path 760" d="M489.625,327.82s-9.817,6.348-8.521,8.861S489.625,327.82,489.625,327.82Z" transform="translate(-14.71 137.822)" opacity="0.1"/>
    <path id="Path_761" data-name="Path 761" d="M524.47,480.07a52.55,52.55,0,0,0,21.356,6.695Z" transform="translate(-31.729 78.233)" opacity="0.1"/>
    <path id="Path_762" data-name="Path 762" d="M491.5,501.3s7.748,9.738,11.284,9.987S491.5,501.3,491.5,501.3Z" transform="translate(-18.825 69.923)" opacity="0.1"/>
    <path id="Path_763" data-name="Path 763" d="M503.318,564c-.347.17-4.394,8.782-8.521,9.044S503.318,564,503.318,564Z" transform="translate(-19.792 45.383)" opacity="0.1"/>
    <path id="Path_764" data-name="Path 764" d="M568.33,594.836s7.681-1.722,9.391,3.786C577.721,598.6,577.2,596.881,568.33,594.836Z" transform="translate(-48.896 33.414)" opacity="0.1"/>
    <path id="Path_765" data-name="Path 765" d="M559.84,646.328s9.306-1.9,11.284.688S559.84,646.328,559.84,646.328Z" transform="translate(-45.573 13.424)" opacity="0.1"/>
    <path id="Path_766" data-name="Path 766" d="M510.713,654c0,.085-9.47,1.9-9.129,3.1s10.1,1.035,10.45-.864a1.826,1.826,0,0,0-1.321-2.24Z" transform="translate(-22.769 10.158)" opacity="0.1"/>
    <path id="Path_767" data-name="Path 767" d="M554.75,667.068s15.562-1.9,14.607,1.375S554.75,667.068,554.75,667.068Z" transform="translate(-43.581 5.258)" opacity="0.1"/>
    <path id="Path_768" data-name="Path 768" d="M420.89,352.44c.085.256,10.249,1.637,11.624,4.911,0,0-9.987-4.656-11.564-4.656" transform="translate(8.811 128.186)" opacity="0.1"/>
    <path id="Path_769" data-name="Path 769" d="M439.319,396.16s-8.441,2.672-7.839,6.695S430.622,400.992,439.319,396.16Z" transform="translate(4.678 111.074)" opacity="0.1"/>
    <path id="Path_770" data-name="Path 770" d="M437.92,427.564s3.073-4.218,6-3.445S437.92,427.564,437.92,427.564Z" transform="translate(2.145 100.168)" opacity="0.1"/>
    <path id="Path_771" data-name="Path 771" d="M496.363,165.834a4.789,4.789,0,0,1-.986.736c-2.434,1.418-3.1,3.6-4.26,6.123-1.077,2.307-2.264,4.747-4.437,6.056-2.806,1.692-6.5,1.071-9.415,2.544a7.3,7.3,0,0,0-3.9,7.2,20.768,20.768,0,0,0,.828,3.3,23.523,23.523,0,0,1,.889,7.163,1.217,1.217,0,0,1,0,.213,19.889,19.889,0,1,1,21.3-33.333Z" transform="translate(-8.096 202.924)" opacity="0.1"/>
    <path id="Path_772" data-name="Path 772" d="M489.458,152.423c-2.185-4.589-6.938-7.5-11.825-8.916a19.861,19.861,0,0,0-11.484-.243,42.124,42.124,0,0,0-6.007,2.818c-3.688,1.862-7.742,3.335-10.517,6.4a3.205,3.205,0,0,0-1.053,2.568,7.171,7.171,0,0,0,1.041,1.862,5.652,5.652,0,0,1,.055,4.68,42.922,42.922,0,0,0-1.716,4.5,4.732,4.732,0,0,0,.925,4.51,16.872,16.872,0,0,0,1.741,1.217,9.162,9.162,0,0,1,1.649,1.875l3.286,4.492a45.559,45.559,0,0,1,4.114,6.323,30.135,30.135,0,0,0,2.544,4.826,5.507,5.507,0,0,0,4.613,2.465.894.894,0,0,0,.73-.347.962.962,0,0,0,.091-.456,23.359,23.359,0,0,0-.87-7.139,20.6,20.6,0,0,1-.828-3.3,7.334,7.334,0,0,1,3.9-7.2c2.921-1.473,6.616-.852,9.415-2.538,2.179-1.315,3.366-3.755,4.437-6.086,1.175-2.52,1.826-4.7,4.26-6.123S490.669,154.839,489.458,152.423Z" transform="translate(-1.708 210.347)" fill="#585268"/>
    <path id="Path_773" data-name="Path 773" d="M501.63,693.06s3.043,3.877,2.252,6.086S501.63,693.06,501.63,693.06Z" transform="translate(-22.79 -5.13)" opacity="0.1"/>
    <path id="Path_774" data-name="Path 774" d="M569.28,705.582s.676-5.2,3.384-5.246,2.842-.28,4.911.517,4.011,2.033,3.39,2.215-3.56-2.97-6.579-1.357a21.737,21.737,0,0,0-5.106,3.871Z" transform="translate(-49.268 -7.951)" opacity="0.1"/>
    <path id="Path_775" data-name="Path 775" d="M481.606,247.906l8.521-5.97s-12.464-7.364-13.949-6.33-2.507,10.346-2.507,10.346Z" transform="translate(-11.847 173.953)" opacity="0.1"/>
    <path id="Path_776" data-name="Path 776" d="M481.546,247.2l8.521-6.086s-12.464-7.364-13.949-6.33-2.507,10.858-2.507,10.858Z" transform="translate(-11.823 174.274)" fill="#e1e7ef"/>
    <path id="Path_777" data-name="Path 777" d="M481.546,247.2l8.521-6.086s-12.464-7.364-13.949-6.33-2.507,10.858-2.507,10.858Z" transform="translate(-11.823 174.274)" fill="#d72323"/>
    <path id="Path_778" data-name="Path 778" d="M458.785,234.693l-.256-.128a2.209,2.209,0,0,0-2.392.25L430.576,255.55s-5.557,7.687-4.784,20.948l15.075,21.356s1.722-7.23,3.786-5.855c0,0,2.927,37.034,0,42.371s-4.218,25.318-4.218,25.318l9.9,1.12s1.035-13.523,3.359-18.343,3.591-21.393,3.591-21.393,2.094-24.077,1.747-34.411-3.36-32.554-3.36-32.554S456.521,241.083,458.785,234.693Z" transform="translate(6.921 174.416)" fill="#67647e"/>
    <path id="Path_779" data-name="Path 779" d="M515.06,241.313l-10.62-3.932s13.523-14.814,15.215-6.6Z" transform="translate(-23.89 176.773)" opacity="0.1"/>
    <path id="Path_780" data-name="Path 780" d="M515.06,240.463l-10.62-3.932s13.523-14.814,15.215-6.6Z" transform="translate(-23.89 177.105)" fill="#e1e7ef"/>
    <path id="Path_781" data-name="Path 781" d="M515.06,240.463l-10.62-3.932s13.523-14.814,15.215-6.6Z" transform="translate(-23.89 177.105)" fill="#d72323"/>
    <path id="Path_782" data-name="Path 782" d="M521.32,228.115a.609.609,0,0,1,.438.1Z" transform="translate(-30.497 176.849)" opacity="0.1"/>
    <path id="Path_783" data-name="Path 783" d="M523,226.423l28.179,6.086s7.754,1.722,13.353,21.186S556.863,297,556.863,297l-2.927-2.489,1.467,56.838s-13.006,4.905-17.138.609-3.7-24.478-3.7-24.478-3.962-37.2-6.463-43.315-1.217-50.2-1.217-50.2S524.582,226.082,523,226.423Z" transform="translate(-34.12 186.276)" fill="#67647e"/>
    <path id="Path_784" data-name="Path 784" d="M565.122,285.776c-.4.365-.858,17.564.864,30.656a167.065,167.065,0,0,0,4.869,23.6L568.3,287.583S566.327,284.656,565.122,285.776Z" transform="translate(-47.496 154.378)" opacity="0.1"/>
    <path id="Path_785" data-name="Path 785" d="M559.7,261.6c.688.432,3.706,7.577,2.325,10.5S559.7,261.6,559.7,261.6Z" transform="translate(-45.518 163.74)" opacity="0.1"/>
    <path id="Path_786" data-name="Path 786" d="M499.088,154.618a15.556,15.556,0,0,0-6.2-6.488,14.734,14.734,0,0,1,4.644,5.477c1.217,2.434.858,4.869-1.509,6.2s-3.1,3.6-4.26,6.123c-1.077,2.307-2.264,4.747-4.443,6.086-2.8,1.692-6.494,1.065-9.415,2.538a7.352,7.352,0,0,0-3.9,7.206,20.7,20.7,0,0,0,.834,3.293,23.543,23.543,0,0,1,.889,7.163.961.961,0,0,1-.1.456.87.87,0,0,1-.724.347,4.193,4.193,0,0,1-2.124-.4,4.942,4.942,0,0,0,3.652,1.43.718.718,0,0,0,.816-.8,23.352,23.352,0,0,0-.882-7.163,19.992,19.992,0,0,1-.834-3.3,7.334,7.334,0,0,1,3.9-7.2c2.921-1.473,6.616-.852,9.415-2.538,2.179-1.315,3.366-3.755,4.437-6.086,1.175-2.52,1.826-4.7,4.26-6.123S500.305,157.034,499.088,154.618Z" transform="translate(-11.502 208.151)" opacity="0.1"/>
    <path id="Path_791" data-name="Path 791" d="M741.45,730.142v.45h0v-.463Z" transform="translate(-116.654 -19.639)" opacity="0.1"/>
    <path id="Path_837" data-name="Path 837" d="M888.857,308.21c-12.884-7.413-17.753-9.239-17.777-9.239l-.268-.189a10.718,10.718,0,0,1-3.244-4.1,8.563,8.563,0,0,1,0-.882.368.368,0,0,0,0,.085c.2-3.926,2.994-7.5,5.642-10.614l6.774-7.967a7.852,7.852,0,0,0,1.747-2.763,6.373,6.373,0,0,0,.182-1.7q0-.347,0-.694c-.036-1.978-.091-3.962-.164-5.94-.061-1.728-.505-3.907-2.234-4.26-.9-.183-2.094.14-2.568-.609a1.479,1.479,0,0,1-.116-1.029.349.349,0,0,0,0,.085v-.1a22.923,22.923,0,0,0,.639-4.072,5.55,5.55,0,0,0-.28-2.063c-1-2.867-4.449-4.047-7.5-4.589s-6.469-1-8.381-3.39a24.788,24.788,0,0,0-1.668-2.294,6.579,6.579,0,0,0-3.116-1.54,17.65,17.65,0,0,0-11.338.986c-1.473.657-2.952,1.546-4.571,1.448s-3.116-1.266-4.771-1.546c-2.678-.456-5.24,1.509-6.561,3.84a9.391,9.391,0,0,0-1.217,4.528v.268h0a6.622,6.622,0,0,0,1.741,4.625c1.156,1.217,2.873,2.021,3.353,3.6.195.639.146,1.333.323,1.984a1.781,1.781,0,0,0,.073.237l-.085.116a20.084,20.084,0,0,0-4.26,12.379,20.547,20.547,0,0,0,14.436,19.475v.609a8.756,8.756,0,0,1-2.8,6.816L822.6,307.005s-11-1.309-14.972,14.771a27.416,27.416,0,0,0-.682,8.155c.146,2.434-.189,6.695-3.043,12.215-4.51,8.837-3.481,29.122,5.745,31.13,8.709,1.9,12.117,1.108,12.476,1.016v.353c-.146,3.81-1.528,36.638-6.549,40.606-1.388,1.1-1.132,1.826,0,2.343,0,0,0,.213-.03.609-.152,2.434-.925,11.564-4.26,16.749-3.9,6.025-3.493,40.777-3.493,40.777l-2.66,20.486s1.637,12.653,0,14.862c-1.467,1.966-3.414,48.774-3.822,58.925h-.17a4.942,4.942,0,0,0-3.944,2.434c-2.154,3.5-9.7,9.969-9.7,9.969-1.637,2.325-7.693,4.552-10.894,5.6a6.761,6.761,0,0,0-1.217.536,6.494,6.494,0,0,0-2.751,2.9,3.11,3.11,0,0,0-.292,2.434c.816,2,17.838,3.414,22.147,1.4,3.384-1.576,16.8-3.652,22.366-4.467a4.589,4.589,0,0,0,3.98-3.98,2.623,2.623,0,0,0-.511-1.99h0c-1.065-1.321-1.607-4.93-1.826-7.3a4.937,4.937,0,0,0,1.254-.743,53.467,53.467,0,0,1,3.043-21.49c4.1-10.845,5.331-30.93,4.309-43.984,0,0,12.507-53.825,22.354-58.846h0c.152.195,4.93,6.323,5.538,25.306.609,19.281,7.583,31.934,7.583,31.934s-3.08,32.737,0,44.988l-4.023,19.323c-.3-.25-.487-.444-.487-.444s.122.536.286,1.394l-.085.414.177.036c.456,2.434,1.132,6.628.852,9.129-.158,1.406-.554,3.335-.822,5.228-.426,2.976-.542,5.861,1.022,6.494,2.568,1.035,17.65,2.434,20.206-.876a4.741,4.741,0,0,0,.742-4.96,5.019,5.019,0,0,0-.742-1.266s-4-6.543-2.873-11.156a3.4,3.4,0,0,0-.481-2.647,136.069,136.069,0,0,1,3.451-21.642c2.568-9.665,7.979-30.856,4-44.787h0q-.225-.822-.511-1.607a60.154,60.154,0,0,1-2.258-23.5,47.892,47.892,0,0,1,0-20.486c2.465-11.247,4.187-22.293,4.187-22.293s1.357-14.862.17-23.973a5.987,5.987,0,0,0-.079-.609l.645-.146s-3.487-15.465-4.717-25.306c-.292-2.325-.669-5.264-1.083-8.4a21.449,21.449,0,0,0,3.341-.834c11.071-3.816,14.558-38.342,14.558-38.342V332.482S901.778,315.641,888.857,308.21Zm-82.5,266.716c-.341-.17-.542-.286-.542-.286h0Z" transform="translate(-128.694 172.258)" fill="url(#linear-gradient-2)"/>
    <path id="Path_838" data-name="Path 838" d="M901.387,616.59c4.8,13.809-.8,36.224-3.408,46.254a139.834,139.834,0,0,0-3.4,22.019,46.372,46.372,0,0,1-17.613-.4l4.206-20.614c-3.007-12.209,0-44.836,0-44.836s-6.8-12.61-7.407-31.824c-.609-18.909-5.252-25.026-5.4-25.215h0c-9.6,5-21.812,58.645-21.812,58.645,1,13.006-.207,33.023-4.205,43.82a54.165,54.165,0,0,0-3,21.411c-1.4,1.217-3.347,1.388-5.477,1.047-5.715-.925-12.568-5.849-12.568-5.849s2.2-58.426,3.8-60.642,0-14.814,0-14.814l2.6-20.413s-.4-34.63,3.4-40.631c3.287-5.185,4.041-14.3,4.187-16.694v-.609l5.794-6.938s56.041-4.205,60.252,0c1.029,1.029,1.668,3.378,2.045,6.33,1.156,9.08-.171,23.888-.171,23.888s-1.68,11.01-4.084,22.214a48.761,48.761,0,0,0,0,20.419A61.121,61.121,0,0,0,901.387,616.59Z" transform="translate(-147.906 63.215)" fill="#65617d"/>
    <path id="Path_839" data-name="Path 839" d="M933.541,807.993c-2.5,3.3-17.211,1.905-19.719.876-1.528-.609-1.412-3.512-1-6.476.262-1.881.645-3.8.8-5.2.4-3.6-1.217-10.912-1.217-10.912s3.3,3.506,4.1,0a3.817,3.817,0,0,1,2.86-2.714,7.473,7.473,0,0,1,5.2.323c2.6,1.132,6.932,3.536,6.159,6.786-1.1,4.595,2.8,11.119,2.8,11.119a5.065,5.065,0,0,1,.73,1.254,4.8,4.8,0,0,1-.712,4.948Z" transform="translate(-183.566 -40.427)" fill="#a27772"/>
    <path id="Path_840" data-name="Path 840" d="M933.634,820.309c-2.5,3.3-17.211,1.9-19.719.876-1.528-.609-1.412-3.512-1-6.476,1.582.742,4.26,1.357,8.746.943a24.659,24.659,0,0,1,3.146-.1,73.2,73.2,0,0,0,9.555-.195A4.8,4.8,0,0,1,933.634,820.309Z" transform="translate(-183.659 -52.743)" opacity="0.1"/>
    <path id="Path_841" data-name="Path 841" d="M854.623,646.09c1,13.006-.207,33.023-4.205,43.82a54.167,54.167,0,0,0-3,21.411c-1.4,1.217-3.347,1.388-5.477,1.047,1.217-8.441,6.354-44.812,9.646-73.55,3.755-32.725,21.3-55.237,21.3-55.237l3.5,3.852C866.832,592.447,854.623,646.09,854.623,646.09Z" transform="translate(-155.985 37.72)" opacity="0.1"/>
    <path id="Path_842" data-name="Path 842" d="M911.028,325.206l-2.434,12.008-11.971,20.115-14.759-6.305s-20.084-21.015-7.455-24.016a11.174,11.174,0,0,0,4.187-1.862,8.658,8.658,0,0,0,3.268-7.242,22.2,22.2,0,0,0-2.033-8.606l25.817-8.107a41.444,41.444,0,0,0-1.826,10.456c-.2,7.036,2.434,10.5,4.558,12.172A7.754,7.754,0,0,0,911.028,325.206Z" transform="translate(-167.061 148.245)" fill="#fbbebe"/>
    <path id="Path_843" data-name="Path 843" d="M911.793,301.19a41.438,41.438,0,0,0-1.826,10.456,19.642,19.642,0,0,1-1.5,1.6,20.425,20.425,0,0,1-20.413,4.656A22.2,22.2,0,0,0,886,309.3Z" transform="translate(-173.229 148.245)" opacity="0.1"/>
    <path id="Path_844" data-name="Path 844" d="M906.988,282.633a20.321,20.321,0,1,1-5.953-14.462,20.419,20.419,0,0,1,5.953,14.462Z" transform="translate(-165.46 163.498)" fill="#fbbebe"/>
    <path id="Path_845" data-name="Path 845" d="M911.028,339.746l-2.434,12.008-11.971,20.115-14.759-6.305s-20.084-21.015-7.455-24.016a11.175,11.175,0,0,0,4.187-1.862c-2.276,6.256,7.121,19.275,7.121,19.275,1.1,1.613,3.6.609,3.6.609,6.056-.919,17.2-18.331,19.019-21.228A7.752,7.752,0,0,0,911.028,339.746Z" transform="translate(-167.061 133.705)" opacity="0.1"/>
    <path id="Path_846" data-name="Path 846" d="M912.445,526.642c-3.554.809-23.219,5.161-30.674,4.072-8.2-1.217-24.156-2-24.156-2s-10.158.548-13.286-.882v-.609l5.794-6.938s56.041-4.205,60.252,0C911.429,521.341,912.068,523.69,912.445,526.642Z" transform="translate(-156.92 63.223)" opacity="0.1"/>
    <path id="Path_847" data-name="Path 847" d="M866.617,359.684s-10.559-14.607-6.579-20.328l-17.838,7.3s-10.736-1.3-14.607,14.722a27.884,27.884,0,0,0-.663,8.131c.146,2.434-.183,6.695-2.94,12.172-4.4,8.807-3.4,29.025,5.605,31.039s12.2,1,12.2,1-1.217,36.626-6.4,40.832,13.268,3.2,13.268,3.2,15.952.8,24.162,2,31.222-4.205,31.222-4.205-3.4-15.41-4.607-25.215-4.011-30.692-4.011-30.692l20.413-27.655s3.6-16.712-9.007-24.119-17.351-9.22-17.351-9.22-12.671,20.632-19.275,21.63C870.22,360.28,867.712,361.29,866.617,359.684Z" transform="translate(-147.967 133.583)" fill="#d72323"/>
    <path id="Path_848" data-name="Path 848" d="M854.992,382.74s-.195,6.609,1,9.208,5.605,17.041,5.605,17.041H851.59s5.4-5.806,5.009-8.612S854.992,382.74,854.992,382.74Z" transform="translate(-159.762 116.327)" opacity="0.1"/>
    <path id="Path_849" data-name="Path 849" d="M885.347,446.591s-22.1-5.4-24.162-10.006-7.735-14.9-7.735-14.9l2.331-3.14,10.748,8.435s12.781,10.206,18.818,11.211S885.347,446.591,885.347,446.591Z" transform="translate(-160.49 102.315)" fill="#fbbebe"/>
    <path id="Path_850" data-name="Path 850" d="M885.347,446.591s-22.1-5.4-24.162-10.006-7.735-14.9-7.735-14.9l2.331-3.14,10.748,8.435s12.781,10.206,18.818,11.211S885.347,446.591,885.347,446.591Z" transform="translate(-160.49 102.315)" opacity="0.05"/>
    <path id="Path_851" data-name="Path 851" d="M911.581,421.794v11.99h-1.923a56.046,56.046,0,0,0-27.227,7.053l-3.605,2-.968.542-6.208-14,5.806-5.2h.3c1.418.14,7.559.651,10.164-.225,2.471-.84,5.538-3.5,12.817-1.643,3.585.919,6.652,4.936,10.127,3.682Z" transform="translate(-167.613 101.093)" fill="#fbbebe"/>
    <path id="Path_852" data-name="Path 852" d="M940.972,377.251l4,4.5v10.912s-3.4,34.423-14.2,38.227-30.1-2.2-30.1-2.2-4.984-13.207-2.654-14,20.6-5.624,20.6-5.624-.256-20.194,3.743-26.2c0,0-2.6-18.812,6.409-19.214S940.972,377.251,940.972,377.251Z" transform="translate(-177.687 123.8)" opacity="0.1"/>
    <path id="Path_853" data-name="Path 853" d="M941.974,377.251l4,4.5v10.912s-3.4,34.423-14.211,38.227-30.1-2.2-30.1-2.2-4.984-13.207-2.647-14,20.6-5.624,20.6-5.624-.262-20.194,3.743-26.2c0,0-2.6-18.812,6.4-19.214S941.974,377.251,941.974,377.251Z" transform="translate(-178.081 123.8)" fill="#d72323"/>
    <path id="Path_854" data-name="Path 854" d="M904.073,291.252a8.046,8.046,0,0,0-.456-3.9,2.97,2.97,0,0,0-3.177-1.826c-1.71.4-2.434,2.629-4.126,3.165a3.3,3.3,0,0,1-3.652-1.875,9.337,9.337,0,0,1-.694-4.358v-5.015c0-1.826-.061-3.786-1.181-5.216-1.394-1.777-4.674-2.556-6.865-2.483A5.825,5.825,0,0,0,880,271.32a5.044,5.044,0,0,1-4.12,1.467,3.548,3.548,0,0,1-2.873-2.483v-.061a20.413,20.413,0,1,1,30.345,27.1,55.035,55.035,0,0,0,.718-6.086Z" transform="translate(-168.145 163.544)" opacity="0.1"/>
    <path id="Path_855" data-name="Path 855" d="M872.479,264.232a3.579,3.579,0,0,1-2.879-2.489c-.164-.645-.122-1.333-.31-1.972-.469-1.576-2.148-2.392-3.274-3.591-2.252-2.392-2.106-6.323-.511-9.2,1.29-2.319,3.786-4.26,6.4-3.822,1.619.28,3.043,1.43,4.662,1.54s3.043-.785,4.461-1.442a16.809,16.809,0,0,1,11.089-.986,6.391,6.391,0,0,1,3.043,1.54,26.625,26.625,0,0,1,1.625,2.282c1.862,2.374,5.2,2.842,8.18,3.378s6.342,1.716,7.3,4.577c.651,1.9,0,3.956-.353,5.928a1.789,1.789,0,0,0,.079,1.217c.469.767,1.631.444,2.507.609,1.686.359,2.118,2.532,2.185,4.26q.1,2.958.158,5.922a7.542,7.542,0,0,1-.177,2.191,7.735,7.735,0,0,1-1.7,2.757l-6.609,7.942c-2.933,3.518-6.043,7.62-5.478,12.172-1.388.609-3.043-.578-3.493-2.033a9.092,9.092,0,0,1,.219-4.51,55.292,55.292,0,0,0,1.059-7.821,8.022,8.022,0,0,0-.456-3.9,2.97,2.97,0,0,0-3.177-1.826c-1.716.4-2.434,2.629-4.126,3.165a3.3,3.3,0,0,1-3.652-1.875,9.312,9.312,0,0,1-.694-4.352v-5.021c0-1.826-.061-3.786-1.181-5.216-1.394-1.777-4.674-2.556-6.865-2.483a5.824,5.824,0,0,0-3.913,1.576A5.054,5.054,0,0,1,872.479,264.232Z" transform="translate(-164.742 171.509)" fill="#7c5c5c"/>
    <path id="Path_856" data-name="Path 856" d="M885.3,381.92l6.269,25.75S896.51,407.64,885.3,381.92Z" transform="translate(-172.955 116.648)" opacity="0.1"/>
    <path id="Path_857" data-name="Path 857" d="M916.8,374.85s-8.2,13.438-5,27.339l1.528.11S910.594,395.865,916.8,374.85Z" transform="translate(-183.035 119.415)" opacity="0.1"/>
    <path id="Path_858" data-name="Path 858" d="M929,499.36s10.078-3.335,10.809,4.4C939.833,503.76,937.934,498.459,929,499.36Z" transform="translate(-190.059 70.963)" opacity="0.1"/>
    <path id="Path_859" data-name="Path 859" d="M870.11,426.81s-2,14,1.6,19.615a43.9,43.9,0,0,1-17.613,2.4L852.88,426.81Z" transform="translate(-160.266 99.078)" opacity="0.1"/>
    <path id="Path_860" data-name="Path 860" d="M878.826,444.45l-.968.542-6.208-14,5.806-5.2h.3C877.663,426.484,876.044,438.516,878.826,444.45Z" transform="translate(-167.613 99.477)" opacity="0.1"/>
    <path id="Path_861" data-name="Path 861" d="M866.388,425.83s-2,14,1.6,19.609a43.768,43.768,0,0,1-17.613,2.4L843.37,425.83Z" transform="translate(-156.544 99.462)" fill="#d72323"/>
    <path id="Path_862" data-name="Path 862" d="M822.229,799.144a4.534,4.534,0,0,1-3.889,3.968c-5.435.809-18.526,2.879-21.831,4.455-4.205,2-20.814.609-21.618-1.4a3.177,3.177,0,0,1,.286-2.434,6.415,6.415,0,0,1,2.684-2.885,7.123,7.123,0,0,1,1.217-.536c3.128-1.041,9.038-3.256,10.632-5.581,0,0,7.37-6.445,9.47-9.926a4.808,4.808,0,0,1,3.846-2.4c1.753-.079,3.706.8,4.51,4.644,0,0,9.6,5.477,12.172.676,0,0,.4,7.376,2,9.4h0A2.678,2.678,0,0,1,822.229,799.144Z" transform="translate(-129.694 -40.098)" fill="#a27772"/>
    <path id="Path_863" data-name="Path 863" d="M822.229,808.611a4.534,4.534,0,0,1-3.889,3.968c-5.435.81-18.526,2.879-21.831,4.455-4.205,2-20.814.609-21.618-1.4a3.177,3.177,0,0,1,.286-2.434,6.415,6.415,0,0,1,2.684-2.885c2.708,1.826,8.721,3.554,21.946,1.491,12.616-1.972,18.867-3.9,21.91-5.216h0a2.678,2.678,0,0,1,.511,2.021Z" transform="translate(-129.694 -49.564)" opacity="0.1"/>
    <g id="Group_32" data-name="Group 32" transform="translate(699.555 422.723)" opacity="0.1">
      <path id="Path_864" data-name="Path 864" d="M942.444,269.164v-.1a17.926,17.926,0,0,0,.609-4.546,30.015,30.015,0,0,1-.609,3.652A2.217,2.217,0,0,0,942.444,269.164Z" transform="translate(-894.854 -260.126)"/>
      <path id="Path_865" data-name="Path 865" d="M900.2,285.071a5.787,5.787,0,0,1,.493,2.288,6.9,6.9,0,0,0-.493-3.189,2.958,2.958,0,0,0-3.171-1.826c-1.716.4-2.434,2.629-4.132,3.165a3.305,3.305,0,0,1-3.652-1.875,9.261,9.261,0,0,1-.694-4.358v-5.015c0-1.826-.061-3.786-1.181-5.216-1.4-1.783-4.674-2.556-6.865-2.489a5.83,5.83,0,0,0-3.919,1.582,5.057,5.057,0,0,1-4.126,1.467,3.566,3.566,0,0,1-2.873-2.483c-.164-.645-.122-1.339-.31-1.978-.469-1.57-2.148-2.392-3.274-3.585a6.555,6.555,0,0,1-1.686-4.26A6.823,6.823,0,0,0,866,262.431c1.126,1.217,2.806,2.014,3.274,3.585.189.609.146,1.333.31,1.978a3.566,3.566,0,0,0,2.873,2.483,5.057,5.057,0,0,0,4.126-1.467,5.83,5.83,0,0,1,3.919-1.582c2.191-.067,5.477.706,6.865,2.489,1.12,1.43,1.175,3.4,1.181,5.216v5.015a9.211,9.211,0,0,0,.694,4.352,3.313,3.313,0,0,0,3.652,1.881c1.68-.536,2.434-2.763,4.132-3.165A3.074,3.074,0,0,1,900.2,285.071Z" transform="translate(-864.285 -257.3)"/>
      <path id="Path_866" data-name="Path 866" d="M941.442,293.046a7.692,7.692,0,0,1-1.7,2.751l-6.609,7.942c-2.781,3.341-5.721,7.212-5.477,11.478.2-3.913,2.927-7.474,5.477-10.578l6.609-7.942a7.692,7.692,0,0,0,1.7-2.751,7.6,7.6,0,0,0,.177-2.2A5.782,5.782,0,0,1,941.442,293.046Z" transform="translate(-889.08 -270.783)"/>
      <path id="Path_867" data-name="Path 867" d="M921.859,327.421a4.683,4.683,0,0,1-.2-1.071,5.4,5.4,0,0,0,.2,1.972c.45,1.449,2.1,2.647,3.493,2.027a8.526,8.526,0,0,1-.073-.876C923.892,330.026,922.285,328.845,921.859,327.421Z" transform="translate(-886.733 -284.326)"/>
    </g>
    <path id="Path_868" data-name="Path 868" d="M812.69,789.36s2.094,3.652,9.677.438" transform="translate(-144.536 -42.821)" opacity="0.1"/>
    <path id="Path_869" data-name="Path 869" d="M918,790.82s6.536,7.7,14.777,2.526" transform="translate(-185.754 -43.392)" opacity="0.1"/>
    <path id="Path_870" data-name="Path 870" d="M946.192,641.23s-4.619,2.885-4.766,4.534,2.386-1.217,2.386-1.217Z" transform="translate(-194.92 15.156)" opacity="0.1"/>
    <path id="Path_871" data-name="Path 871" d="M946.927,677.59a9.659,9.659,0,0,1-5.69,2.221c-3.457.152-3.165,4.656-.907,3.3A56.649,56.649,0,0,0,946.927,677.59Z" transform="translate(-193.83 0.925)" opacity="0.1"/>
    <path id="Path_872" data-name="Path 872" d="M951.117,682.34s-2.215,10.888-4.017,8.788" transform="translate(-197.143 -0.934)" opacity="0.1"/>
    <path id="Path_919" data-name="Path 919" d="M290.324,776.789s-8.4,2.294-10.024-1.309" transform="translate(63.837 -37.388)" opacity="0.1"/>
    <path id="Path_920" data-name="Path 920" d="M376.67,773.915s-9.738,2.514-11.99-1.375" transform="translate(30.811 -36.238)" opacity="0.1"/>
    <ellipse id="Ellipse_51" data-name="Ellipse 51" cx="16.39" cy="2.769" rx="16.39" ry="2.769" transform="translate(228.769 750.69)" fill="#d72323" opacity="0.1"/>
    <ellipse id="Ellipse_52" data-name="Ellipse 52" cx="24.472" cy="4.139" rx="24.472" ry="4.139" transform="translate(535.191 795.186)" fill="#d72323"/>
    <path id="Path_973" data-name="Path 973" d="M71.449,724.627a7.078,7.078,0,0,1-2.337-3.518,3.137,3.137,0,0,1,1.631-3.585c1.5-.572,3.1.463,4.309,1.509s2.6,2.246,4.193,2.027a6.384,6.384,0,0,1-1.972-5.977,2.434,2.434,0,0,1,.548-1.217c.828-.889,2.337-.505,3.335.195,3.159,2.227,4.047,6.524,4.059,10.4a19.171,19.171,0,0,0,.061-4.26c.006-1.412.4-3.043,1.607-3.786a4.869,4.869,0,0,1,2.434-.609c1.424-.049,3.007.091,3.98,1.132,1.217,1.29.895,3.463-.158,4.869a15.913,15.913,0,0,1-4.114,3.3,9.08,9.08,0,0,0-2.946,2.806,2.87,2.87,0,0,0-.219.5H76.969A24.611,24.611,0,0,1,71.449,724.627Z" transform="translate(478.093 67.929)" fill="#d72323"/>
    <ellipse id="Ellipse_53" data-name="Ellipse 53" cx="16.39" cy="2.769" rx="16.39" ry="2.769" transform="translate(802.881 734.58)" fill="#d72323" opacity="0.1"/>
    <path id="Path_974" data-name="Path 974" d="M1042.91,749.862s9.348-.286,12.172-2.294,14.375-4.4,15.075-1.181,14.053,16,3.493,16.086-24.521-1.643-27.333-3.359S1042.91,749.862,1042.91,749.862Z" transform="translate(-234.643 -25.385)" fill="#a8a8a8"/>
    <path id="Path_975" data-name="Path 975" d="M1073.833,764.6c-10.553.085-24.521-1.643-27.333-3.359-2.142-1.3-2.994-5.983-3.28-8.143h-.31s.609,7.541,3.4,9.251,16.779,3.445,27.333,3.359c3.043,0,4.1-1.108,4.041-2.714C1077.266,763.994,1076.1,764.6,1073.833,764.6Z" transform="translate(-234.643 -28.629)" opacity="0.2"/>
    <g id="Group_37" data-name="Group 37" transform="translate(-2582.615 -895.69)">
      <path id="Path_989" data-name="Path 989" d="M471.285,458.776a7.494,7.494,0,0,1,5.619-10.024l3.922-26.341,10.305,9.237-5.3,23.6a7.535,7.535,0,0,1-14.542,3.53Z" transform="translate(2517.49 1027.14)" fill="#ffb6b6"/>
      <path id="Path_990" data-name="Path 990" d="M347.533,464.48a7.494,7.494,0,0,0-2.469-11.223l3.89-26.345-12.542,5.849-1.772,24.121a7.535,7.535,0,0,0,12.892,7.6Z" transform="translate(2569.33 1025.435)" fill="#ffb6b6"/>
      <path id="Path_991" data-name="Path 991" d="M303.126,554.526h11.636l5.536-44.884H303.124Z" transform="translate(2668.866 1086.865)" fill="#ffb6b6"/>
      <path id="Path_992" data-name="Path 992" d="M439.779,725.2H462.7a14.6,14.6,0,0,1,14.6,14.6v.475H439.78Z" transform="translate(2529.245 912.396)" fill="#2f2e41"/>
      <path id="Path_993" data-name="Path 993" d="M203.126,554.526h11.636l5.536-44.884H203.124Z" transform="translate(2706.762 1086.865)" fill="#ffb6b6"/>
      <path id="Path_994" data-name="Path 994" d="M339.779,725.2H362.7a14.6,14.6,0,0,1,14.6,14.6v.475H339.78Z" transform="translate(2567.141 912.396)" fill="#2f2e41"/>
      <circle id="Ellipse_54" data-name="Ellipse 54" cx="21.021" cy="21.021" r="21.021" transform="translate(2943.63 1292.973)" fill="#ffb6b6"/>
      <path id="Path_995" data-name="Path 995" d="M347.718,446.785s.309,94.065-1.192,95.567-6.831,57.757-6.831,57.757h18.631c1.242,0,32.935-122.543,32.935-122.543s13.513,66.065,11.261,69.819-.5,52.962.751,57.056c0,0,15.655,5.01,17.156,1.256s3.726-54.651,3.726-54.651l4.347-84.461.1-22.052Z" transform="translate(2567.173 1018.757)" fill="#2f2e41"/>
      <path id="Path_996" data-name="Path 996" d="M488.225,274.084h8.364a2.706,2.706,0,0,1,2.641,2.111c1.291,5.715,4.617,21.916,4.009,34.675-.751,15.766-2.252,40.54-2.252,42.792s-7.507,36.786-7.507,36.786-5.161-8.483-10.839-6.869l1.079-30.668,1.5-12.763-2.252-22.522Z" transform="translate(2513.002 1083.35)" fill="#d72323"/>
      <path id="Path_997" data-name="Path 997" d="M386.64,251.951s-26.651,8.866-29.654,16.373,11.576,61.933,11.576,61.933-5.589,24.842-13.078,48.426c-3.408,10.733,29.115,1.544,44.13-3.711,9.3-3.227,26.513,1.728,36.2-.042,0,0,1.5-20.27,0-24.024s-5.255-1.5-3-6.757,1.5-6.006.751-8.258,1.5-5.255,1.5-8.258-.751-9.76-.751-9.76,20.27-47.3,15.766-51.8-27.433-13.184-27.433-13.184S423.213,253.248,386.64,251.951Z" transform="translate(2561.284 1091.738)" fill="#d72323"/>
      <path id="Path_998" data-name="Path 998" d="M354,274.084l-2.666,1.333a7.52,7.52,0,0,0-4.028,5.34l-10.573,56.389-2.252,53.3s12.763-3.754,16.516,0c0,0-3.754-11.261-1.5-15.015s2.252-9.009,2.252-9.009-1.5,0,2.252-3.754,4.5-5.255,3.754-6.006-1.5-7.507-1.5-8.258,7.507-51.05,7.507-51.05Z" transform="translate(2569.149 1083.35)" fill="#d72323"/>
      <path id="Path_1001" data-name="Path 1001" d="M397.773,190.474a11.549,11.549,0,0,1-.44-7.423c1.717,4.554,5.128,3.164,6.867,1.028,2.18-2.678,1.552-8.864,4.994-9.141a38.573,38.573,0,0,1,10.276,1.023l-1.686-2.887,7.36.457-2.192-3.606a25.164,25.164,0,0,1,14.9,14.1,16.139,16.139,0,0,0-8.479-23.743l2.9-3.809-19.7-1.944a5.85,5.85,0,0,1,2.293-4.952,9.857,9.857,0,0,0-7.508,1.771,29.241,29.241,0,0,0-5.65,5.533c-2.6,3.049-5.222,6.146-6.921,9.771A23.017,23.017,0,0,0,397.773,190.474Zm.238-9.25h0l.02,0Z" transform="translate(2547.065 1130.601)" fill="#2f2e41"/>
    </g>
    <g id="Group_39" data-name="Group 39" transform="translate(-3034.889 -1655.985)">
      <path id="Path_1040" data-name="Path 1040" d="M829.5,543.98a6.294,6.294,0,0,0-1.68-9.5L832,512.505l-10.728,4.471-2.328,20.179A6.328,6.328,0,0,0,829.5,543.98Z" transform="translate(2790.402 1705.469)" fill="#ffb7b7"/>
      <path id="Path_1043" data-name="Path 1043" d="M666.134,614.226H657.05l-4.321-35.038h13.407Z" transform="translate(2957.615 1770.044)" fill="#ffb7b7"/>
      <path id="Path_1044" data-name="Path 1044" d="M826.658,765.907H797.367v-.37a11.4,11.4,0,0,1,11.4-11.4h17.891Z" transform="translate(2797.185 1627.168)" fill="#2f2e41"/>
      <path id="Path_1047" data-name="Path 1047" d="M838.69,403.4l-2.753-.9s-8.732,5.6-7.9,19.153c0,0-.327,7.011-.015,11.677.358,5.352-10.373,58.536-10.373,58.536h15.56l6.669-48.162Z" transform="translate(2790.613 1741.117)" fill="#d72323"/>
      <g id="Group_38" data-name="Group 38" transform="translate(3606.779 2082.326)">
        <path id="Path_1041" data-name="Path 1041" d="M739.578,614.226h-9.084l-4.321-35.038H739.58Z" transform="translate(-672.964 -312.282)" fill="#ffb7b7"/>
        <path id="Path_1042" data-name="Path 1042" d="M903.391,765.907H874.1v-.37a11.4,11.4,0,0,1,11.4-11.4h17.891Z" transform="translate(-834.459 -455.158)" fill="#2f2e41"/>
        <path id="Path_1045" data-name="Path 1045" d="M663.681,412.093l-8.891,20.485-7.335,117.738,18.524-.741,5.059-56.126,15.607-49.99,8.972,55.731,3.7,48.9,15.327.664,6.109-136.663Z" transform="translate(-647.455 -258.135)" fill="#2f2e41"/>
        <path id="Path_1046" data-name="Path 1046" d="M880.684,390.057l-25.771.645-15.13,7.767-.83,57.3-9.436,39.564s58.959,4.058,67.109-1.87l-9.633-45.2,12.919-48.847Z" transform="translate(-820.012 -337.177)" fill="#d72323"/>
        <path id="Path_1048" data-name="Path 1048" d="M931.864,545.076a6.294,6.294,0,0,1,1.68-9.5L929.361,513.6l10.728,4.471,2.328,20.179a6.328,6.328,0,0,1-10.553,6.825Z" transform="translate(-852.367 -377.212)" fill="#ffb7b7"/>
        <path id="Path_1049" data-name="Path 1049" d="M924.514,404.494l2.753-.9s8.732,5.6,7.9,19.153c0,0,.327,7.011.015,11.677-.359,5.352,4.446,58.536,4.446,58.536h-15.56L917.4,444.8Z" transform="translate(-848.491 -341.565)" fill="#d72323"/>
        <path id="Path_1050" data-name="Path 1050" d="M897.443,345.926a17.864,17.864,0,1,1-17.864-17.865h0a17.82,17.82,0,0,1,17.865,17.776Q897.444,345.881,897.443,345.926Z" transform="translate(-830.445 -317.087)" fill="#ffb7b7"/>
        <path id="Path_1051" data-name="Path 1051" d="M861.435,316.669c2.093-4.5,6.143-3.61,9.684-2.085,4.485-.995,8.751-3.973,13.583-2.212,4.76,6.924,20.743,4.887,17.343,16.158,0,2.7,5.082,1.129,4.194,5.552,2.695,8.513-9.727,24.635-16.857,21.24,1.764-3.232,5.792-10.573-.318-11.3-13.144,12.23-1.356-23.289-17.871-12.959C865.725,336.067,858.239,321.675,861.435,316.669Z" transform="translate(-830.107 -311.826)" fill="#2f2e41"/>
      </g>
    </g>
    <g id="Group_40" data-name="Group 40" transform="translate(-3609.818 -924.651)">
      <path id="Path_1059" data-name="Path 1059" d="M163.435,481.628h8.353l3.974-32.219H163.434Z" transform="translate(3689.53 1146.342)" fill="#a0616a"/>
      <path id="Path_1060" data-name="Path 1060" d="M308.406,688.122h16.451A10.484,10.484,0,0,1,335.34,698.6v.342H308.406Z" transform="translate(3542.43 937.121)" fill="#2f2e41"/>
      <path id="Path_1061" data-name="Path 1061" d="M209.435,481.628h8.353l3.973-32.219H209.434Z" transform="translate(3674.871 1146.342)" fill="#a0616a"/>
      <path id="Path_1062" data-name="Path 1062" d="M354.406,688.122h16.451A10.484,10.484,0,0,1,381.34,698.6v.342H354.406Z" transform="translate(3527.771 937.121)" fill="#2f2e41"/>
      <path id="Path_1063" data-name="Path 1063" d="M268.742,489.331a6.851,6.851,0,0,0-1.283-10.427l5.8-23.645-11.918,4.247-3.684,21.8a6.888,6.888,0,0,0,11.082,8.023Z" transform="translate(3558.878 1011.327)" fill="#9e616a"/>
      <path id="Path_1064" data-name="Path 1064" d="M402.36,486.331a6.851,6.851,0,0,1,1.283-10.427l-5.8-23.645,11.918,4.247,3.684,21.8a6.888,6.888,0,0,1-11.082,8.023Z" transform="translate(3513.93 1012.283)" fill="#9e616a"/>
      <path id="Path_1065" data-name="Path 1065" d="M142.367,280.913l11.578,135.629L170.885,415l6.78-104.823L183.7,351.68l1.209,65.93,15.33-1.022,8.513-70.927-2.088-68.69-58.2-5.893Z" transform="translate(3696.244 1203.171)" fill="#2f2e41"/>
      <circle id="Ellipse_70" data-name="Ellipse 70" cx="17.569" cy="17.569" r="17.569" transform="translate(3852.891 1325.527)" fill="#a0616a"/>
      <path id="Path_1066" data-name="Path 1066" d="M319.254,246.012s8.2,2.2,12.444,3.075,3.807-1.61,3.807-1.61,5.563.732,5.271.146,2.342-3.66-.732-7.174-2.2-6.149-2.2-6.149h-2.635l-.732-1.025h-4.1s-4.532-3.974-12.585-2.8-17.575,4.267-18.453,9.1c-.119.655-.276,1.383-.458,2.152-2.2,9.3,2.477,17.993,7.329,26.222,1.193,2.022,6.961,6.432,6.813,3.407s-5.193-9.821-1.679-10.26S320.865,251.722,319.254,246.012Z" transform="translate(3545.642 1083.029)" fill="#2f2e41"/>
      <path id="Path_1067" data-name="Path 1067" d="M307.485,308.6h30.94L360.3,424.141s-19.073,1.631-29.974,5.719-29.024-9.338-29.024-9.338Z" transform="translate(3544.692 1058.061)" fill="#d72323"/>
      <path id="Path_1068" data-name="Path 1068" d="M302.435,321.642V308.594l-3.5-.021-25.6,16.274,5.554,89.161s6.573,29.745,16.544,29.437S313.093,337.095,302.435,321.642Z" transform="translate(3553.605 1058.071)" fill="#2f2e41"/>
      <path id="Path_1069" data-name="Path 1069" d="M276.259,334.921l-8.222-2.463s-6.086,1.782-6.086,7.914-5.244,93.253-5.244,93.253l16.659,1.472,3.574-44.306Z" transform="translate(3558.904 1050.46)" fill="#2f2e41"/>
      <path id="Path_1070" data-name="Path 1070" d="M351.6,316.771l-1.639-8.5,4.7-.7,17.033,6.813s15.33,112.079,8.517,115.486-11.414.767-11.414.767S346.4,347.976,350.362,336.8Z" transform="translate(3529.209 1058.39)" fill="#2f2e41"/>
      <path id="Path_1071" data-name="Path 1071" d="M364.4,318.992l2.907-1.265s8.532-4.228,13.373,4.31S402.559,425.96,402.559,425.96L388.543,428.6l-10.478-34.328Z" transform="translate(3524.584 1055.488)" fill="#2f2e41"/>
    </g>
  </g>
</svg>