<svg xmlns="http://www.w3.org/2000/svg" width="319.061" height="185.318" viewBox="0 0 319.061 185.318">
  <path id="Path_1242" data-name="Path 1242" d="M222.941,79.064c-20.075-.583-39.2-5.977-57.455-11.882S129.14,54.743,109.543,51.614c-12.6-2.011-27.016-2.3-37.173,3.33C62.6,60.356,59.441,69.7,57.743,78.372c-1.277,6.524-2.028,13.392,1.471,19.5,2.431,4.241,6.745,7.8,9.728,11.865,10.384,14.134,3.045,31.56-8.207,45.358-5.277,6.473-11.4,12.65-15.47,19.54s-5.952,14.792-2.392,21.815c3.532,6.966,11.947,12.2,21.064,15.879,18.515,7.476,40.335,9.616,61.623,10.826,47.083,2.686,94.421,1.521,141.655.359,17.476-.429,35.013-.866,52.22-3.115,9.546-1.249,19.4-3.232,26.33-8.019,8.8-6.078,10.98-16.367,5.084-23.988-9.888-12.781-37.232-15.966-44.145-29.672-3.8-7.549.1-15.966,5.633-22.969,11.86-15.019,31.741-28.2,32.789-45.377.72-11.792-8.837-23.6-23.616-29.181-15.49-5.849-36.974-5.112-48.4,4.569C261.347,75.742,240.669,79.577,222.941,79.064Z" transform="matrix(-0.999, 0.035, -0.035, -0.999, 361.782, 223.224)" fill="#d72323" opacity="0.1"/>
</svg>