<svg xmlns="http://www.w3.org/2000/svg" xmlns:xlink="http://www.w3.org/1999/xlink" width="888.985" height="466.473" viewBox="0 0 888.985 466.473">
  <defs>
    <linearGradient id="linear-gradient" x1="0.5" y1="1" x2="0.5" gradientUnits="objectBoundingBox">
      <stop offset="0" stop-color="gray" stop-opacity="0.251"/>
      <stop offset="0.54" stop-color="gray" stop-opacity="0.122"/>
      <stop offset="1" stop-color="gray" stop-opacity="0.102"/>
    </linearGradient>
    <linearGradient id="linear-gradient-2" x1="0.5" y1="1" x2="0.5" y2="-0.001" xlink:href="#linear-gradient"/>
  </defs>
  <g id="Group_49" data-name="Group 49" transform="translate(-126 -289)">
    <g id="Group_41" data-name="Group 41" transform="translate(470.846 321.445)" opacity="0.1">
      <ellipse id="Ellipse_72" data-name="Ellipse 72" cx="9.231" cy="12.086" rx="9.231" ry="12.086" transform="translate(34.79 249.483)" fill="#3f3d56"/>
      <path id="Path_1072" data-name="Path 1072" d="M536.571,456.465a14.6,14.6,0,0,0,1.931-7.389c0-6.676-4.137-12.086-9.239-12.086S520,442.416,520,449.092a14.6,14.6,0,0,0,1.93,7.389,15.1,15.1,0,0,0,0,14.77,15.1,15.1,0,0,0,0,14.77,14.552,14.552,0,0,0-1.93,7.389c0,6.667,4.137,12.086,9.23,12.086s9.239-5.418,9.239-12.086a14.552,14.552,0,0,0-1.93-7.389,15.1,15.1,0,0,0,0-14.77,15.1,15.1,0,0,0,0-14.77Z" transform="translate(-485.243 -246.605)" fill="#3f3d56"/>
      <ellipse id="Ellipse_73" data-name="Ellipse 73" cx="9.231" cy="12.086" rx="9.231" ry="12.086" transform="translate(34.79 175.63)" fill="#3f3d56"/>
      <ellipse id="Ellipse_74" data-name="Ellipse 74" cx="9.231" cy="12.086" rx="9.231" ry="12.086" transform="translate(34.79 160.86)" fill="#3f3d56"/>
      <path id="Path_1073" data-name="Path 1073" d="M486.616,274.127a43.049,43.049,0,0,1-3.439-5.061l24.252-3.983-26.232.195a44.3,44.3,0,0,1-.811-35.04L515.581,248.5l-32.445-23.863a44.23,44.23,0,1,1,73,49.478,44.236,44.236,0,0,1,5.045,8.063l-31.5,16.4,33.572-11.266a44.23,44.23,0,0,1-7.13,41.529,44.222,44.222,0,1,1-69.513,0,44.222,44.222,0,0,1,0-54.686Z" transform="translate(-477.149 -202.271)" fill="#d72323"/>
      <path id="Path_1074" data-name="Path 1074" d="M565.594,324.418a44.019,44.019,0,0,1-9.466,27.343,44.222,44.222,0,1,1-69.513,0C480.686,344.234,565.594,319.454,565.594,324.418Z" transform="translate(-477.149 -225.219)" opacity="0.1"/>
    </g>
    <g id="Group_42" data-name="Group 42" transform="translate(589.732 361.864)" opacity="0.1">
      <ellipse id="Ellipse_75" data-name="Ellipse 75" cx="6.903" cy="9.028" rx="6.903" ry="9.028" transform="translate(25.996 186.279)" fill="#3f3d56"/>
      <path id="Path_1075" data-name="Path 1075" d="M668.121,441.871a10.893,10.893,0,0,0,1.436-5.516c0-4.988-3.09-9.036-6.894-9.036s-6.9,4.056-6.9,9.036a10.814,10.814,0,0,0,1.444,5.516,11.275,11.275,0,0,0,0,11.039,11.275,11.275,0,0,0,0,11.039,10.813,10.813,0,0,0-1.444,5.516c0,4.988,3.09,9.036,6.9,9.036s6.894-4.056,6.894-9.036a10.893,10.893,0,0,0-1.436-5.516,11.356,11.356,0,0,0,0-11.039A11.356,11.356,0,0,0,668.121,441.871Z" transform="translate(-629.772 -285.198)" fill="#3f3d56"/>
      <ellipse id="Ellipse_76" data-name="Ellipse 76" cx="6.903" cy="9.028" rx="6.903" ry="9.028" transform="translate(25.996 131.09)" fill="#3f3d56"/>
      <ellipse id="Ellipse_77" data-name="Ellipse 77" cx="6.903" cy="9.028" rx="6.903" ry="9.028" transform="translate(25.996 120.051)" fill="#3f3d56"/>
      <path id="Path_1076" data-name="Path 1076" d="M630.793,305.642a31.646,31.646,0,0,1-2.571-3.78l18.129-2.977-19.6.146a33.126,33.126,0,0,1-.633-26.191l26.3,13.651-24.26-17.845a33.053,33.053,0,1,1,54.58,36.987,33.426,33.426,0,0,1,3.772,6.027l-23.522,12.224,25.088-8.419a33.061,33.061,0,0,1-5.329,31.033,33.045,33.045,0,1,1-51.912,0,33.045,33.045,0,0,1,0-40.864Z" transform="translate(-623.72 -252.103)" fill="#d72323"/>
      <path id="Path_1077" data-name="Path 1077" d="M689.814,343.187a32.907,32.907,0,0,1-7.073,20.432,33.045,33.045,0,1,1-51.911,0C626.384,358,689.814,339.48,689.814,343.187Z" transform="translate(-623.724 -269.215)" opacity="0.1"/>
    </g>
    <g id="Group_43" data-name="Group 43" transform="translate(923.768 289)" opacity="0.1">
      <ellipse id="Ellipse_78" data-name="Ellipse 78" cx="9.231" cy="12.086" rx="9.231" ry="12.086" transform="translate(35.412 249.483)" fill="#3f3d56"/>
      <path id="Path_1078" data-name="Path 1078" d="M1081.12,416.465a14.6,14.6,0,0,1-1.93-7.389c0-6.675,4.136-12.086,9.238-12.086s9.231,5.41,9.231,12.086a14.6,14.6,0,0,1-1.931,7.389,15.1,15.1,0,0,1,0,14.77,15.1,15.1,0,0,1,0,14.77,14.55,14.55,0,0,1,1.931,7.389c0,6.667-4.137,12.086-9.231,12.086s-9.239-5.418-9.239-12.086a14.551,14.551,0,0,1,1.93-7.389,15.1,15.1,0,0,1,0-14.77A15.1,15.1,0,0,1,1081.12,416.465Z" transform="translate(-1043.786 -206.605)" fill="#3f3d56"/>
      <ellipse id="Ellipse_79" data-name="Ellipse 79" cx="9.231" cy="12.086" rx="9.231" ry="12.086" transform="translate(35.412 175.63)" fill="#3f3d56"/>
      <ellipse id="Ellipse_80" data-name="Ellipse 80" cx="9.231" cy="12.086" rx="9.231" ry="12.086" transform="translate(35.412 160.86)" fill="#3f3d56"/>
      <path id="Path_1079" data-name="Path 1079" d="M1114.738,234.127a43.063,43.063,0,0,0,3.439-5.061l-24.253-3.983,26.232.195a44.3,44.3,0,0,0,.811-35.04L1085.773,208.5l32.445-23.863a44.23,44.23,0,1,0-73,49.478,44.244,44.244,0,0,0-5.045,8.063l31.5,16.4L1038.1,247.308a44.23,44.23,0,0,0,7.13,41.529,44.222,44.222,0,1,0,69.513,0,44.222,44.222,0,0,0,0-54.686Z" transform="translate(-1035.541 -162.271)" fill="#d72323"/>
      <path id="Path_1080" data-name="Path 1080" d="M1035.81,284.418a44.02,44.02,0,0,0,9.466,27.343,44.222,44.222,0,1,0,69.513,0C1120.718,304.234,1035.81,279.454,1035.81,284.418Z" transform="translate(-1035.592 -185.22)" opacity="0.1"/>
    </g>
    <g id="Group_44" data-name="Group 44" transform="translate(846.075 356.997)" opacity="0.1">
      <ellipse id="Ellipse_81" data-name="Ellipse 81" cx="6.903" cy="9.028" rx="6.903" ry="9.028" transform="translate(26.324 186.279)" fill="#3f3d56"/>
      <path id="Path_1081" data-name="Path 1081" d="M973.666,435.871a10.893,10.893,0,0,1-1.436-5.516c0-4.988,3.09-9.036,6.894-9.036s6.9,4.056,6.9,9.036a10.812,10.812,0,0,1-1.444,5.516,11.275,11.275,0,0,1,0,11.039,11.275,11.275,0,0,1,0,11.039,10.814,10.814,0,0,1,1.444,5.516c0,4.988-3.09,9.036-6.9,9.036s-6.894-4.056-6.894-9.036a10.892,10.892,0,0,1,1.436-5.516,11.355,11.355,0,0,1,0-11.039,11.355,11.355,0,0,1,0-11.039Z" transform="translate(-945.89 -279.198)" fill="#3f3d56"/>
      <ellipse id="Ellipse_82" data-name="Ellipse 82" cx="6.903" cy="9.028" rx="6.903" ry="9.028" transform="translate(26.324 131.09)" fill="#3f3d56"/>
      <ellipse id="Ellipse_83" data-name="Ellipse 83" cx="6.903" cy="9.028" rx="6.903" ry="9.028" transform="translate(26.324 120.051)" fill="#3f3d56"/>
      <path id="Path_1082" data-name="Path 1082" d="M998.809,299.642a31.639,31.639,0,0,0,2.571-3.78l-18.129-2.977,19.6.146a33.125,33.125,0,0,0,.633-26.191l-26.3,13.651,24.261-17.845a33.053,33.053,0,1,0-54.58,36.987,33.419,33.419,0,0,0-3.772,6.027l23.522,12.224-25.039-8.411a33.061,33.061,0,0,0,5.329,31.033,33.045,33.045,0,1,0,51.911,0,33.045,33.045,0,0,0,0-40.864Z" transform="translate(-939.756 -246.103)" fill="#d72323"/>
      <path id="Path_1083" data-name="Path 1083" d="M939.8,337.187a32.907,32.907,0,0,0,7.073,20.432,33.045,33.045,0,1,0,51.912,0C1003.226,352,939.8,333.48,939.8,337.187Z" transform="translate(-939.761 -263.215)" opacity="0.1"/>
    </g>
    <g id="Group_45" data-name="Group 45" transform="translate(131.929 289.136)" opacity="0.1">
      <ellipse id="Ellipse_84" data-name="Ellipse 84" cx="9.231" cy="12.086" rx="9.231" ry="12.086" transform="translate(34.798 249.347)" fill="#3f3d56"/>
      <path id="Path_1084" data-name="Path 1084" d="M118.74,416.465a14.6,14.6,0,0,0,1.93-7.389c0-6.675-4.137-12.086-9.231-12.086s-9.231,5.41-9.231,12.086a14.6,14.6,0,0,0,1.922,7.389,15.143,15.143,0,0,0,0,14.77,15.144,15.144,0,0,0,0,14.771,14.543,14.543,0,0,0-1.922,7.389c0,6.667,4.129,12.086,9.231,12.086s9.255-5.4,9.255-12.069a14.552,14.552,0,0,0-1.93-7.389,15.1,15.1,0,0,0,0-14.77,15.1,15.1,0,0,0,0-14.77Z" transform="translate(-67.412 -206.741)" fill="#3f3d56"/>
      <ellipse id="Ellipse_85" data-name="Ellipse 85" cx="9.231" cy="12.086" rx="9.231" ry="12.086" transform="translate(34.798 175.495)" fill="#3f3d56"/>
      <ellipse id="Ellipse_86" data-name="Ellipse 86" cx="9.231" cy="12.086" rx="9.231" ry="12.086" transform="translate(34.798 160.724)" fill="#3f3d56"/>
      <path id="Path_1085" data-name="Path 1085" d="M68.792,234.159a44.063,44.063,0,0,1-3.439-5.061l24.261-3.983-26.256.235a44.3,44.3,0,0,1-.811-35.04l35.2,18.258L65.3,184.7a44.222,44.222,0,1,1,73,49.478,44.237,44.237,0,0,1,5.045,8.063l-31.5,16.36,33.58-11.266a44.279,44.279,0,0,1-7.138,41.529,44.222,44.222,0,1,1-69.513,0,44.222,44.222,0,0,1,0-54.686Z" transform="translate(-59.309 -162.439)" fill="#d72323"/>
      <path id="Path_1086" data-name="Path 1086" d="M147.754,284.418a44.019,44.019,0,0,1-9.466,27.343,44.222,44.222,0,1,1-69.513,0C62.846,304.234,147.754,279.454,147.754,284.418Z" transform="translate(-59.309 -185.355)" opacity="0.1"/>
    </g>
    <g id="Group_46" data-name="Group 46" transform="translate(232.159 356.997)" opacity="0.1">
      <ellipse id="Ellipse_87" data-name="Ellipse 87" cx="6.903" cy="9.028" rx="6.903" ry="9.028" transform="translate(25.996 186.279)" fill="#3f3d56"/>
      <path id="Path_1087" data-name="Path 1087" d="M227.291,435.871a10.893,10.893,0,0,0,1.436-5.516c0-4.988-3.082-9.036-6.894-9.036s-6.9,4.056-6.9,9.036a10.893,10.893,0,0,0,1.444,5.516,11.275,11.275,0,0,0,0,11.039,11.275,11.275,0,0,0,0,11.039,10.894,10.894,0,0,0-1.444,5.516c0,4.988,3.09,9.036,6.9,9.036s6.895-4.056,6.895-9.036a10.893,10.893,0,0,0-1.436-5.516,11.355,11.355,0,0,0,0-11.039,11.356,11.356,0,0,0,0-11.039Z" transform="translate(-188.934 -279.198)" fill="#3f3d56"/>
      <ellipse id="Ellipse_88" data-name="Ellipse 88" cx="6.903" cy="9.028" rx="6.903" ry="9.028" transform="translate(25.996 131.091)" fill="#3f3d56"/>
      <ellipse id="Ellipse_89" data-name="Ellipse 89" cx="6.903" cy="9.028" rx="6.903" ry="9.028" transform="translate(25.996 120.051)" fill="#3f3d56"/>
      <path id="Path_1088" data-name="Path 1088" d="M189.953,299.642a32.611,32.611,0,0,1-2.571-3.78l18.128-2.977-19.6.146a33.126,33.126,0,0,1-.633-26.191l26.3,13.651-24.261-17.845a33.053,33.053,0,1,1,54.58,36.987,32.544,32.544,0,0,1,3.772,6.027l-23.522,12.224,25.088-8.419a33.061,33.061,0,0,1-5.329,31.033,33.045,33.045,0,1,1-51.912,0,33.045,33.045,0,0,1,0-40.864Z" transform="translate(-182.88 -246.103)" fill="#d72323"/>
      <path id="Path_1089" data-name="Path 1089" d="M248.974,337.187a32.907,32.907,0,0,1-7.073,20.432,33.045,33.045,0,1,1-51.912,0C185.528,352,248.974,333.48,248.974,337.187Z" transform="translate(-182.884 -263.215)" opacity="0.1"/>
    </g>
    <ellipse id="Ellipse_90" data-name="Ellipse 90" cx="444.493" cy="7.187" rx="444.493" ry="7.187" transform="translate(126 682.091)" fill="#d72323" opacity="0.1"/>
    <ellipse id="Ellipse_91" data-name="Ellipse 91" cx="444.493" cy="7.187" rx="444.493" ry="7.187" transform="translate(126 741.1)" fill="#d72323" opacity="0.1"/>
    <ellipse id="Ellipse_92" data-name="Ellipse 92" cx="444.493" cy="7.187" rx="444.493" ry="7.187" transform="translate(126 558.939)" fill="#d72323" opacity="0.1"/>
    <ellipse id="Ellipse_93" data-name="Ellipse 93" cx="444.493" cy="7.187" rx="444.493" ry="7.187" transform="translate(126 620.511)" fill="#d72323" opacity="0.1"/>
    <path id="Path_1090" data-name="Path 1090" d="M850.434,268.4a14.843,14.843,0,0,0-8.6.941,12.694,12.694,0,0,1-10.334,0,14.5,14.5,0,0,0-12.167.235,7.5,7.5,0,0,1-3.5.876c-4.932,0-9.028-4.964-9.879-11.51a9.637,9.637,0,0,0,2.433-2.652c2.888-4.656,7.357-7.649,12.386-7.649s9.441,2.952,12.329,7.56a9.474,9.474,0,0,0,8.184,4.494h.13C845.388,260.653,848.787,263.8,850.434,268.4Z" transform="translate(-68.41 110.415)" fill="#d72323" opacity="0.1"/>
    <path id="Path_1091" data-name="Path 1091" d="M865.444,243.572l-7.965,5.045,4.867-8.793a7.868,7.868,0,0,0-4.818-1.711h-.13a9.206,9.206,0,0,1-1.622-.122l-2.742,1.711,1.16-2.109a9.563,9.563,0,0,1-4.729-3.585l-4.867,3.066,3.05-5.548a14.134,14.134,0,0,0-10.82-5.467c-5.029,0-9.5,2.985-12.394,7.641a9.255,9.255,0,0,1-8.184,4.412h-.268c-5.548,0-10.042,6.286-10.042,14.04s4.494,14.049,10.042,14.049a7.616,7.616,0,0,0,3.5-.876,14.487,14.487,0,0,1,12.167-.243,12.613,12.613,0,0,0,10.334,0,14.535,14.535,0,0,1,12.053.235,7.543,7.543,0,0,0,3.455.86c5.548,0,10.042-6.294,10.042-14.049A17.789,17.789,0,0,0,865.444,243.572Z" transform="translate(-68.406 114.68)" fill="#d72323" opacity="0.1"/>
    <path id="Path_1092" data-name="Path 1092" d="M436.015,264.37a10.415,10.415,0,0,0-6.027.657,8.858,8.858,0,0,1-7.227,0,10.123,10.123,0,0,0-8.509.17,5.37,5.37,0,0,1-2.433.608c-3.447,0-6.319-3.472-6.919-8.054a6.749,6.749,0,0,0,1.728-1.857c2.02-3.244,5.151-5.353,8.671-5.353s6.611,2.068,8.63,5.288a6.643,6.643,0,0,0,5.735,3.147h.089C432.478,258.959,434.855,261.166,436.015,264.37Z" transform="translate(7.343 110.056)" fill="#d72323" opacity="0.1"/>
    <path id="Path_1093" data-name="Path 1093" d="M446.515,247l-5.572,3.536,3.382-6.156a5.475,5.475,0,0,0-3.366-1.2h-.1a6.078,6.078,0,0,1-1.152-.089l-1.89,1.2.811-1.476a6.733,6.733,0,0,1-3.309-2.506l-3.382,2.141,2.141-3.877a9.9,9.9,0,0,0-7.576-3.837c-3.52,0-6.651,2.093-8.671,5.353a6.489,6.489,0,0,1-5.735,3.09h-.187c-3.885,0-7.032,4.4-7.032,9.831s3.147,9.831,7.032,9.831a5.273,5.273,0,0,0,2.433-.616,10.139,10.139,0,0,1,8.5-.162,8.712,8.712,0,0,0,7.235.049,10.171,10.171,0,0,1,8.436.162,5.256,5.256,0,0,0,2.433.6c3.877,0,7.024-4.4,7.024-9.831A12.434,12.434,0,0,0,446.515,247Z" transform="translate(7.347 113.041)" fill="#d72323" opacity="0.1"/>
    <path id="Path_1094" data-name="Path 1094" d="M321.59,342.78a10.4,10.4,0,0,1,6.019.657,8.874,8.874,0,0,0,7.235,0,10.155,10.155,0,0,1,8.509.162,5.247,5.247,0,0,0,2.433.616c3.447,0,6.319-3.48,6.911-8.062a6.611,6.611,0,0,1-1.72-1.857c-2.028-3.244-5.159-5.345-8.671-5.345s-6.611,2.06-8.638,5.289a6.643,6.643,0,0,1-5.727,3.147h-.089C325.118,337.4,322.734,339.6,321.59,342.78Z" transform="translate(23.079 95.246)" fill="#d72323" opacity="0.1"/>
    <path id="Path_1095" data-name="Path 1095" d="M308.3,325.446l5.581,3.536-3.391-6.148a5.507,5.507,0,0,1,3.374-1.209h.089a6.908,6.908,0,0,0,1.16-.081l1.89,1.192-.811-1.468a6.724,6.724,0,0,0,3.3-2.506l3.382,2.141-2.109-3.885a9.9,9.9,0,0,1,7.576-3.828c3.512,0,6.651,2.093,8.671,5.353a6.489,6.489,0,0,0,5.727,3.09h.195c3.877,0,7.024,4.4,7.024,9.831s-3.147,9.831-7.024,9.831a5.265,5.265,0,0,1-2.433-.608,10.123,10.123,0,0,0-8.509-.17,8.809,8.809,0,0,1-3.634.811,8.923,8.923,0,0,1-3.6-.762,10.155,10.155,0,0,0-8.428.162,5.256,5.256,0,0,1-2.433.6c-3.885,0-7.032-4.4-7.032-9.831a12.523,12.523,0,0,1,1.436-6.051Z" transform="translate(25.862 98.223)" fill="#d72323" opacity="0.1"/>
    <circle id="Ellipse_94" data-name="Ellipse 94" cx="81.079" cy="81.079" r="81.079" transform="translate(677.374 401.404)" fill="#3f3d56"/>
    <path id="Path_1124" data-name="Path 1124" d="M812.832,300.86A81.112,81.112,0,1,0,893.9,381.945,81.112,81.112,0,0,0,812.832,300.86Zm0,151.371a70.3,70.3,0,1,1,70.3-70.3A70.3,70.3,0,0,1,812.832,452.231Z" transform="translate(-54.379 100.552)" opacity="0.1"/>
    <circle id="Ellipse_95" data-name="Ellipse 95" cx="81.079" cy="81.079" r="81.079" transform="translate(491.1 524.556)" fill="#3f3d56"/>
    <path id="Path_1125" data-name="Path 1125" d="M637.267,522.4,612.99,547.1a.438.438,0,0,0,0,.633l17.033,18.112a2.931,2.931,0,1,1-4.145,4.145l-16.944-18.047a.462.462,0,0,0-.649,0l-4.129,4.169a18.144,18.144,0,0,1-12.978,5.459,18.542,18.542,0,0,1-13.2-5.613l-3.966-4.056a.462.462,0,0,0-.649,0l-16.9,18.007a2.931,2.931,0,1,1-4.145-4.145l16.969-18.072a.487.487,0,0,0,0-.633L545,522.359a.446.446,0,0,0-.762.316V572.1a7.235,7.235,0,0,0,7.211,7.211h79.384a7.235,7.235,0,0,0,7.211-7.211V522.716a.446.446,0,0,0-.779-.316Z" transform="translate(-18.975 58.739)" fill="#d72323"/>
    <path id="Path_1126" data-name="Path 1126" d="M591.8,553.892a12.28,12.28,0,0,0,8.857-3.65l35.357-35.989a7.056,7.056,0,0,0-4.461-1.622H552.111a7.008,7.008,0,0,0-4.461,1.622l35.365,35.989A12.232,12.232,0,0,0,591.8,553.892Z" transform="translate(-19.619 60.552)" fill="#d72323"/>
    <path id="Path_1127" data-name="Path 1127" d="M581.922,452.69a81.112,81.112,0,1,0,81.071,81.085A81.112,81.112,0,0,0,581.922,452.69Zm0,151.371a70.3,70.3,0,1,1,70.3-70.3,70.3,70.3,0,0,1-70.3,70.3Z" transform="translate(-10.765 71.874)" opacity="0.1"/>
    <path id="Path_1128" data-name="Path 1128" d="M357.323,430.16,325,504.734l3.017,3.017,29.314-12.929,29.314,12.929,3.017-3.017Z" transform="translate(403.972 5.391)" fill="#d72323"/>
    <path id="Path_1130" data-name="Path 1130" d="M831.914,595.679q-1.1-2.693-2.263-5.37a15.936,15.936,0,0,0-2.766-4.777,5.06,5.06,0,0,0-1.622-1.217,6.919,6.919,0,0,0-2.117-.422,16.9,16.9,0,0,0-3.326-.089c-.43-.13-.917-.3-1.4-.495a11.583,11.583,0,0,0,8.63-10.747v-.495a11.558,11.558,0,0,0-11.51-11.607,11.356,11.356,0,0,0-6.043,1.728,10.845,10.845,0,0,0-12.167,5.864,13.408,13.408,0,0,0-4.137,9.977c0,.17,0,.349,0,.511.211,6.3,4.283,11.356,9.425,11.867a5.4,5.4,0,0,0-1.493,1c-1.573,1.517-1.833,3.926-2,6.116l-.122,1.622-2.725.973a.5.5,0,0,0-.122.884l2.6,1.858v.462a2.026,2.026,0,0,0,.049.527,3.723,3.723,0,0,0-1.006,1.436,6.635,6.635,0,0,0-.235,2.628l.1,2.263a17.771,17.771,0,0,0,.689,5.037c.341,1.006,1.817,3.431,2.879,3.447-.981,4.461-1.241,13.87-1.241,13.87-.122.122.219.235.811.333.584,4.477,2.49,17.034,5.872,22.557a47.554,47.554,0,0,1,1.273,5.483s.965,11.932,2.239,15.476c1.087,3.017,1.947,10.464,2.182,12.621a1.241,1.241,0,0,0-.9.925c-.641,1.93-4.794,4.867-4.794,4.867a20.076,20.076,0,0,0-3.585,2.3c-1.306,1.176-1.257,2.239,4.542,1.574,11.193-1.29,13.108-4.867,13.108-4.867s-.178-.6-.446-1.379a14.976,14.976,0,0,0-1.468-3.464c-.162-.154-.324.106-.519.511a69.449,69.449,0,0,1-.763-15.663s.316-5.483-1.282-9.352a17.706,17.706,0,0,1,0-6.124c.641-2.579-2.555-15.16-2.555-15.16l-1.833-9.263a2.659,2.659,0,0,1,.511,1.079l.049.187.049.268a.5.5,0,0,0,.13.252c1.249,5.191,4.672,19.572,4.672,21.681,0,2.579,3.2,9.028,3.2,9.028s1.273,10.642,3.512,14.827c1.7,3.188,1.744,7.86,1.663,9.92h0s-.381,2.652-1.022,3.293a7.835,7.835,0,0,0-1.209,2.1l-.073.154s-.957,1.939-.316,2.263a15.713,15.713,0,0,0,7.673.965S832,698.293,832,697.661a10.193,10.193,0,0,0-.146-1.152c-.235-1.525-.673-3.926-.681-3.95.268-1.038-.811-3.926-.811-3.926l-.324-9.028a41.674,41.674,0,0,0-2.239-18.064s-1.622-5.8-1.273-7.414-.641-18.7-.641-18.7l-.1-.243a18.483,18.483,0,0,1,.1-3.626c.316-3.869-.957-11.932-1.281-12.248a10.623,10.623,0,0,1-.454-2.669c.073-.673.292-2.644.592-5.094a91.578,91.578,0,0,0,9.425-.811,1.176,1.176,0,0,0,.811-.324,1.136,1.136,0,0,0,.187-.657C835.532,604.893,833.755,600.172,831.914,595.679Zm-6.432,10.228c.333-2.312.689-4.55,1.046-6.213l.049.146a45.124,45.124,0,0,1,1.541,5.11A17.393,17.393,0,0,1,825.482,605.907Z" transform="translate(-65.999 51.518)" fill="url(#linear-gradient)"/>
    <path id="Path_1131" data-name="Path 1131" d="M802.37,648.533s1.914,17.22,6.059,23.912a46.426,46.426,0,0,1,1.273,5.418s.957,11.794,2.231,15.3,2.231,13.075,2.231,13.075,4.461,5.094,6.059.957a67.173,67.173,0,0,1-.957-16.579s.316-5.418-1.273-9.247a17.29,17.29,0,0,1,0-6.051c.633-2.555-2.555-14.981-2.555-14.981L812.89,647.9Z" transform="translate(-67.732 35.002)" fill="#be6f72"/>
    <path id="Path_1132" data-name="Path 1132" d="M822.871,723.8s-1.914,3.5-13.067,4.777c-5.791.657-5.832-.389-4.526-1.557a20.188,20.188,0,0,1,3.569-2.271s4.145-2.863,4.778-4.778,2.871-.316,2.871-.316c3.188,4.777,3.828-1.282,4.461-.641a14.374,14.374,0,0,1,1.468,3.415C822.693,723.2,822.871,723.8,822.871,723.8Z" transform="translate(-68.149 21.578)" fill="#ff6f61"/>
    <path id="Path_1133" data-name="Path 1133" d="M822.871,724.611s-1.914,3.5-13.067,4.777c-5.791.657-5.832-.389-4.526-1.557.909.576,2.742.811,6.432-.673,5.313-2.174,9.166-3.431,10.715-3.918C822.693,724.01,822.871,724.611,822.871,724.611Z" transform="translate(-68.149 20.772)" opacity="0.1"/>
    <path id="Path_1134" data-name="Path 1134" d="M821.2,690.613s.316-5.418-1.273-9.247a17.292,17.292,0,0,1,0-6.051c.633-2.555-2.555-14.981-2.555-14.981L814.826,647.9l-2.206.13,2.523,12.3s3.188,12.426,2.555,14.981a17.291,17.291,0,0,0,0,6.051c1.622,3.829,1.273,9.247,1.273,9.247a67.176,67.176,0,0,0,.957,16.579,2.791,2.791,0,0,1-.925,1.314c1.184.535,2.433.511,3.155-1.314A67.183,67.183,0,0,1,821.2,690.613Z" transform="translate(-69.668 35.002)" opacity="0.1"/>
    <path id="Path_1135" data-name="Path 1135" d="M815.443,562.42a11.356,11.356,0,0,0-6.019,1.711,10.828,10.828,0,0,0-12.167,5.8,13.205,13.205,0,0,0-4.129,9.863c0,6.781,4.567,12.272,10.2,12.272,4.056,0,7.608-2.888,9.239-7.065a11.194,11.194,0,0,0,2.871.373,11.477,11.477,0,0,0,0-22.955Z" transform="translate(-65.986 51.148)" fill="#3f3d56"/>
    <path id="Path_1136" data-name="Path 1136" d="M829.259,650.65l.957,2.547s.957,16.9.633,18.493,1.282,7.3,1.282,7.3a40.807,40.807,0,0,1,2.231,17.845l.316,8.922s1.273,3.5.641,4.145-5.443-.568-5.443-.568.641-6.692-1.622-10.837-3.5-14.665-3.5-14.665-3.188-6.375-3.188-8.922-5.1-23.271-5.1-23.271Z" transform="translate(-70.393 34.483)" fill="#be6f72"/>
    <path id="Path_1137" data-name="Path 1137" d="M801.574,645.587s.324-11.477,1.622-14.981a23.8,23.8,0,0,0,1.42-5.086s19.3,3.488,20.894,2.214c0,0,.316,4.461.641,4.777s1.622,8.29,1.273,12.118,0,3.82,0,3.82-13.075,1.914-13.392,0-1.273-1.906-1.273-1.906S800.942,646.187,801.574,645.587Z" transform="translate(-67.577 39.229)" fill="#3f3d56"/>
    <g id="Group_47" data-name="Group 47" transform="translate(733.997 666.964)" opacity="0.1">
      <path id="Path_1138" data-name="Path 1138" d="M812.1,650.107s-8.063-.219-10.5-.657v.657c-.633.633,11.161.957,11.161.957a.811.811,0,0,1,.438.178C812.773,650.107,812.1,650.107,812.1,650.107Z" transform="translate(-801.58 -632.254)"/>
      <path id="Path_1139" data-name="Path 1139" d="M829.005,633.028c-.324-.316-.641-4.778-.641-4.778a1.37,1.37,0,0,1-.544.195,16.12,16.12,0,0,0,.544,3.626c.211.211,1.622,8.29,1.273,12.118s0,3.82,0,3.82-10.342,1.517-12.848.5a3.851,3.851,0,0,0,.1.454c.316,1.914,13.392,0,13.392,0s-.324,0,0-3.82S829.322,633.352,829.005,633.028Z" transform="translate(-804.453 -628.25)"/>
      <path id="Path_1140" data-name="Path 1140" d="M812.1,650.107s-8.063-.219-10.5-.657v.657c-.633.633,11.161.957,11.161.957a.811.811,0,0,1,.438.178C812.773,650.107,812.1,650.107,812.1,650.107Z" transform="translate(-801.58 -632.254)"/>
      <path id="Path_1141" data-name="Path 1141" d="M829.005,633.028c-.324-.316-.641-4.778-.641-4.778a1.37,1.37,0,0,1-.544.195,16.12,16.12,0,0,0,.544,3.626c.211.211,1.622,8.29,1.273,12.118s0,3.82,0,3.82-10.342,1.517-12.848.5a3.851,3.851,0,0,0,.1.454c.316,1.914,13.392,0,13.392,0s-.324,0,0-3.82S829.322,633.352,829.005,633.028Z" transform="translate(-804.453 -628.25)"/>
    </g>
    <path id="Path_1142" data-name="Path 1142" d="M817.3,586.417a4.227,4.227,0,0,0,1.217,1.574,2.727,2.727,0,0,0,1.144.495c-.714.414-1.492.722-2.206,1.136a39.239,39.239,0,0,0-3.245,2.433,6.6,6.6,0,0,1-3.723,1.444,4.559,4.559,0,0,0,.519-4.534,4.235,4.235,0,0,1-.568-1.574,2.827,2.827,0,0,1,1.565-2.109c.608-.414,1.233-.811,1.865-1.209.495-.308,1.241-.957,1.866-.933s.7.576.811,1.144A8.993,8.993,0,0,0,817.3,586.417Z" transform="translate(-69.256 47.234)" fill="#be6f72"/>
    <path id="Path_1143" data-name="Path 1143" d="M817.3,586.417a4.227,4.227,0,0,0,1.217,1.574,2.727,2.727,0,0,0,1.144.495c-.714.414-1.492.722-2.206,1.136a39.239,39.239,0,0,0-3.245,2.433,6.6,6.6,0,0,1-3.723,1.444,4.559,4.559,0,0,0,.519-4.534,4.235,4.235,0,0,1-.568-1.574,2.827,2.827,0,0,1,1.565-2.109c.608-.414,1.233-.811,1.865-1.209.495-.308,1.241-.957,1.866-.933s.7.576.811,1.144A8.993,8.993,0,0,0,817.3,586.417Z" transform="translate(-69.256 47.234)" opacity="0.1"/>
    <circle id="Ellipse_97" data-name="Ellipse 97" cx="7.333" cy="7.333" r="7.333" transform="translate(748.184 637.796)" fill="#be6f72"/>
    <path id="Path_1144" data-name="Path 1144" d="M838.751,727.874c0,.641-1.273,2.231-1.273,2.231a15.785,15.785,0,0,1-7.649-.957c-.641-.316.316-2.231.316-2.231l.073-.154a7.739,7.739,0,0,1,1.209-2.077c.633-.633,1.014-3.245,1.014-3.245,1.979-3.244,5.491,1.4,5.491,1.4s.446,2.433.681,3.91A11.111,11.111,0,0,1,838.751,727.874Z" transform="translate(-72.876 21.329)" fill="#ff6f61"/>
    <path id="Path_1145" data-name="Path 1145" d="M838.751,729.376c0,.641-1.273,2.231-1.273,2.231a15.785,15.785,0,0,1-7.649-.957c-.641-.316.316-2.231.316-2.231l.073-.154a15.413,15.413,0,0,0,6.943,1.428l1.452-1.452C838.694,728.784,838.751,729.213,838.751,729.376Z" transform="translate(-72.876 19.827)" opacity="0.1"/>
    <circle id="Ellipse_98" data-name="Ellipse 98" cx="7.17" cy="7.17" r="7.17" transform="translate(733.681 622.652)" fill="#be6f72"/>
    <path id="Path_1146" data-name="Path 1146" d="M802.359,599.693c-1.573,1.5-1.833,3.877-2,6.043l-.243,3.172a16.019,16.019,0,0,0-.057,2.571c0,.527.13,1.063.178,1.622s.065,1.265.073,1.906V619.7a5.531,5.531,0,0,0,.519,2.814,1.914,1.914,0,0,0,2.433.876,2.775,2.775,0,0,0,1.006-1.557,24.209,24.209,0,0,0,1.622-5.937c.065-.706.073-1.411.138-2.117s.187-1.444.292-2.157c.454-2.985.657-6,.86-9.011.057-.892.86-4.4-.308-4.794-.568-.187-1.744.4-2.287.592a6.438,6.438,0,0,0-2.23,1.29Z" transform="translate(-67.291 44.47)" fill="#be6f72"/>
    <path id="Path_1147" data-name="Path 1147" d="M802.359,599.693c-1.573,1.5-1.833,3.877-2,6.043l-.243,3.172a16.019,16.019,0,0,0-.057,2.571c0,.527.13,1.063.178,1.622s.065,1.265.073,1.906V619.7a5.531,5.531,0,0,0,.519,2.814,1.914,1.914,0,0,0,2.433.876,2.775,2.775,0,0,0,1.006-1.557,24.209,24.209,0,0,0,1.622-5.937c.065-.706.073-1.411.138-2.117s.187-1.444.292-2.157c.454-2.985.657-6,.86-9.011.057-.892.86-4.4-.308-4.794-.568-.187-1.744.4-2.287.592a6.438,6.438,0,0,0-2.23,1.29Z" transform="translate(-67.291 44.47)" opacity="0.1"/>
    <path id="Path_1148" data-name="Path 1148" d="M818.064,588.16s-5.418,4.145-8.606,5.1c0,0-1.89,2.158-2.214,2.677s-.973,6.246-1.622,7.527-2.231,4.145,0,7.008c0,0,.633,2.871.316,3.828s-1.476,4.461-.422,4.623,4.25,2.385,7.114,1.752,13.554,2.433,13.554,2.433,1.768-16.425,3.05-19.329l-2.871-.957s-7.965-4.777-3.188-12.11C823.166,590.715,818.689,589.758,818.064,588.16Z" transform="translate(-68.128 46.286)" fill="#ff6f61"/>
    <path id="Path_1149" data-name="Path 1149" d="M796.793,611.349l6.586,4.664a.487.487,0,0,0,.576,0l1.784-1.338a.5.5,0,0,0,0-.762l-5.07-4.5a.486.486,0,0,0-.495-.1l-3.253,1.168a.495.495,0,0,0-.13.868Z" transform="translate(-66.64 42.296)" fill="#3f3d56"/>
    <path id="Path_1150" data-name="Path 1150" d="M799.377,626.227a17.655,17.655,0,0,1-.689-4.972l-.1-2.247a6.489,6.489,0,0,1,.235-2.6,4.242,4.242,0,0,1,2.734-2.393,9.439,9.439,0,0,1,3.723-.268.957.957,0,0,1,.479.13.892.892,0,0,1,.26.438,2.936,2.936,0,0,1,.146,2.344,2.432,2.432,0,0,1-.746.771c-.884.633-1.914,1.054-2.75,1.744a1,1,0,0,0-.373.47,1.1,1.1,0,0,0,0,.511,8.17,8.17,0,0,0,.422,1.306,1.289,1.289,0,0,0,.365.551c.154.13.357.179.519.3.349.284,1.079.657,1.038,1.1-.122,1.622-1.1,3.439-1.476,5.045C802.435,631.6,799.848,627.6,799.377,626.227Z" transform="translate(-67.01 41.466)" fill="#be6f72"/>
    <g id="Group_48" data-name="Group 48" transform="translate(742.433 649.59)" opacity="0.1">
      <path id="Path_1151" data-name="Path 1151" d="M812.159,628.232h-.178a5.461,5.461,0,0,0,2.085,0h.2A7.3,7.3,0,0,0,812.159,628.232Z" transform="translate(-811.98 -610.858)"/>
      <path id="Path_1152" data-name="Path 1152" d="M832.1,606.83c-1.144,2.571-2.831,16.5-3.131,19.264,1.119.292,1.857.5,1.857.5s1.752-16.385,3.034-19.288Z" transform="translate(-815.189 -606.83)"/>
    </g>
    <path id="Path_1153" data-name="Path 1153" d="M825.3,599.574a2.433,2.433,0,0,0,1.046,1.582,14.049,14.049,0,0,1,1.857,1.882,13.323,13.323,0,0,1,1.841,3.69,45.217,45.217,0,0,1,1.533,5.045c-4.056,1.882-8.663,1.793-12.978,3.034a10.358,10.358,0,0,0-4.867,2.879,6.708,6.708,0,0,0-1.793,5.28.689.689,0,0,0,.1.316.681.681,0,0,0,.568.227,4.866,4.866,0,0,0,2.977-1.022,14.164,14.164,0,0,0,2.279-2.239,3.666,3.666,0,0,1,1.622-1.2,26.55,26.55,0,0,1,7.3-.714,91.98,91.98,0,0,0,10.877-.86.876.876,0,0,0,.973-.973c.357-4.786-1.419-9.458-3.245-13.894q-1.095-2.669-2.255-5.313a15.738,15.738,0,0,0-2.758-4.721,4.867,4.867,0,0,0-1.622-1.2,6.859,6.859,0,0,0-2.174-.406,15.415,15.415,0,0,0-3.561-.065,7.585,7.585,0,0,0-.341,1.841,15.95,15.95,0,0,0,1.963,6.221C824.766,599.266,825.115,599.282,825.3,599.574Z" transform="translate(-69.533 45.782)" fill="#be6f72"/>
    <path id="Path_1154" data-name="Path 1154" d="M812.221,606.67a5.946,5.946,0,0,0-.811,3.1,4.174,4.174,0,0,0,.2,1.265,4.1,4.1,0,0,0,2.587,2.433" transform="translate(-69.439 42.79)" fill="none" stroke="#000" stroke-miterlimit="10" stroke-width="1" opacity="0.1"/>
    <path id="Path_1155" data-name="Path 1155" d="M814.081,573.225a3.722,3.722,0,0,0-1.176.187c-1.062-1.622-3.561-2.742-6.489-2.742-3.877,0-7.016,2-7.016,4.469s3.139,4.461,7.016,4.461a9.871,9.871,0,0,0,4.21-.892,3.82,3.82,0,1,0,3.439-5.483Z" transform="translate(-67.171 49.589)" fill="#3f3d56"/>
    <path id="Path_1156" data-name="Path 1156" d="M814.394,580.631a3.813,3.813,0,0,1-3.44-2.166,9.872,9.872,0,0,1-4.209.893c-3.869,0-7.008-2-7.008-4.461a2.674,2.674,0,0,1,0-.446,3.026,3.026,0,0,0-.357,1.4c0,2.433,3.139,4.461,7.016,4.461a9.872,9.872,0,0,0,4.21-.892,3.82,3.82,0,0,0,7.195-.949,3.8,3.8,0,0,1-3.407,2.158Z" transform="translate(-67.167 48.875)" opacity="0.1"/>
    <path id="Path_1157" data-name="Path 1157" d="M797.258,571.813a10.828,10.828,0,0,1,12.167-5.8,11.469,11.469,0,0,1,17.455,8.809v-.957a11.469,11.469,0,0,0-17.5-9.733,10.829,10.829,0,0,0-12.167,5.8,13.205,13.205,0,0,0-4.128,9.863v.957A12.978,12.978,0,0,1,797.258,571.813Z" transform="translate(-65.978 51.148)" opacity="0.1"/>
    <path id="Path_1176" data-name="Path 1176" d="M504.676,582.606a7.957,7.957,0,0,0-3.171-6.424,9.328,9.328,0,0,0-7.795-9.149A9.312,9.312,0,0,0,487.5,560.1h0a7.931,7.931,0,0,0-1.152-.268h-1.371a9.133,9.133,0,0,0-8.825,7.8c-2.847-.657-5.451.195-5.929,2a2.434,2.434,0,0,0,.081,1.444,6.277,6.277,0,0,0,4.185,3.39l.276.081.414.105h.089a7.172,7.172,0,0,0-.681,3.074,7.089,7.089,0,0,0,3.82,6.327l-.187.114a2.533,2.533,0,0,0-.616.86,12.864,12.864,0,0,0-1.192,2.871c-.2.86-.235,1.752-.487,2.6-.47,1.565-1.671,2.888-1.809,4.518-.065.73.057,1.622-.462,2.093a2.532,2.532,0,0,1-.414.292,3.348,3.348,0,0,0-.9.949,3.148,3.148,0,0,1-.633.908c-.47.349-1.241.316-1.468.86s.365,1.184.227,1.776-.641.706-1.006,1.038a3.61,3.61,0,0,0-.868,1.622,5.321,5.321,0,0,1-4.38-1.119,8.188,8.188,0,0,1,.454,1.622,7.1,7.1,0,0,0-2.36-1.184,7.454,7.454,0,0,1-2.515-1.865l1.347-.187-5.945-9.076-1.76-.365,1.574,3.025a.965.965,0,0,0-.535.641,2.749,2.749,0,0,0-.057,1.03,18.439,18.439,0,0,0,.406,2.433l.454,2.125c.041.195.089.4.146.592a5.587,5.587,0,0,0-1.76.195,15.314,15.314,0,0,0-3.658-.868,2.028,2.028,0,0,0-.811,0,2.1,2.1,0,0,0-.771.625,24.94,24.94,0,0,0-2.717,3.828c-3.244,5.564-7.47,10.423-11.469,15.452-2.758,1.119-5.54,2.182-8.322,3.244l-5.986,2.287a9.076,9.076,0,0,1-3.715.811c-.568,0-1.273-.122-1.622.365a3.415,3.415,0,0,0-.365.811l-.616.065h0a7.089,7.089,0,0,0-1.436-2.644.908.908,0,0,0-.673.519c-.146.268-.235.56-.406.811-.316.47-.876.7-1.273,1.095s-.649,1.014-1.087,1.419a4.3,4.3,0,0,1-2.036.811,12.845,12.845,0,0,0-3.188,1.209,5.141,5.141,0,0,1-1.176.543,4.42,4.42,0,0,1-1.387.049l-3.163-.235a2.5,2.5,0,0,0-.852.041,1.622,1.622,0,0,0-1.006,1.622,2.555,2.555,0,0,0,1.006,1.744,6.438,6.438,0,0,0,1.8.933,52.847,52.847,0,0,0,8.436,2.5v.641a14.4,14.4,0,0,0,6.489,1.541,1.006,1.006,0,0,0,.487-.089,1.07,1.07,0,0,0,.406-.633,26.1,26.1,0,0,0,1.265-6.213h0a3.242,3.242,0,0,0,1.144-.292c1.087-.3,2.174.446,3.3.568,1.387.154,2.669-.657,3.983-1.152l.568-.186A6.23,6.23,0,0,1,423.5,634.9c-.543.389-1.152.681-1.679,1.087a11.561,11.561,0,0,1-1.428,1.1,8.979,8.979,0,0,1-1.1.422,7.222,7.222,0,0,0-1.565.811,3.17,3.17,0,0,0-1.063,1.038,1.557,1.557,0,0,0-.089,1.46,1.541,1.541,0,0,0,1.046.73,4.3,4.3,0,0,0,1.29,0c1.72-.13,3.431-.284,5.142-.438a13.719,13.719,0,0,0,2.15-.308c.373-.089.746-.211,1.119-.316a9.987,9.987,0,0,1,1.955-.292,1.624,1.624,0,0,1,.568.057c.4.13.681.535,1.087.616a1.622,1.622,0,0,0,.811-.105,18.09,18.09,0,0,1,3.8-.406,1.57,1.57,0,0,0,1.476-.657c.26-.519-.211-1.355-.422-2.044a6.259,6.259,0,0,1-.178-1.346,8.427,8.427,0,0,0-.941-3.2,8.345,8.345,0,0,1-.706-1.46,36.883,36.883,0,0,0,7-3.553,12.515,12.515,0,0,1,3.991-1.922,10.853,10.853,0,0,1,5.013.584,114.02,114.02,0,0,1,11.494,4.007c1.793.738,3.577,1.517,5.426,2.076a8.461,8.461,0,0,0,1.93,1.874,8.923,8.923,0,0,0,4.177,1.144,54.772,54.772,0,0,0,5.881.219,9.92,9.92,0,0,0,4.38-.811,4.5,4.5,0,0,0,.917-.608,3.634,3.634,0,0,0,2.888-1.063,7,7,0,0,0,2.2-3.472c.479-1.849.114-4.056,1.249-5.532.3-.406.7-.73,1-1.136a3.2,3.2,0,0,0,.519-1.874.38.38,0,0,1,.049-.073,6.87,6.87,0,0,0,.487-1.866,10.664,10.664,0,0,1,.527-1.476,45.586,45.586,0,0,0,1.509-4.372,25.546,25.546,0,0,0,.7-3c.122-.811.195-1.622.26-2.433a15.114,15.114,0,0,1,.738-3.756,30.564,30.564,0,0,0,1.7-8.987v-.178a6.027,6.027,0,0,0,5.337-6.132,6.4,6.4,0,0,0-.56-2.62,8.111,8.111,0,0,0,1.087-4.088Zm-29.022,35.259c.089.316.195.625.3.933-.479-.462-.941-.941-1.419-1.411.187.065.381.122.56.195a3.022,3.022,0,0,1,.535.284Zm-2.3-1.557c-2.806-2.433-6.051-4.323-8.922-6.684,1.565.771,3.09,1.671,4.6,2.531q2.685,1.533,5.443,2.944a4.454,4.454,0,0,1-1.144,1.209Zm1.192-6.132.138-.138V611l-.754-.26a6.712,6.712,0,0,0,.592-.568Zm-24.682,6.57a23.224,23.224,0,0,0,2.985-4.258c1.111,1.939,2.92,3.342,4.453,4.972C454.832,617.144,452.35,616.876,449.868,616.746Z" transform="translate(9.039 51.637)" fill="url(#linear-gradient-2)"/>
    <path id="Path_1177" data-name="Path 1177" d="M415.35,438.25l1.768.357,6.027,8.914-2.652.357Z" transform="translate(47.548 206.513)" fill="#2f2e41"/>
    <path id="Path_1178" data-name="Path 1178" d="M414.49,645.439a34.7,34.7,0,0,0,1.768,4.6,43.781,43.781,0,0,0,5.881-1.679,18.541,18.541,0,0,0-1.225-1.622,6.051,6.051,0,0,0-1.663-1.273,4.575,4.575,0,0,0-2.02,0C416.323,645.439,415.407,645.456,414.49,645.439Z" transform="translate(5.532 35.484)" fill="#fbbebe"/>
    <path id="Path_1179" data-name="Path 1179" d="M415.731,647.221a3.666,3.666,0,0,1-2.012-2.287,7.365,7.365,0,0,0-1.533-2.733.876.876,0,0,0-.681.511c-.146.26-.235.552-.4.811-.324.462-.892.689-1.3,1.079s-.649,1-1.087,1.4a4.314,4.314,0,0,1-2.052.811A13.309,13.309,0,0,0,403.426,648a5.6,5.6,0,0,1-1.192.535,4.721,4.721,0,0,1-1.4,0l-3.2-.227a2.494,2.494,0,0,0-.811,0,1.549,1.549,0,0,0-1.014,1.622,2.434,2.434,0,0,0,1.014,1.72,6.735,6.735,0,0,0,1.817.925,53.461,53.461,0,0,0,8.565,2.433v.633a14.826,14.826,0,0,0,6.53,1.517,1.1,1.1,0,0,0,.487-.081,1.07,1.07,0,0,0,.406-.633,25.31,25.31,0,0,0,1.338-6.943,5.534,5.534,0,0,0-.138-1.793c-.178-.576.422-.333-.13-.56" transform="translate(9.061 36.079)" fill="#2f2e41"/>
    <path id="Path_1180" data-name="Path 1180" d="M481.281,632.951c-9.474.568-18.834-2.206-28.324-2.5a13.833,13.833,0,0,0-3.52.219,17.734,17.734,0,0,0-3.488,1.355c-5.086,2.368-10.35,4.331-15.606,6.286L424.3,640.56a9.149,9.149,0,0,1-3.739.811c-.576,0-1.281-.122-1.622.357-.981,1.46-.519,3.593.13,5.232.211.527.568,1.1,1.136,1.16a3.3,3.3,0,0,0,1.152-.292c1.1-.292,2.19.446,3.326.568,1.4.146,2.693-.649,4.015-1.136,2.19-.811,4.575-.811,6.878-1.168a30.815,30.815,0,0,0,10.772-4.469,12.573,12.573,0,0,1,4.015-1.9,11.111,11.111,0,0,1,5.053.576,115.961,115.961,0,0,1,11.591,3.942,54.021,54.021,0,0,0,6.051,2.214,21.9,21.9,0,0,0,13.57-.811c1.517-.6,3.163-1.622,3.244-3.293.057-.933-.673-1.752-1.152-2.555-.308-.511-.625-1.022-.957-1.517C486.139,635.928,484.16,632.781,481.281,632.951Z" transform="translate(4.799 38.303)" fill="#2f2e41"/>
    <path id="Path_1181" data-name="Path 1181" d="M481.281,632.951c-9.474.568-18.834-2.206-28.324-2.5a13.833,13.833,0,0,0-3.52.219,17.734,17.734,0,0,0-3.488,1.355c-5.086,2.368-10.35,4.331-15.606,6.286L424.3,640.56a9.149,9.149,0,0,1-3.739.811c-.576,0-1.281-.122-1.622.357-.981,1.46-.519,3.593.13,5.232.211.527.568,1.1,1.136,1.16a3.3,3.3,0,0,0,1.152-.292c1.1-.292,2.19.446,3.326.568,1.4.146,2.693-.649,4.015-1.136,2.19-.811,4.575-.811,6.878-1.168a30.815,30.815,0,0,0,10.772-4.469,12.573,12.573,0,0,1,4.015-1.9,11.111,11.111,0,0,1,5.053.576,115.961,115.961,0,0,1,11.591,3.942,54.021,54.021,0,0,0,6.051,2.214,21.9,21.9,0,0,0,13.57-.811c1.517-.6,3.163-1.622,3.244-3.293.057-.933-.673-1.752-1.152-2.555-.308-.511-.625-1.022-.957-1.517C486.139,635.928,484.16,632.781,481.281,632.951Z" transform="translate(4.799 38.303)" opacity="0.1"/>
    <path id="Path_1182" data-name="Path 1182" d="M436.92,645.081q2.222.754,4.485,1.4c.811-1.387,2.433-2.352,2.782-3.942a.373.373,0,0,0,0-.211.389.389,0,0,0-.17-.154,8.5,8.5,0,0,0-3.52-1.03c-.973-.057-1.419.957-1.857,1.671C438.469,643.127,437.317,645.236,436.92,645.081Z" transform="translate(1.295 36.279)" fill="#fbbebe"/>
    <path id="Path_1183" data-name="Path 1183" d="M436.068,644.256a3.244,3.244,0,0,1-2.182-1.436c-.2-.365-.43-.86-.852-.811s-.56.487-.649.868a24.325,24.325,0,0,1-1.225,4.21,7.9,7.9,0,0,1-2.62,3.447c-.552.381-1.16.665-1.7,1.071a11.7,11.7,0,0,1-1.436,1.087,8.524,8.524,0,0,1-1.1.406,7.644,7.644,0,0,0-1.574.811,3.123,3.123,0,0,0-1.079,1.03,1.484,1.484,0,0,0-.081,1.436,1.533,1.533,0,0,0,1.046.714,4.417,4.417,0,0,0,1.306,0c1.728-.122,3.455-.276,5.183-.43a14.968,14.968,0,0,0,2.166-.3l1.127-.308a8.98,8.98,0,0,1,1.971-.292,1.533,1.533,0,0,1,.576.057c.4.13.681.527,1.1.608a1.832,1.832,0,0,0,.811-.105,17.912,17.912,0,0,1,3.837-.4,1.619,1.619,0,0,0,1.492-.649c.324-.633-.211-1.338-.43-2.02a6.486,6.486,0,0,1-.178-1.322,8.062,8.062,0,0,0-.949-3.147c-.438-.811-1.038-1.7-.73-2.563a2.433,2.433,0,0,0,.292-.884C440.059,643.94,436.863,644.434,436.068,644.256Z" transform="translate(4.223 36.115)" fill="#2f2e41"/>
    <path id="Path_1184" data-name="Path 1184" d="M476.561,612.86a7.4,7.4,0,0,1-3.78-3.747c-.154-.357-.284-.738-.438-1.095a8.323,8.323,0,0,0-2.255-3.139,1.111,1.111,0,0,0-.811-.349.884.884,0,0,0-.608.657,2.506,2.506,0,0,0-.065,1.014,18.048,18.048,0,0,0,.406,2.368l.462,2.093a4.59,4.59,0,0,0,.284.933,3.243,3.243,0,0,0,.771.917c.422.389.852.762,1.282,1.136a4.4,4.4,0,0,0,.811.56,4.711,4.711,0,0,0,1.436.422,12.217,12.217,0,0,1,5.386,2.076s0-1.4,0-1.557a2.06,2.06,0,0,0-.406-1.127,7.2,7.2,0,0,0-2.474-1.16Z" transform="translate(-4.685 43.194)" fill="#fbbebe"/>
    <path id="Path_1185" data-name="Path 1185" d="M476.561,612.86a7.4,7.4,0,0,1-3.78-3.747c-.154-.357-.284-.738-.438-1.095a8.323,8.323,0,0,0-2.255-3.139,1.111,1.111,0,0,0-.811-.349.884.884,0,0,0-.608.657,2.506,2.506,0,0,0-.065,1.014,18.048,18.048,0,0,0,.406,2.368l.462,2.093a4.59,4.59,0,0,0,.284.933,3.243,3.243,0,0,0,.771.917c.422.389.852.762,1.282,1.136a4.4,4.4,0,0,0,.811.56,4.711,4.711,0,0,0,1.436.422,12.217,12.217,0,0,1,5.386,2.076s0-1.4,0-1.557a2.06,2.06,0,0,0-.406-1.127,7.2,7.2,0,0,0-2.474-1.16Z" transform="translate(-4.685 43.194)" opacity="0.1"/>
    <ellipse id="Ellipse_99" data-name="Ellipse 99" cx="2.304" cy="2.32" rx="2.304" ry="2.32" transform="translate(488.862 635.403)" fill="#2f2e41"/>
    <path id="Path_1186" data-name="Path 1186" d="M496.728,590.464a2.49,2.49,0,0,0-1.817.26,2.525,2.525,0,0,0-.625.852,12.368,12.368,0,0,0-1.2,2.823c-.2.811-.235,1.728-.495,2.563-.47,1.541-1.679,2.847-1.817,4.453-.065.722.057,1.565-.47,2.052a2.981,2.981,0,0,1-.414.3,3.116,3.116,0,0,0-.908.933,3.056,3.056,0,0,1-.641.884c-.47.349-1.249.316-1.476.811s.365,1.168.227,1.752-.649.7-1.014,1.022a3.545,3.545,0,0,0-.876,1.622,5.41,5.41,0,0,1-4.412-1.1,14.051,14.051,0,0,1,.689,5.045,2.061,2.061,0,0,1-.406,1.557,28.1,28.1,0,0,1,5.41.941,3.732,3.732,0,0,0,2.36,0,3.941,3.941,0,0,0,1.087-.86,6.929,6.929,0,0,0,2.231-3.439,20.193,20.193,0,0,0,.04-2.328,13.129,13.129,0,0,1,.592-2.831,33.691,33.691,0,0,0,1.03-5.824c.105-1.217,1.16-2.19,1.711-3.245,1.038-2.052,2.109-4.185,2.182-6.489C497.751,591.478,497.491,590.545,496.728,590.464Z" transform="translate(-6.991 45.864)" fill="#2f2e41"/>
    <path id="Path_1187" data-name="Path 1187" d="M496.728,590.464a2.49,2.49,0,0,0-1.817.26,2.525,2.525,0,0,0-.625.852,12.368,12.368,0,0,0-1.2,2.823c-.2.811-.235,1.728-.495,2.563-.47,1.541-1.679,2.847-1.817,4.453-.065.722.057,1.565-.47,2.052a2.981,2.981,0,0,1-.414.3,3.116,3.116,0,0,0-.908.933,3.056,3.056,0,0,1-.641.884c-.47.349-1.249.316-1.476.811s.365,1.168.227,1.752-.649.7-1.014,1.022a3.545,3.545,0,0,0-.876,1.622,5.41,5.41,0,0,1-4.412-1.1,14.051,14.051,0,0,1,.689,5.045,2.061,2.061,0,0,1-.406,1.557,28.1,28.1,0,0,1,5.41.941,3.732,3.732,0,0,0,2.36,0,3.941,3.941,0,0,0,1.087-.86,6.929,6.929,0,0,0,2.231-3.439,20.193,20.193,0,0,0,.04-2.328,13.129,13.129,0,0,1,.592-2.831,33.691,33.691,0,0,0,1.03-5.824c.105-1.217,1.16-2.19,1.711-3.245,1.038-2.052,2.109-4.185,2.182-6.489C497.751,591.478,497.491,590.545,496.728,590.464Z" transform="translate(-6.991 45.864)" opacity="0.1"/>
    <path id="Path_1188" data-name="Path 1188" d="M486.764,631.456c-1.971-.941-3.415-2.685-5.013-4.185-3.042-2.863-6.765-4.867-9.969-7.568a70.211,70.211,0,0,0-6.351-5.337,15.871,15.871,0,0,0-6.805-2.377,1.807,1.807,0,0,0-.811,0,1.866,1.866,0,0,0-.771.608,24.512,24.512,0,0,0-2.75,3.772c-4.056,6.895-9.823,12.686-14.6,19.094a1.217,1.217,0,0,0-.235.454,1.128,1.128,0,0,0,.178.706l.973,1.9c.543,1.071,1.419,2.312,2.587,2.1a2.831,2.831,0,0,0,1.355-.868l4.364-4.177,4.575-4.372c2.677-2.555,5.4-5.175,7.154-8.452,1.363,2.368,3.788,3.918,5.443,6.083.633.811,1.152,1.728,1.72,2.6.9,1.4,1.93,2.709,2.952,4.056l5.248,6.692a10.04,10.04,0,0,0,2.433,2.433,9.288,9.288,0,0,0,4.21,1.127,55.615,55.615,0,0,0,5.929.211,10.222,10.222,0,0,0,4.421-.811,4.007,4.007,0,0,0,2.393-3.561,5.224,5.224,0,0,0-.754-2.214A18.076,18.076,0,0,0,486.764,631.456Z" transform="translate(0.817 41.794)" fill="#2f2e41"/>
    <ellipse id="Ellipse_100" data-name="Ellipse 100" cx="1.776" cy="1.784" rx="1.776" ry="1.784" transform="translate(490.808 637.544)" fill="#e8e8f0"/>
    <path id="Path_1189" data-name="Path 1189" d="M502.9,591.232a3.415,3.415,0,0,1,.195,2.563,10.4,10.4,0,0,1-1.144,2.36,11.234,11.234,0,0,1-1.484,2.109,15.279,15.279,0,0,0,7.8-2.239,11.331,11.331,0,0,0,4.923-4.291,2.271,2.271,0,0,1-1.817-.341,6.489,6.489,0,0,1-1.387-1.29l-1.371-1.541a6.171,6.171,0,0,1-.811-1.111,3.066,3.066,0,0,1-.365-1.793,10.437,10.437,0,0,1-1.817,1.509c-.981.641-2.06,1.1-3.05,1.736-.341.227-1.119.584-.917,1.038S502.628,590.746,502.9,591.232Z" transform="translate(-10.708 46.758)" fill="#fbbebe"/>
    <path id="Path_1190" data-name="Path 1190" d="M502.9,591.232a3.415,3.415,0,0,1,.195,2.563,10.4,10.4,0,0,1-1.144,2.36,11.234,11.234,0,0,1-1.484,2.109,15.279,15.279,0,0,0,7.8-2.239,11.331,11.331,0,0,0,4.923-4.291,2.271,2.271,0,0,1-1.817-.341,6.489,6.489,0,0,1-1.387-1.29l-1.371-1.541a6.171,6.171,0,0,1-.811-1.111,3.066,3.066,0,0,1-.365-1.793,10.437,10.437,0,0,1-1.817,1.509c-.981.641-2.06,1.1-3.05,1.736-.341.227-1.119.584-.917,1.038S502.628,590.746,502.9,591.232Z" transform="translate(-10.708 46.758)" opacity="0.1"/>
    <path id="Path_1191" data-name="Path 1191" d="M501,592.793a2.312,2.312,0,0,0,0,2.677c.081.1.373.706.495.714a.446.446,0,0,0,.308-.162,20.355,20.355,0,0,0,1.736-2.068,3.86,3.86,0,0,1,2.206-1.444,4.769,4.769,0,0,1,3.042.949,2.886,2.886,0,0,1,1.046.811,2.83,2.83,0,0,1,.341,1.16,55.887,55.887,0,0,1,.308,7.373,29.055,29.055,0,0,1-.349,5.313c-.178.9-.438,1.784-.56,2.7a17.231,17.231,0,0,0-.114,2.433v3.391a8.92,8.92,0,0,0,.13,1.857c.162.738.511,1.428.746,2.15a14.063,14.063,0,0,1,.495,2.539l.462,3.5a4.43,4.43,0,0,1-.414,3.245c-.3.4-.7.722-1.006,1.119-1.144,1.492-.811,3.626-1.257,5.451a6.8,6.8,0,0,1-2.222,3.407,3.674,3.674,0,0,1-2.928,1.046c-1.428-.268-2.279-1.752-2.669-3.155s-.527-2.928-1.371-4.112a10.908,10.908,0,0,0-2.709-2.263,4.68,4.68,0,0,1-2.117-2.75c-.089-.511,0-1.038-.089-1.557a3.674,3.674,0,0,0-2.263-2.977c-.73-.284-1.622-.389-2.044-1.054a4.923,4.923,0,0,0,2.133-2.863,14.707,14.707,0,0,0,.519-3.618l.243-4.056a13.547,13.547,0,0,1,.965-5.264c.357-.73.811-1.419,1.176-2.141a23.246,23.246,0,0,0,1.257-3.139c.584-1.671,1.168-3.342,1.687-5.029a9.473,9.473,0,0,1,.925-2.344C499.544,593.872,500.177,592.955,501,592.793Z" transform="translate(-8.768 45.465)" fill="#e8e8f0"/>
    <path id="Path_1192" data-name="Path 1192" d="M492.333,619.1h1.079l.227-1.622a3.382,3.382,0,0,1,.227-.949,5.68,5.68,0,0,1,.625-.908c1.054-1.5.981-3.488,1.241-5.313a27.033,27.033,0,0,1,2.368-6.943l2.093-4.664a6.444,6.444,0,0,0,.454-1.192,7.151,7.151,0,0,0,.13-1.379c0-.722.227-3.35.251-4.056,0-.268-.592-.122-.714-.357-.26-.519-.616.884-1.111,1.192a2.725,2.725,0,0,0-.965,1.411c-.454,1.168-.73,2.433-1.152,3.593a7.341,7.341,0,0,1-1.955,3.18c-.43.373-.925.673-1.33,1.079-1.3,1.282-1.428,3.318-1.468,5.151C492.3,608.439,492.09,619.1,492.333,619.1Z" transform="translate(-9.149 45.636)" fill="#2f2e41"/>
    <path id="Path_1193" data-name="Path 1193" d="M509.209,590.444a3.682,3.682,0,0,0-1.922,2.636,13.336,13.336,0,0,1-.973,3.244c-1.314,2.287-4.664,2.953-5.6,5.426a9.973,9.973,0,0,0-.373,2.555c-.162,1.776-.746,3.488-.925,5.256a23.424,23.424,0,0,0,.1,4.129l1.176,13.967a18.657,18.657,0,0,1-.349,6.148,5.921,5.921,0,0,0,3.52-.584c1.095-.5,2.1-1.192,3.163-1.776,1.817-1.006,3.828-1.711,5.426-3.05a3.319,3.319,0,0,0,.73-.811,7.013,7.013,0,0,0,.487-1.833,9.883,9.883,0,0,1,.527-1.444,42.578,42.578,0,0,0,1.525-4.315,24.8,24.8,0,0,0,.7-2.952c.13-.811.2-1.622.268-2.433a14.278,14.278,0,0,1,.746-3.69,29.728,29.728,0,0,0,1.711-8.857,4.632,4.632,0,0,0-.089-1.3,6.942,6.942,0,0,0-.714-1.484c-.487-.917-.811-1.922-1.233-2.855a14.04,14.04,0,0,0-4.794-5.037C511.374,590.745,510.271,590.063,509.209,590.444Z" transform="translate(-10.5 45.875)" fill="#2f2e41"/>
    <path id="Path_1194" data-name="Path 1194" d="M478.333,617.473a8.456,8.456,0,0,1-2.231-1.7c-.292-.341-.535-.722-.811-1.062a5.524,5.524,0,0,0-2.807-1.622,13.707,13.707,0,0,0-3.244-.316,5.887,5.887,0,0,0-2.166.26,2.206,2.206,0,0,0-1.436,1.541,2.555,2.555,0,0,0,1.095,2.271,5.16,5.16,0,0,0,2.182,1.054,17.456,17.456,0,0,0,1.971.235c3.877.406,7.341,2.515,10.739,4.437q4.477,2.547,9.133,4.737a18.968,18.968,0,0,0,.154-2.8c0-.7-.057-1.768-.714-2.182a14.321,14.321,0,0,0-2.9-.868,45.72,45.72,0,0,1-5.848-2.369A29.091,29.091,0,0,1,478.333,617.473Z" transform="translate(-4.128 41.639)" fill="#fbbebe"/>
    <ellipse id="Ellipse_101" data-name="Ellipse 101" cx="6.911" cy="6.951" rx="6.911" ry="6.951" transform="translate(484.254 623.293)" fill="#fbbebe"/>
    <path id="Path_1195" data-name="Path 1195" d="M509.962,599.975a11.078,11.078,0,0,0-1.338,2.506c-.811,1.752-2.19,3.244-2.863,5.1s-.681,4.242-2.068,5.759a2.019,2.019,0,0,0-.608.876,4.176,4.176,0,0,1-.065.633c-.2.552-1.1.576-1.273,1.144-.049.162,0,.341-.081.5-.138.365-.625.422-.941.641-.673.454-.535,1.509-1.014,2.166a1.825,1.825,0,0,1-1.728.608,6.085,6.085,0,0,1-1.792-.673,1.729,1.729,0,0,0-.649-.2,1.338,1.338,0,0,0-.746.26,4.6,4.6,0,0,0-1.866,3.934,12.848,12.848,0,0,0,1.071,4.4,1.769,1.769,0,0,0,.349.657,1.549,1.549,0,0,0,1.72.13,8.11,8.11,0,0,1,1.679-.754c1.071-.195,2.117.543,3.2.479a4.452,4.452,0,0,0,2.158-.949,11.924,11.924,0,0,0,2.9-2.433c.47-.625.811-1.33,1.233-2a25.6,25.6,0,0,1,1.744-2.328l3.991-4.867a11.213,11.213,0,0,0,1.071-1.476,10.408,10.408,0,0,0,.811-2.231,17.091,17.091,0,0,0,.811-3.966,15.241,15.241,0,0,0-.292-3.326,11.753,11.753,0,0,0-.811-3.172C513.7,599.569,511.592,598.077,509.962,599.975Z" transform="translate(-9.282 44.221)" fill="#2f2e41"/>
    <path id="Path_1196" data-name="Path 1196" d="M522.948,583.748a7.787,7.787,0,0,0-3.2-6.327,9.255,9.255,0,0,0-7.86-9.011,8.979,8.979,0,0,0-17.691.479c-2.871-.649-5.5.195-5.978,1.963s1.549,4.056,4.575,4.867a8.526,8.526,0,0,0,2.936.292,8.988,8.988,0,0,0,6.181,3.853,9.223,9.223,0,0,0,6.749,6.959,7.746,7.746,0,0,0,2.085,2.88v.673a5.848,5.848,0,0,0,11.7,0,6.248,6.248,0,0,0-.56-2.588A7.82,7.82,0,0,0,522.948,583.748Z" transform="translate(-8.382 51.379)" fill="#f86d70"/>
    <path id="Path_1197" data-name="Path 1197" d="M490.168,571.224c.479-1.768,3.107-2.612,5.978-1.963a9.133,9.133,0,0,1,8.922-7.689h.592a8.8,8.8,0,0,0-2.547-.381,9.133,9.133,0,0,0-8.922,7.689c-2.871-.649-5.5.195-5.978,1.963s1.549,4.056,4.575,4.867a8.919,8.919,0,0,0,1.736.3C491.629,575.141,489.69,573.032,490.168,571.224Z" transform="translate(-8.38 51.38)" opacity="0.1"/>
    <path id="Path_1198" data-name="Path 1198" d="M514.47,594.235a6.091,6.091,0,0,1,0-.665,7.575,7.575,0,0,1-2.085-2.879,9.2,9.2,0,0,1-6.748-6.968,8.963,8.963,0,0,1-6.189-3.845,7.786,7.786,0,0,1-1.728-.049,9.012,9.012,0,0,0,5.962,3.545,9.222,9.222,0,0,0,6.748,6.959,7.746,7.746,0,0,0,2.085,2.879v.673a5.954,5.954,0,0,0,5.816,6.051A6.051,6.051,0,0,1,514.47,594.235Z" transform="translate(-10.189 47.859)" opacity="0.1"/>
    <ellipse id="Ellipse_102" data-name="Ellipse 102" cx="1.063" cy="1.419" rx="1.063" ry="1.419" transform="translate(491.773 631.177) rotate(-37.22)" fill="#fbbebe"/>
  </g>
</svg>