       <svg xmlns="http://www.w3.org/2000/svg" width="600.565" height="857.062" viewBox="0 0 829.565 1070.062">
            <path id="Path_1236" data-name="Path 1236" d="M589.6,137.036c-60.53-1.757-118.188-18.023-173.236-35.826S306.773,63.7,247.688,54.269C209.683,48.2,166.23,47.343,135.606,64.311c-29.458,16.317-38.985,44.5-44.1,70.639-3.851,19.67-6.115,40.378,4.434,58.79,7.331,12.787,20.337,23.529,29.332,35.776,31.308,42.617,9.18,95.157-24.746,136.76-15.912,19.518-34.365,38.14-46.645,58.917s-17.947,44.6-7.213,65.774c10.65,21,36.021,36.781,63.511,47.878,55.825,22.541,121.617,28.994,185.8,32.642,141.962,8.1,284.693,4.586,427.111,1.081,52.692-1.292,105.57-2.61,157.451-9.392,28.783-3.767,58.5-9.746,79.389-24.18,26.536-18.327,33.107-49.348,15.329-72.328C945.447,428.131,863,418.528,842.158,377.2c-11.469-22.761.313-48.14,16.984-69.254,35.759-45.285,95.706-85.022,98.864-136.819,2.171-35.556-26.646-71.163-71.2-87.986C840.1,65.51,775.319,67.731,740.869,96.919,705.4,127.019,643.052,138.581,589.6,137.036Z" transform="translate(891.21 168.304) rotate(111)" fill="#d72323" opacity="0.1"/>
          </svg>